<svg width="20" height="21" viewBox="0 0 20 21" fill="none" xmlns="http://www.w3.org/2000/svg">
<g clip-path="url(#clip0_906_12337)">
<path d="M7.52503 18.9703L9.4667 17.337C9.75837 17.087 10.2417 17.087 10.5334 17.337L12.475 18.9703C12.925 19.1953 13.475 18.9703 13.6417 18.487L14.0084 17.3786C14.1 17.112 14.0084 16.7203 13.8084 16.5203L11.9167 14.6203C11.775 14.487 11.6667 14.2203 11.6667 14.0286V11.6536C11.6667 11.3036 11.925 11.137 12.25 11.2703L16.3417 13.037C16.9834 13.312 17.5084 12.9703 17.5084 12.2703V11.1953C17.5084 10.637 17.0917 9.99531 16.575 9.77865L11.9167 7.77031C11.7834 7.71198 11.6667 7.53698 11.6667 7.38698V4.88698C11.6667 4.10365 11.0917 3.17865 10.3917 2.82031C10.1417 2.69531 9.85003 2.69531 9.60003 2.82031C8.90003 3.17865 8.32503 4.11198 8.32503 4.89531V7.39531C8.32503 7.54531 8.20837 7.72031 8.07503 7.77865L3.42503 9.78698C2.90837 9.99531 2.4917 10.637 2.4917 11.1953V12.2703C2.4917 12.9703 3.0167 13.312 3.65837 13.037L7.75003 11.2703C8.0667 11.1286 8.33337 11.3036 8.33337 11.6536V14.0286C8.33337 14.2203 8.22503 14.487 8.0917 14.6203L6.20003 16.5203C6.00003 16.7203 5.90837 17.1036 6.00003 17.3786L6.3667 18.487C6.5167 18.9703 7.0667 19.2036 7.52503 18.9703Z" stroke="#2EC4B6" stroke-width="1.5" stroke-linecap="round" stroke-linejoin="round"/>
</g>
<defs>
<clipPath id="clip0_906_12337">
<rect width="20" height="20" fill="white" transform="translate(0 0.895508)"/>
</clipPath>
</defs>
</svg>
