<svg width="45" height="45" viewBox="0 0 45 45" fill="none" xmlns="http://www.w3.org/2000/svg">
<path fill-rule="evenodd" clip-rule="evenodd" d="M40.8768 14.0965C41.4141 13.5591 41.4141 12.6879 40.8768 12.1506L29.869 1.14276C29.3316 0.605408 28.4604 0.605408 27.923 1.14276C27.3857 1.68011 27.3857 2.55133 27.923 3.08869L36.5819 11.7476L9.63232 11.7476C5.83267 11.7476 2.75244 14.8278 2.75244 18.6274V40.6431C2.75244 41.403 3.36849 42.019 4.12842 42.019C4.88835 42.019 5.50439 41.403 5.50439 40.6431V18.6274C5.50439 16.3476 7.35253 14.4995 9.63232 14.4995L36.5819 14.4995L27.923 23.1584C27.3857 23.6957 27.3857 24.567 27.923 25.1043C28.4604 25.6417 29.3316 25.6417 29.869 25.1043L40.8768 14.0965Z" fill="#FCFCFC"/>
</svg>
