<svg width="45" height="45" viewBox="0 0 45 45" fill="none" xmlns="http://www.w3.org/2000/svg">
<g clip-path="url(#clip0_682_4096)">
<ellipse cx="22.0796" cy="23.6201" rx="22" ry="22.5041" fill="#E1F5F3"/>
<g clip-path="url(#clip1_682_4096)">
<path d="M13.2262 5.83889C12.7085 5.99816 12.4563 6.2238 12.244 6.74144C12.0847 7.12635 12.098 7.32544 12.3236 8.40054C12.4696 9.07746 12.7218 10.0331 12.8678 10.5507C13.12 11.4135 13.3854 13.7628 13.3987 15.1033C13.3987 15.5281 13.3456 15.6873 13.1731 15.7404C11.4741 16.2846 10.4787 17.5986 10.4787 19.2975C10.4787 20.147 10.8238 20.9168 11.5538 21.6999C12.2174 22.4167 12.4563 22.5627 13.3058 22.7617L13.9429 22.9078L14.3676 23.9696C14.8853 25.2305 15.7347 26.4781 16.7567 27.4338L17.5 28.1372L16.2922 28.8805C14.2216 30.1547 12.1643 31.5484 11.5538 32.066C10.2265 33.2075 8.97885 35.3311 8.40812 37.3751C8.18248 38.2113 7.97012 43.9717 8.14266 44.6487C8.23557 45.0203 8.6603 45.5247 8.88594 45.5247C9.25758 45.5247 9.35049 44.8477 9.43013 41.4101C9.50977 38.0653 9.52304 37.8397 9.85486 36.9371C10.399 35.3975 11.0096 34.3755 11.9387 33.4331C12.7218 32.6367 13.6774 31.9067 14.0756 31.8271C14.1818 31.8005 14.2349 32.1456 14.2614 32.9155C14.3278 35.1718 14.4738 35.8089 15.1905 36.9637C15.5489 37.5477 16.2789 38.5564 16.8098 39.2201C17.3275 39.8704 18.4158 41.2774 19.1989 42.3392C20.2608 43.7594 20.858 44.4363 21.4819 44.9141C22.3181 45.5247 22.3711 45.5512 23.0879 45.4981C23.6453 45.4583 23.9506 45.3521 24.309 45.0734C24.8001 44.715 26.8574 42.233 27.813 40.8792C28.0917 40.481 28.5032 39.9235 28.7421 39.6448C28.9677 39.3661 29.3527 38.7821 29.5916 38.3441C29.8836 37.7733 30.2552 37.3619 30.7994 36.9371C31.2241 36.592 31.5825 36.2735 31.5825 36.2071C31.5825 36.1408 31.4365 35.862 31.2507 35.5966C30.8127 34.9595 30.8259 34.8002 31.3436 34.3755L31.7683 34.0171L31.7418 32.7296C31.7019 31.2829 31.6356 31.3227 32.7107 32.1589C34.9007 33.8446 36.2545 35.7957 36.6129 37.7601C36.6925 38.1848 36.7589 39.9633 36.7589 41.6888C36.7589 43.4276 36.812 44.9937 36.8916 45.1796C37.0642 45.6308 37.4624 45.6176 37.8207 45.153C38.0995 44.7947 38.1127 44.7283 38.0464 41.211C37.98 37.269 37.9136 36.8442 37.0907 35.1055C36.5731 34.0304 35.2856 32.4907 34.2503 31.7209C33.2947 31.0042 29.0076 28.4027 28.4899 28.2302C28.4103 28.2036 28.7554 27.7922 29.2332 27.2878C29.7243 26.7967 30.295 26.133 30.5207 25.8145C30.9719 25.1509 31.8479 23.3856 31.8479 23.1334C31.8479 23.0405 31.9807 22.9608 32.1532 22.9608C32.6443 22.9476 33.6132 22.4432 34.2238 21.8592C35.4051 20.7177 35.7502 19.2046 35.1131 17.8375C34.5689 16.6695 33.9583 16.1253 32.724 15.7404C32.485 15.6608 32.4718 15.5413 32.5647 13.5902C32.6443 11.6789 32.6974 11.4002 33.1885 9.84728C33.8521 7.76345 33.9583 6.94053 33.6398 6.44944C33.1354 5.67961 33.5071 5.70616 23.1277 5.71943C17.8849 5.71943 13.4253 5.78579 13.2262 5.83889ZM32.6443 7.19271C32.6443 7.31217 32.4054 8.082 32.1001 8.91819C31.8081 9.7411 31.5427 10.4844 31.5161 10.564C31.463 10.7631 28.1183 10.8693 23.3533 10.8029C21.2031 10.7764 18.2964 10.7498 16.8895 10.7498H14.3544L13.9429 9.03764C13.7173 8.09527 13.5314 7.24581 13.5314 7.1529C13.5314 6.99362 15.1507 6.96708 23.0879 6.96708C31.9276 6.96708 32.6443 6.98035 32.6443 7.19271ZM31.1843 12.5815V13.2319L28.3041 13.3115C26.7114 13.3646 23.0082 13.4044 20.0749 13.4044H14.726V12.7408V12.0771L22.7295 12.0373C27.1228 12.024 30.8259 11.9975 30.9587 11.9709C31.1445 11.9444 31.1843 12.0506 31.1843 12.5815ZM29.7243 14.8511C29.5119 15.2493 28.5961 15.9793 27.8396 16.351C26.6848 16.9217 25.8354 17.0146 22.3579 16.9615L19.1724 16.9217L18.3097 16.5102C17.4336 16.0988 16.5444 15.4219 16.3187 14.9971C16.1993 14.7848 16.5709 14.7582 22.7826 14.745C26.4194 14.7317 29.4057 14.6919 29.4456 14.652C29.4721 14.6255 29.5783 14.599 29.6845 14.599C29.8172 14.599 29.8305 14.6653 29.7243 14.8511ZM31.3436 16.5501C31.3834 17.3464 31.3834 18.0101 31.3569 18.0366C31.2905 18.1295 30.9454 17.6517 30.6003 16.9881L30.2818 16.3908L30.6667 15.9528C30.879 15.7139 31.0516 15.4351 31.0516 15.329C31.0516 15.2228 31.1047 15.1299 31.171 15.1299C31.2374 15.1299 31.317 15.767 31.3436 16.5501ZM15.0976 15.8333L15.5091 16.4041L15.018 17.2668L14.5269 18.1163L14.4871 17.519C14.4473 16.9748 14.5667 15.2626 14.6464 15.2626C14.6596 15.2626 14.872 15.5148 15.0976 15.8333ZM33.5469 17.7048C34.2371 18.4879 34.2769 19.7621 33.6398 20.7177C33.3743 21.1425 32.631 21.6336 32.2859 21.6336C32.2196 21.6336 32.2329 21.023 32.3258 20.2001C32.4187 19.417 32.4983 18.4215 32.5116 17.9703C32.5116 17.5323 32.5514 17.1208 32.5912 17.081C32.724 16.9482 33.0956 17.2004 33.5469 17.7048ZM13.3058 18.6074C13.3589 19.4303 13.4385 20.4523 13.4783 20.8637C13.5314 21.3283 13.5182 21.6336 13.4385 21.6336C13.1863 21.6336 12.1643 20.6381 11.9918 20.2134C11.5803 19.2444 11.8723 17.9835 12.6422 17.3597C13.1598 16.935 13.2262 17.0544 13.3058 18.6074ZM18.96 18.249C19.6635 18.4215 20.3935 18.4614 23.2737 18.4215L26.7379 18.3817L27.9988 17.7313C29.1934 17.1208 29.2597 17.0942 29.4323 17.3332C29.5252 17.4792 29.8437 17.9039 30.1225 18.3021C30.8392 19.2843 30.9719 19.7488 30.879 21.023C30.6667 23.8767 28.7952 26.6507 26.1937 27.978C24.8532 28.6682 22.1588 28.8407 20.5395 28.3496C18.8804 27.8585 16.5576 25.788 15.7745 24.089C15.2569 22.9874 14.8587 21.3548 14.8587 20.3328C14.8587 19.5099 14.8853 19.4435 15.3896 18.8994C15.6816 18.5808 16.0533 18.0632 16.1993 17.7446L16.478 17.1739L17.3009 17.5986C17.7389 17.8375 18.4955 18.1295 18.96 18.249ZM20.128 29.5574C21.8668 29.9822 23.7515 30.022 25.4106 29.6371C26.5123 29.3849 28.0254 29.3185 28.2112 29.5043C28.2776 29.5574 28.2245 29.8893 28.105 30.2344C27.9856 30.5794 27.8396 31.0838 27.7997 31.3625C27.667 32.0793 27.4679 32.1058 27.4679 31.3891C27.4679 30.6193 27.0432 30.1282 26.3795 30.1282C25.769 30.1414 24.8797 30.3538 24.2426 30.6591C23.9373 30.8184 23.579 30.8847 23.4064 30.8449C23.2339 30.8051 22.9153 30.8316 22.703 30.898C22.3844 31.0042 22.2119 30.9909 21.8004 30.7785C21.5217 30.6325 20.9775 30.4202 20.5793 30.314C19.6502 30.0353 18.96 30.2078 18.6149 30.8051L18.376 31.2033L18.2964 30.8316C18.2433 30.6325 18.2035 30.1813 18.1902 29.8229C18.1769 29.0663 18.1504 29.0663 20.128 29.5574ZM16.9293 30.6856C18.0707 35.132 18.2831 35.8222 18.814 36.5257C19.5308 37.4813 22.411 43.6001 22.2251 43.7726C22.1721 43.8257 22.0659 43.7726 21.9862 43.6532C21.8933 43.547 21.2297 42.7374 20.4997 41.8614C19.7564 40.9986 18.5087 39.4855 17.7124 38.5166C16.9027 37.5344 16.0931 36.5522 15.894 36.3133L15.5224 35.8753L15.9205 35.3577C16.4515 34.6542 16.4382 34.3224 15.8542 34.0569C15.3233 33.8047 15.3233 33.7782 15.5356 32.1191C15.6684 31.0705 15.7215 30.9644 16.1727 30.5662C16.4382 30.3273 16.6771 30.1282 16.7169 30.1282C16.7567 30.1282 16.8496 30.3804 16.9293 30.6856ZM29.7243 30.46C30.1623 30.6856 30.295 31.2431 30.3083 32.9155L30.3216 33.9109L29.8305 34.1764C29.5517 34.3224 29.2996 34.5215 29.2597 34.6277C29.2199 34.7206 29.4588 35.0922 29.7907 35.4506C30.1225 35.7957 30.3879 36.1275 30.3879 36.1673C30.3879 36.2071 29.711 36.9106 28.8748 37.7335C28.0519 38.5564 27.0565 39.6846 26.6848 40.2421C25.7955 41.5826 23.7117 44.0248 23.6453 43.8125C23.6188 43.7196 23.9108 43.0028 24.3222 42.233C24.7204 41.4499 25.4504 39.8837 25.9415 38.7555C26.4459 37.6273 27.0432 36.4328 27.2821 36.1009C27.5077 35.7691 27.7997 35.1984 27.9059 34.84C28.0254 34.4684 28.3572 33.4862 28.6492 32.6235C28.9545 31.774 29.1934 30.898 29.1934 30.6724C29.1934 30.1945 29.2067 30.1945 29.7243 30.46ZM20.8049 31.8138C21.0704 31.9333 21.3359 32.0926 21.389 32.1722C21.535 32.3846 21.3491 32.65 21.0439 32.65C20.6191 32.65 20.4068 32.8491 20.4599 33.1942C20.4864 33.4464 20.6059 33.526 20.9642 33.5791C21.6411 33.672 21.5482 33.9507 20.6324 34.4551C19.3715 35.1586 19.3715 35.1586 19.3715 33.3933C19.3715 32.5571 19.4113 31.774 19.4511 31.6545C19.5573 31.3891 20.0219 31.4422 20.8049 31.8138ZM26.4061 33.1942V34.8002L25.9946 34.7206C25.4903 34.6277 24.3753 33.964 24.4019 33.7782C24.4152 33.6986 24.5877 33.5791 24.8001 33.5127C25.3177 33.3402 25.3841 33.2473 25.2779 32.9287C25.2381 32.7695 25.0655 32.65 24.8399 32.6235C24.5877 32.5969 24.4815 32.504 24.4815 32.3182C24.4815 32.0262 25.3841 31.6147 26.0477 31.6015L26.4061 31.5882V33.1942ZM23.433 32.5704C23.7382 33.1942 23.5524 33.7649 23.0215 33.818C22.8224 33.8446 22.5968 33.7915 22.5437 33.6853C22.2384 33.2075 22.5835 32.1191 23.0348 32.1191C23.141 32.1191 23.3268 32.3182 23.433 32.5704ZM24.4683 35.6497L25.7026 36.2469L24.8532 38.1317C24.0701 39.8439 23.1277 41.5428 22.9551 41.5428C22.9153 41.5428 22.6366 41.0517 22.3313 40.4412C22.0393 39.8439 21.4553 38.6759 21.0439 37.8397C20.6191 37.0168 20.3139 36.2602 20.3537 36.1673C20.3802 36.0744 20.6457 35.9151 20.9244 35.8222C21.2031 35.7293 21.6942 35.5169 22.0128 35.3444C22.3313 35.1851 22.7428 35.0391 22.9021 35.0391C23.0746 35.0391 23.7781 35.3179 24.4683 35.6497Z" fill="#2EC4B6"/>
<path d="M19.0712 31.0189C19.4423 30.4025 20.9711 31.2757 21.6892 31.7894C21.8433 32.3514 21.364 32.6923 21.0387 32.8727C20.9344 33.0613 20.9476 33.222 21.4966 33.3664C22.0455 33.5109 22.026 34.173 21.9476 34.486C21.0629 34.8632 19.1924 35.5671 18.7879 35.3648C18.2822 35.112 18.6073 31.7894 19.0712 31.0189Z" fill="#10524B"/>
<path d="M26.9244 30.964C26.5207 30.3314 24.8579 31.2276 24.0769 31.7548C23.9093 32.3316 24.4306 32.6815 24.7844 32.8667C24.8978 33.0602 24.8835 33.2251 24.2864 33.3734C23.6894 33.5217 23.7106 34.2012 23.7959 34.5225C24.7581 34.9096 26.7925 35.632 27.2325 35.4244C27.7824 35.165 27.4289 31.7548 26.9244 30.964Z" fill="#10524B"/>
<path d="M22.657 8.74871C22.1394 9.04071 22.6472 10.1493 23.2975 10.1493C24.0275 10.1493 24.509 9.31944 24.0976 8.74871C24.0976 7.98839 22.657 7.94838 22.657 8.74871Z" fill="#2EC4B6"/>
<path d="M18.3096 19.6161C17.646 20.2797 17.8185 21.315 18.668 21.753C19.3184 22.0848 20.1015 21.3946 20.1015 20.4921C20.1015 19.8152 19.7962 19.4303 19.1458 19.2975C18.7875 19.2312 18.6547 19.2843 18.3096 19.6161Z" fill="#2EC4B6"/>
<path d="M26.3927 19.6294C26.114 19.9214 26.0078 20.1471 26.0078 20.5054C26.0078 20.8638 26.114 21.0895 26.3927 21.3815C27.1758 22.1645 28.158 21.6867 28.1846 20.4922C28.1978 19.9878 28.1447 19.8285 27.8262 19.5631C27.3218 19.1383 26.8705 19.1516 26.3927 19.6294Z" fill="#2EC4B6"/>
<path d="M24.946 23.9696C23.8443 25.1907 22.3711 25.2438 21.0305 24.1421C20.327 23.5581 20.2739 23.5449 19.9819 23.8369C19.6103 24.1952 19.7298 24.62 20.3536 25.1907C21.9331 26.6374 24.0567 26.6242 25.5831 25.1376C26.1804 24.5669 26.2865 24.3943 26.2069 24.1289C26.1007 23.7971 25.7822 23.4918 25.5433 23.4918C25.4504 23.4918 25.1849 23.7041 24.946 23.9696Z" fill="#2EC4B6"/>
<path d="M22.6367 36.5257C22.5172 36.685 22.4243 36.9106 22.4243 37.0301C22.4243 37.6273 23.2074 38.0521 23.5923 37.6672C23.9772 37.2823 23.6056 36.2337 23.088 36.2337C22.9552 36.2337 22.7429 36.3664 22.6367 36.5257Z" fill="#2EC4B6"/>
<path d="M30.2022 37.9194C29.6049 38.729 28.1316 41.6623 28.1316 42.0074C28.1316 42.1534 28.2245 42.4189 28.344 42.5782C28.543 42.8569 28.6227 42.8702 30.8393 42.8702H33.1355L33.2284 43.9453C33.2815 44.5425 33.3744 45.1398 33.454 45.2725C33.6133 45.5911 34.1973 45.6044 34.2902 45.2858C34.3698 45.0204 34.4096 43.1622 34.3831 40.8394V40.5343C34.1575 40.5343 34.0526 40.5607 33.9066 40.8394C33.7871 41.065 33.2416 39.9236 33.1753 39.8838C33.1089 39.8439 32.8036 39.3927 32.4984 38.875C31.9011 37.8796 31.3171 37.2956 30.9056 37.2956C30.7596 37.2956 30.4676 37.5477 30.2022 37.9194ZM31.2773 39.0476C31.4233 39.2201 31.7153 39.6449 31.9276 40.0165C32.1267 40.3749 32.4054 40.8261 32.5382 40.9987C33.016 41.6358 32.9231 41.6756 31.0383 41.6756H29.2996L29.6712 41.0385C29.8703 40.6934 30.2154 40.043 30.4278 39.5785C30.6534 39.1272 30.8791 38.7556 30.9189 38.7556C30.972 38.7556 31.1313 38.8883 31.2773 39.0476Z" fill="#2EC4B6"/>
<path d="M12.589 39.114C12.2837 39.1936 12.2041 39.9502 12.2041 42.618C12.2041 45.1929 12.297 45.5646 12.9208 45.4982C13.2659 45.4584 13.3323 45.392 13.4385 44.9275C13.5048 44.6355 13.5314 43.2684 13.4916 41.8747C13.4252 39.6847 13.3854 39.3396 13.1863 39.1936C13.0536 39.1007 12.9208 39.0343 12.881 39.0343C12.8412 39.0476 12.7085 39.0742 12.589 39.114Z" fill="#2EC4B6"/>
<path d="M23.5855 33.2144C23.5855 33.7548 23.1926 33.8272 22.8037 33.8272C22.4148 33.8272 22.3493 33.4785 22.4127 33.2144C22.4127 32.6739 22.6171 32.1172 23.006 32.1172C23.3949 32.1172 23.5855 32.6739 23.5855 33.2144Z" fill="#10524B"/>
</g>
<path fill-rule="evenodd" clip-rule="evenodd" d="M44.5796 0.79248H-0.42041V46.4477H44.5796V0.79248ZM22.1982 43.9679C33.2439 43.9679 42.1982 34.7273 42.1982 23.3284C42.1982 11.9295 33.2439 2.6889 22.1982 2.6889C11.1525 2.6889 2.19824 11.9295 2.19824 23.3284C2.19824 34.7273 11.1525 43.9679 22.1982 43.9679Z" fill="#2EC4B6"/>
</g>
<defs>
<clipPath id="clip0_682_4096">
<rect x="0.328125" y="0.79248" width="44" height="44" rx="22" fill="white"/>
</clipPath>
<clipPath id="clip1_682_4096">
<rect width="30" height="39.8094" fill="white" transform="translate(8.07959 5.71533)"/>
</clipPath>
</defs>
</svg>
