<svg width="182" height="186" viewBox="0 0 182 186" fill="none" xmlns="http://www.w3.org/2000/svg">
<g clip-path="url(#clip0_676_9755)">
<ellipse cx="94.0935" cy="89.8536" rx="90.5625" ry="92.6376" fill="#E1F5F3"/>
<path d="M57.9794 180.507H50.1102C47.9642 171.154 57.9794 140.218 94.2251 139.978C123.222 139.786 135.24 167.397 136.194 180.507C131.266 180.986 122.315 181.658 125.94 180.507C130.471 179.068 119.263 149.571 94.2249 149.331C74.1944 149.139 60.5229 169.715 57.9794 180.507Z" fill="#2EC4B6"/>
<path d="M86.22 17.5783C85.9631 17.6425 84.454 17.8673 82.8486 18.0599C72.7345 19.4406 63.5195 24.5779 57.9327 31.9628C52.9238 38.5449 50.2267 47.8884 51.0936 55.498C51.511 58.9015 52.3137 60.3464 54.9466 62.4013L56.6804 63.7177V67.1854V70.6531L55.2035 71.1668C52.089 72.2264 49.0387 74.795 47.2728 77.8132C45.0573 81.602 44.8004 87.1246 46.6627 91.0739C48.3644 94.7342 51.7358 97.7203 55.5246 99.0046L57.0979 99.5504L57.8042 102.376C59.9234 110.692 64.9965 117.852 72.1887 122.636L74.4363 124.145L72.2208 124.595C68.9137 125.237 64.8038 126.682 61.4325 128.384C46.4058 135.929 36.7092 150.635 35.9065 167.074C35.6817 171.922 36.0349 173.656 37.7366 176.353C39.2778 178.697 41.4291 180.335 44.1262 181.169C46.1169 181.812 47.0159 181.812 91.0362 181.812C134.896 181.812 135.955 181.812 137.946 181.169C141.703 180.013 144.753 176.931 145.813 173.174C146.262 171.73 146.326 170.542 146.166 167.202C145.395 150.699 135.41 135.64 120.415 128.319C116.498 126.425 113.191 125.237 109.852 124.595L107.636 124.145L109.884 122.636C117.076 117.852 122.149 110.692 124.268 102.376L124.974 99.5504L126.548 99.0046C130.015 97.8487 133.483 94.9269 135.024 91.8766C137.368 87.3172 137.111 81.4093 134.414 77.1711C132.648 74.4097 129.534 71.9695 126.612 71.0384L125.392 70.6531V67.0891V63.493L126.869 62.5297C128.506 61.4381 129.662 60.0574 130.465 58.2593C131.171 56.6218 131.171 49.0122 130.433 45.7693C129.213 40.4714 127.062 35.7836 123.883 31.6417C118.457 24.4816 110.654 20.1149 99.8659 18.1884C97.2652 17.7389 87.408 17.2893 86.22 17.5783ZM100.283 23.1651C107.604 24.6742 113.062 27.3713 117.365 31.5775C122.727 36.8111 125.938 43.8749 126.13 50.9066L126.195 53.5394L103.623 53.7C81.7248 53.8605 81.0184 53.8926 80.5689 54.4706C79.9268 55.3696 80.0231 56.6861 80.7295 57.5851L81.3395 58.3557L102.82 58.5162L124.268 58.6768L121.089 60.2501C118.746 61.4059 116.691 62.1123 113.223 62.915C110.654 63.5572 108.214 64.1672 107.797 64.3278C106.255 64.9057 106.159 67.4102 107.636 68.3734C108.375 68.855 108.664 68.855 111.296 68.3413C113.865 67.8597 118.521 66.6396 120.03 66.0295C120.608 65.8369 120.608 66.479 120.479 82.3084C120.351 98.2661 120.351 98.9083 119.645 101.381C116.016 114.256 105.485 122.7 92.3205 123.278C85.8668 123.567 80.5047 122.155 75.3995 118.815C69.01 114.641 64.5469 108.541 62.4278 101.06C61.7214 98.5872 61.6893 97.9771 61.5609 82.1799C61.4967 73.2217 61.5288 65.9011 61.593 65.9011C61.6893 65.9011 62.3636 66.1258 63.1342 66.3827C65.7992 67.346 70.6475 68.4376 75.3032 69.144C79.3488 69.7862 81.2753 69.8825 90.105 69.8825C99.6733 69.9146 100.315 69.8825 100.958 69.3046C101.407 68.8871 101.632 68.3092 101.632 67.5065C101.632 65.3231 101.696 65.3552 90.394 65.1626C82.4633 65.0342 79.3167 64.8415 75.849 64.3278C68.5605 63.2361 62.6847 61.5665 59.3454 59.5758L57.8042 58.6768L65.6707 58.5162C70.0053 58.4199 73.7941 58.2272 74.1152 58.0667C75.4637 57.4245 75.6885 55.4659 74.5647 54.4064C73.8583 53.7321 73.5372 53.7 64.868 53.6358L55.8777 53.5394L55.942 50.9066C56.1346 44.0354 59.3454 36.779 64.3864 31.8343C69.8448 26.4723 75.5922 23.9999 86.3805 22.4267C88.7886 22.0735 97.1046 22.523 100.283 23.1651ZM56.6804 85.1981V94.5095L55.364 93.771C54.6255 93.3536 53.4054 92.3582 52.6669 91.4913C48.7176 87.1246 49.713 79.9645 54.6897 76.7858C55.4924 76.272 56.2952 75.8546 56.4236 75.8546C56.552 75.8546 56.6804 80.0608 56.6804 85.1981ZM126.933 76.4647C130.786 78.4554 132.809 83.9138 131.364 88.3126C130.722 90.2391 128.603 92.7114 126.708 93.771L125.392 94.5095V85.1981C125.392 80.0608 125.456 75.8546 125.552 75.8546C125.649 75.8546 126.259 76.1436 126.933 76.4647ZM83.6513 132.558C85.0962 134.934 86.22 136.924 86.1878 136.989C86.1236 137.021 84.8393 137.31 83.3623 137.631C81.8853 137.952 79.6699 138.53 78.4819 138.947L76.2664 139.686V134.259C76.2664 128.095 75.9775 128.64 79.3167 128.416C80.2157 128.351 80.9542 128.287 80.9863 128.255C81.0184 128.223 82.2385 130.15 83.6513 132.558ZM95.146 128.448C94.7928 129.315 91.1967 135.255 91.0362 135.255C90.8756 135.255 87.2795 129.315 86.9263 128.448C86.8621 128.319 88.7244 128.191 91.0362 128.191C93.348 128.191 95.2102 128.319 95.146 128.448ZM105.742 133.617L105.838 138.53L104.939 138.305C102.563 137.695 98.1642 136.86 97.233 136.86C96.6551 136.86 96.1735 136.732 96.1735 136.571C96.1735 136.378 97.233 134.484 98.5495 132.301L100.925 128.351L103.301 128.512L105.645 128.673L105.742 133.617ZM71.4502 134.773C71.4502 137.502 71.4181 139.75 71.3539 139.75C71.3218 139.75 69.62 138.08 67.5972 136.057L63.9369 132.397L64.9001 132.012C67.1156 131.113 70.6796 129.828 71.0649 129.828C71.3539 129.796 71.4502 130.984 71.4502 134.773ZM113.576 130.631C129.084 135.768 140.515 150.859 141.35 167.267C141.542 171.055 141.51 171.248 140.675 172.918C139.68 174.972 137.432 176.803 136.919 176C136.758 175.743 136.63 175.197 136.63 174.748C136.63 173.303 135.089 167.588 133.933 164.634C131.621 158.822 128.217 153.877 123.241 149.061C120.03 145.915 116.241 143.185 112.645 141.387L110.622 140.392V135.094C110.622 132.172 110.718 129.796 110.847 129.796C111.007 129.796 112.195 130.182 113.576 130.631ZM67.533 144.245C67.1477 144.502 66.056 145.337 65.1249 146.075C64.1938 146.846 63.3268 147.456 63.1984 147.456C63.0379 147.456 61.015 145.529 58.6712 143.185L54.3687 138.883L55.942 137.631C56.7768 136.924 57.9327 136.025 58.4464 135.64L59.4096 134.966L63.8406 139.365C68.2073 143.731 68.2394 143.763 67.533 144.245ZM98.3568 141.869C115.663 144.438 129.405 158.276 131.942 175.647L132.135 176.995H129.759C127.094 176.995 127.222 177.092 126.837 174.427C126.227 170.606 124.011 165.244 121.443 161.455C118.264 156.735 112.292 151.79 106.93 149.382C99.5448 146.075 91.0041 145.369 83.2981 147.456C80.0873 148.355 74.3399 151.18 71.6107 153.267C66.8266 156.896 62.6205 162.193 60.5334 167.299C59.506 169.707 57.9648 175.229 57.9648 176.385C57.9648 176.931 57.7079 176.995 55.5246 176.995H53.0843L53.3091 175.229C53.9191 170.349 56.5841 163.414 59.5702 159.015C64.9965 151.052 73.1198 145.272 82.4633 142.8C87.9859 141.323 92.8342 141.034 98.3568 141.869ZM55.3319 146.91L59.5702 151.148L58.2216 152.754C53.3091 158.629 49.6809 166.785 48.5892 174.266C48.1397 177.348 48.0434 177.413 45.5068 176.546C43.484 175.807 42.296 174.78 41.3649 172.885C40.5622 171.248 40.53 171.023 40.7227 167.267C40.9796 161.84 42.2639 156.928 44.7362 151.823C46.4379 148.323 50.1946 142.64 50.8368 142.64C50.9652 142.64 52.988 144.566 55.3319 146.91ZM99.7054 151.983C103.334 152.818 108.824 155.547 111.81 158.051C117.012 162.354 120.704 168.39 121.956 174.619L122.406 176.835L115.47 176.931L108.567 176.995L101.086 169.546L93.6048 162.065V156.51V150.956L95.3066 151.18C96.2056 151.277 98.1963 151.662 99.7054 151.983ZM88.4675 154.102V156.896L86.22 154.68C84.9998 153.46 84.0366 152.4 84.1008 152.336C84.2935 152.144 87.2474 151.373 87.9217 151.341C88.4033 151.309 88.4675 151.63 88.4675 154.102ZM90.2335 165.757L101.471 176.995H96.9762H92.481L82.9449 167.459L73.4409 157.955L74.1794 157.377C75.5279 156.286 78.3213 154.52 78.6745 154.52C78.8351 154.52 84.0687 159.561 90.2335 165.757ZM77.7113 169.289L85.4172 176.995H74.0831C67.8862 176.995 62.781 176.899 62.781 176.738C62.781 175.454 64.3864 170.477 65.5102 168.166C66.7945 165.533 69.3953 161.583 69.8448 161.583C69.9411 161.583 73.473 165.051 77.7113 169.289Z" fill="#8E8E8E"/>
<path d="M68.753 74.6027C67.6613 75.4696 67.5971 77.075 68.6567 78.0382C69.3951 78.7125 69.652 78.7446 76.7158 78.7446H84.0043L84.7749 77.9419C85.2245 77.5245 85.5776 76.786 85.5776 76.3365C85.5776 75.887 85.2245 75.1485 84.7749 74.7311L84.0043 73.9284H76.8121C70.0052 73.9284 69.5557 73.9605 68.753 74.6027Z" fill="#8E8E8E"/>
<path d="M97.2971 74.7311C96.8476 75.1485 96.4944 75.887 96.4944 76.3365C96.4944 76.786 96.8476 77.5245 97.2971 77.9419L98.0677 78.7446H105.42C112.677 78.7446 112.773 78.7446 113.447 78.0061C114.443 76.9466 114.379 75.4375 113.319 74.6027C112.516 73.9605 112.067 73.9284 105.26 73.9284H98.0677L97.2971 74.7311Z" fill="#8E8E8E"/>
<path d="M74.1151 86.2576C72.9592 86.8034 71.7712 88.4731 71.7712 89.5969C71.7712 90.7849 72.6703 92.3582 73.6656 92.9682C75.4958 94.0599 78.0644 93.3856 78.9956 91.5876C79.7983 90.0143 79.6056 88.5052 78.4497 87.253C77.1975 85.9044 75.6563 85.5512 74.1151 86.2576Z" fill="#8E8E8E"/>
<path d="M104.971 86.1293C103.815 86.5788 102.595 88.3126 102.595 89.5327C102.595 92.6151 105.645 94.4453 108.342 93.0325C109.337 92.5509 110.301 90.8171 110.301 89.597C110.301 87.221 107.218 85.1981 104.971 86.1293Z" fill="#8E8E8E"/>
<path d="M83.426 101.541C83.0086 101.733 82.5912 102.311 82.3343 103.082C81.4995 105.875 84.036 110.21 87.4074 111.815C89.4623 112.779 92.6089 112.779 94.6638 111.815C99.9296 109.343 101.92 101.22 97.2646 101.22C96.3977 101.22 95.306 102.665 95.0812 104.077C94.9207 105.041 94.5354 105.811 93.7969 106.55C92.8337 107.513 92.5126 107.641 91.0356 107.641C89.5586 107.641 89.2375 107.513 88.2743 106.55C87.5358 105.811 87.1505 105.041 86.99 104.077C86.6047 101.798 85.224 100.802 83.426 101.541Z" fill="#8E8E8E"/>
<g clip-path="url(#clip1_676_9755)">
<path d="M105.472 200.209L198.731 154.572L262.226 163.501L326.217 196.737L375.503 294.46H68.7634L105.472 200.209Z" fill="#FCFCFC"/>
<path d="M185.886 151.992C129.078 163.827 83.3161 205.487 62.4865 264.504C58.2259 276.339 58.0681 277.917 58.0681 307.583C58.0681 331.727 58.6993 341.037 61.0663 350.978C66.2737 373.702 80.0023 398.161 98.1493 416.939C121.819 441.713 144.069 455.442 174.84 464.594C195.196 470.749 225.494 471.853 246.639 467.277C294.137 457.178 344.16 416.623 361.676 374.175C367.199 360.762 372.406 339.932 374.773 322.259C376.667 307.741 374.773 283.755 370.355 267.186C364.2 243.201 349.052 216.533 330.747 197.123C316.387 181.817 304.552 173.138 285.3 163.512C254.687 148.205 222.18 144.418 185.886 151.992ZM187.464 178.503C186.36 191.6 184.466 206.749 179.574 238.94C177.207 255.194 176.576 256.614 171.684 261.032C168.844 263.557 165.688 267.186 164.899 268.922C163.321 271.92 160.48 272.394 127.974 274.919C108.564 276.497 88.6813 277.601 83.6317 277.601H74.3215L75.4261 272.394C78.8977 256.14 97.3603 223.318 111.562 208.327C119.768 199.648 140.598 183.868 151.17 178.503C159.376 174.242 182.73 165.721 186.517 165.563C188.095 165.563 188.411 168.088 187.464 178.503ZM260.21 168.877C280.093 173.927 296.82 184.341 315.44 202.646C324.277 211.325 334.376 222.845 337.69 228.21C345.422 240.203 355.048 262.137 356.468 271.131L357.573 277.917L348.263 277.128C343.213 276.497 323.646 275.234 305.025 274.287L271.098 272.394L263.839 264.819L256.423 257.245L251.531 217.322C248.691 195.387 246.166 174.716 245.692 171.402C245.219 168.246 245.377 165.563 246.166 165.563C246.955 165.563 253.267 166.983 260.21 168.877ZM235.751 264.819C261.157 274.445 273.623 302.691 263.682 327.624C255.476 347.822 242.852 357.133 221.233 359.184C203.718 360.92 182.73 351.294 174.367 337.881C167.581 326.835 165.53 320.838 165.53 310.108C165.372 294.486 168.686 285.965 178.785 275.865C194.25 260.243 213.975 256.456 235.751 264.819ZM134.286 346.244L163.321 348.611L170.58 356.028L177.838 363.445L179.101 380.96C180.363 397.372 183.677 428.616 186.044 445.185C186.991 452.128 186.833 452.759 183.835 452.759C175.471 452.759 155.115 444.396 141.387 435.401C107.46 412.994 81.2647 377.962 75.4261 346.718L74.4793 341.352L89.9437 342.615C98.4649 343.246 118.348 344.982 134.286 346.244ZM357.099 342.93C357.099 348.769 348.578 371.019 342.266 382.223C328.222 406.84 311.337 423.409 283.407 439.82C274.57 445.027 254.529 452.759 249.637 452.759C245.692 452.759 245.692 448.814 249.795 415.361C256.107 362.024 255.634 364.391 263.839 355.555L271.256 347.665L308.181 344.824C341.319 342.299 347.947 341.826 355.206 340.879C356.153 340.879 357.099 341.826 357.099 342.93Z" fill="#8E8E8E"/>
</g>
<path d="M104.246 107.045C98.7616 107.045 93.6255 105.645 90.9814 103.359C87.9414 105.645 79.1718 107.045 76.4237 107.045C73.6757 107.045 61.0047 106.403 62.2736 96.4491C68.0513 102.607 79.7802 94.6959 84.5097 94.696C88.6928 94.6962 88.805 96.4491 90.9814 96.4491C92.9906 96.4491 93.6255 94.6961 97.4936 94.6961C102.6 94.696 110.867 100.911 119.815 96.4491C118.253 105.645 107.174 107.045 104.246 107.045Z" fill="#2EC4B6"/>
<path fill-rule="evenodd" clip-rule="evenodd" d="M182.598 0H-2.6438V187.939H182.598V0ZM90.4653 177.731C135.935 177.731 172.795 139.692 172.795 92.7689C172.795 45.8456 135.935 7.80684 90.4653 7.80684C44.996 7.80684 8.1358 45.8456 8.1358 92.7689C8.1358 139.692 44.996 177.731 90.4653 177.731Z" fill="#2EC4B6"/>
</g>
<defs>
<clipPath id="clip0_676_9755">
<rect x="0.4375" width="181.125" height="185.275" rx="90.5625" fill="white"/>
</clipPath>
<clipPath id="clip1_676_9755">
<rect width="65.8636" height="32.9318" fill="white" transform="translate(58.0681 148.21)"/>
</clipPath>
</defs>
</svg>
