<svg width="44" height="45" viewBox="0 0 44 45" fill="none" xmlns="http://www.w3.org/2000/svg">
<rect y="0.0126953" width="44" height="44" rx="22" fill="#2EC4B6"/>
<g clip-path="url(#clip0_451_6236)">
<path d="M10.666 18.5538C10.6804 18.5682 10.6945 18.583 10.7081 18.5984L14.5883 22.9729L10.666 18.5538ZM10.666 18.5538C10.4993 18.3469 10.4135 18.1335 10.4087 17.9811L10.4003 12.6446M10.666 18.5538L10.4003 12.6446M10.4003 12.6446L11.5939 13.0495L12.7846 16.7111C12.8821 17.0109 13.1153 17.2471 13.4137 17.3486L17.885 18.8689C18.2289 18.9858 18.6091 18.9071 18.8783 18.6632C19.1475 18.4193 19.2633 18.0486 19.1807 17.6949L17.189 9.16052L19.4043 9.91458C19.4163 9.96088 19.4316 10.0063 19.45 10.0504L23.8425 20.545C23.953 20.809 24.1714 21.013 24.4422 21.1053L28.7079 22.56L28.708 22.5601C29.6974 22.8974 30.6263 23.5015 31.3392 24.4155C32.1828 25.4993 32.2571 26.1988 32.1737 26.6011C32.0951 26.9626 31.8185 27.4445 30.754 27.8167C29.8547 28.127 28.8592 28.077 27.8604 27.7378C27.8604 27.7378 27.8604 27.7378 27.8603 27.7378L15.2788 23.4506L15.2775 23.4501C15.0433 23.3707 14.8041 23.2157 14.5887 22.9734L10.4003 12.6446ZM10.4062 12.3986C10.4062 12.3987 10.406 12.3992 10.4056 12.4001L10.4062 12.3986ZM9 35.0128V33.5128H35V35.0128H9ZM34.9979 33.3696C34.9979 33.3695 34.998 33.3699 34.9983 33.3707L34.9979 33.3696Z" stroke="#E1F5F3" stroke-width="2" stroke-linejoin="round"/>
</g>
<defs>
<clipPath id="clip0_451_6236">
<rect width="28" height="28" fill="white" transform="translate(8 8.0127)"/>
</clipPath>
</defs>
</svg>
