<svg width="25" height="25" viewBox="0 0 25 25" fill="none" xmlns="http://www.w3.org/2000/svg">
<path d="M8.32788 2.4165V5.4165" stroke="#E1F5F3" stroke-width="1.2" stroke-miterlimit="10" stroke-linecap="round" stroke-linejoin="round"/>
<path d="M3.82837 9.50635H20.8284" stroke="#E1F5F3" stroke-width="1.2" stroke-miterlimit="10" stroke-linecap="round" stroke-linejoin="round"/>
<path d="M18.3281 23.416C20.5373 23.416 22.3281 21.6252 22.3281 19.416C22.3281 17.2069 20.5373 15.416 18.3281 15.416C16.119 15.416 14.3281 17.2069 14.3281 19.416C14.3281 21.6252 16.119 23.416 18.3281 23.416Z" stroke="#E1F5F3" stroke-width="1.2" stroke-miterlimit="10" stroke-linecap="round" stroke-linejoin="round"/>
<path d="M19.3983 20.526L17.2783 18.416" stroke="#E1F5F3" stroke-width="1.2" stroke-miterlimit="10" stroke-linecap="round" stroke-linejoin="round"/>
<path d="M19.3783 18.4351L17.2583 20.5551" stroke="#E1F5F3" stroke-width="1.2" stroke-miterlimit="10" stroke-linecap="round" stroke-linejoin="round"/>
<path d="M21.3279 8.91553V16.7755C20.5979 15.9455 19.5279 15.4155 18.3279 15.4155C16.1179 15.4155 14.3279 17.2055 14.3279 19.4155C14.3279 20.1655 14.5379 20.8755 14.9079 21.4755C15.1179 21.8355 15.3879 22.1555 15.6979 22.4155H8.32788C4.82788 22.4155 3.32788 20.4155 3.32788 17.4155V8.91553C3.32788 5.91553 4.82788 3.91553 8.32788 3.91553H16.3279C19.8279 3.91553 21.3279 5.91553 21.3279 8.91553Z" stroke="#E1F5F3" stroke-width="1.2" stroke-miterlimit="10" stroke-linecap="round" stroke-linejoin="round"/>
<path d="M12.3234 14.1162H12.3323" stroke="#E1F5F3" stroke-width="1.2" stroke-linecap="round" stroke-linejoin="round"/>
<path d="M8.62219 14.1162H8.63117" stroke="#E1F5F3" stroke-width="1.2" stroke-linecap="round" stroke-linejoin="round"/>
<path d="M8.62219 17.1157H8.63117" stroke="#E1F5F3" stroke-width="1.2" stroke-linecap="round" stroke-linejoin="round"/>
</svg>
