<svg width="25" height="24" viewBox="0 0 25 24" fill="none" xmlns="http://www.w3.org/2000/svg">
<path opacity="0.4" d="M12.5999 22C18.1227 22 22.5999 17.5228 22.5999 12C22.5999 6.47715 18.1227 2 12.5999 2C7.07701 2 2.59985 6.47715 2.59985 12C2.59985 17.5228 7.07701 22 12.5999 22Z" fill="#2EC4B6"/>
<path d="M16.314 15.1746C16.3137 15.1749 16.3135 15.1751 16.3133 15.1753L13.2144 13.3259C12.7592 13.054 12.3822 12.4722 12.2722 11.9219C12.3216 12.1671 12.421 12.3975 12.5266 12.5831C12.6748 12.8437 12.9077 13.1435 13.2185 13.3257L16.315 15.1736C16.3147 15.174 16.3143 15.1743 16.314 15.1746Z" fill="#2EC4B6" stroke="#2EC4B6" stroke-width="1.5"/>
</svg>
