<svg width="44" height="44" viewBox="0 0 44 44" fill="none" xmlns="http://www.w3.org/2000/svg">
<circle cx="22" cy="22" r="22" fill="#E1F5F3"/>
<path opacity="0.4" d="M25.48 13H17.52C14.07 13 12 15.06 12 18.52V26.47C12 29.94 14.07 32 17.52 32H25.47C28.93 32 30.99 29.94 30.99 26.48V18.52C31 15.06 28.93 13 25.48 13Z" fill="#2EC4B6"/>
<path d="M31.02 12.98C29.23 11.18 27.48 11.14 25.64 12.98L24.51 14.1C24.41 14.2 24.38 14.34 24.42 14.47C25.12 16.92 27.08 18.88 29.53 19.58C29.56 19.59 29.61 19.59 29.64 19.59C29.74 19.59 29.84 19.55 29.91 19.48L31.02 18.36C31.93 17.45 32.38 16.58 32.38 15.69C32.38 14.79 31.93 13.9 31.02 12.98Z" fill="#2EC4B6"/>
<path d="M27.8601 20.42C27.5901 20.29 27.3301 20.16 27.0901 20.01C26.8901 19.89 26.6901 19.76 26.5001 19.62C26.3401 19.52 26.1601 19.37 25.9801 19.22C25.9601 19.21 25.9001 19.16 25.8201 19.08C25.5101 18.83 25.1801 18.49 24.8701 18.12C24.8501 18.1 24.7901 18.04 24.7401 17.95C24.6401 17.84 24.4901 17.65 24.3601 17.44C24.2501 17.3 24.1201 17.1 24.0001 16.89C23.8501 16.64 23.7201 16.39 23.6001 16.13C23.4701 15.85 23.3701 15.59 23.2801 15.34L17.9001 20.72C17.5501 21.07 17.2101 21.73 17.1401 22.22L16.7101 25.2C16.6201 25.83 16.7901 26.42 17.1801 26.81C17.5101 27.14 17.9601 27.31 18.4601 27.31C18.5701 27.31 18.6801 27.3 18.7901 27.29L21.7601 26.87C22.2501 26.8 22.9101 26.47 23.2601 26.11L28.6401 20.73C28.3901 20.65 28.1401 20.54 27.8601 20.42Z" fill="#2EC4B6"/>
</svg>
