<svg width="86" height="87" viewBox="0 0 86 87" fill="none" xmlns="http://www.w3.org/2000/svg">
<rect x="-0.000732422" y="0.939453" width="85.9395" height="85.9395" rx="14" fill="#E1F5F3"/>
<circle cx="42.969" cy="43.9091" r="32.7099" fill="#9FE4DD"/>
<path d="M39.1198 27.3336H37.1911L34.0727 27.2227C29.0331 27.0563 24.9958 27.5001 22.9076 28.4986C19.4272 30.1627 16.086 34.3509 15.0558 38.4004C14.6381 40.0645 13.9421 50.9926 13.9699 55.7355C13.9699 59.0361 14.1926 59.3412 16.5315 59.3412H18.397L19.2601 60.6725C19.8448 61.5601 20.6244 62.2535 21.6268 62.8082C24.7731 64.5278 28.5319 63.6126 30.8707 60.5061L31.9288 59.1193L42.4535 59.0638L52.9782 59.0361L53.8414 60.3674C54.7323 61.7265 55.2057 62.1148 56.9598 62.9746C58.4912 63.6958 59.772 63.8344 61.2755 63.3629C63.2245 62.8082 64.7837 61.7265 65.7583 60.2842C66.5657 59.0916 66.5936 59.0638 68.1528 59.0638C71.661 59.0638 72.1065 58.2595 71.9394 52.5458C71.8281 49.1897 71.7445 48.4686 71.1877 47.3314C69.6563 44.225 66.5379 41.9229 62.8626 41.2295C61.192 40.9244 61.1363 40.8966 60.5794 39.593C59.8833 37.9843 57.2661 34.4896 55.2057 32.4371C53.5908 30.8284 50.9735 29.1365 48.8853 28.3599C47.4096 27.8052 45.8165 27.3336 44.4395 27.3336C41.6703 27.3336 41.3792 27.3336 39.1198 27.3336ZM37.1911 30.6343V31.605H32.959C26.0538 31.605 24.1327 32.132 21.9052 34.5173C20.4295 36.0983 19.4829 38.1785 19.2323 40.2864L19.0374 41.8951L17.9236 41.8119L16.8099 41.7565L16.9491 40.4251C17.144 38.7887 19.0095 35.1275 20.5409 33.4356C21.237 32.6313 22.3785 31.7992 23.6593 31.1612C25.9146 30.0518 27.9193 29.7744 34.0727 29.6912L37.1911 29.6635V30.6343ZM47.0755 30.2459C49.3308 30.6342 51.1963 31.6882 53.1731 33.6852C55.7347 36.2647 58.6304 40.3142 58.6304 41.3127C58.6304 41.5068 58.1849 41.59 57.461 41.5346C56.3473 41.4514 56.2359 41.3681 55.8461 40.3142C54.788 37.4296 51.8367 34.0181 49.1637 32.5758C47.688 31.7714 47.4653 31.7437 43.5394 31.6605C39.5021 31.5495 39.4186 31.5495 39.4186 30.9393C39.4186 30.6065 39.5578 30.1905 39.7249 30.0241C40.059 29.6912 44.5974 29.8299 47.0755 30.2459ZM36.3001 37.18L36.3837 40.6747L31.1492 40.8412C28.2813 40.9521 24.8844 41.0353 23.6315 41.0353C20.9307 41.0353 20.9029 40.9798 22.0444 38.5391C22.9911 36.5143 23.8542 35.4049 25.135 34.6283C26.5272 33.7684 27.7244 33.602 32.3186 33.6575L36.2166 33.6852L36.3001 37.18ZM47.2425 34.1013C49.5257 35.2662 53.3402 39.1215 53.3402 40.231C53.3402 40.7302 53.0061 40.7579 46.4908 40.7579H39.6413L39.8084 39.8981C39.8919 39.4266 39.9754 37.9011 39.9754 36.5421C39.9754 34.2677 40.0311 34.0735 40.6158 33.8239C41.4233 33.4633 46.4072 33.6852 47.2425 34.1013ZM37.1911 50.0218V56.8449H35.4092C32.9868 56.8449 32.7362 56.7062 32.7362 55.4859C32.7084 53.3502 30.3695 50.0496 28.1421 49.0511C26.7499 48.4131 23.9934 48.3577 22.5734 48.9679C21.1534 49.5503 18.3413 52.2407 18.0072 53.3502C17.8679 53.8217 17.673 54.7925 17.5617 55.5136C17.4503 56.4566 17.2554 56.8449 16.9491 56.8449C16.5593 56.8449 16.5315 56.5121 16.6985 54.2655C16.7821 52.8787 16.9491 49.8277 17.0326 47.5533L17.2276 43.3651L27.1954 43.3097L37.1911 43.2265V50.0218ZM61.6653 43.5316C62.8069 43.6702 64.4218 44.114 65.2571 44.5023L66.8163 45.2235L65.8696 45.9723C65.1457 46.5825 64.9508 46.9431 64.9786 47.692C65.0065 48.9401 66.8163 51.4918 68.3198 52.3794L69.4892 53.1005L69.4336 54.7647L69.35 56.4289L68.3198 56.5121C67.2896 56.5953 67.2618 56.5676 67.2618 55.68C67.2061 52.5458 64.5053 49.5781 60.8022 48.6073C59.1594 48.1912 58.9367 48.1912 57.4331 48.635C56.1245 49.0233 55.4563 49.4394 54.1755 50.6875C52.6163 52.213 52.1429 53.156 51.5582 55.791C51.3912 56.5121 51.3633 56.5121 48.2727 56.7062C46.5464 56.7895 43.8735 56.8449 42.3421 56.7895L39.5578 56.7062L39.4743 50.216C39.4186 45.1957 39.5021 43.6702 39.7527 43.4761C40.2539 43.171 59.1594 43.2265 61.6653 43.5316ZM69.2108 48.5241C69.3779 48.9401 69.4892 49.6058 69.4336 49.9664L69.35 50.6043L68.5983 49.8554C67.5681 48.8569 67.5402 47.2205 68.5147 47.581C68.7096 47.6643 69.0159 48.0803 69.2108 48.5241ZM62.4171 51.9079C63.9206 52.9341 64.7559 54.4874 64.7559 56.3179C64.7559 57.677 64.6167 58.0931 63.8371 59.1193C62.1943 61.2827 59.8277 61.8652 57.5167 60.6448C56.5978 60.1733 56.0688 59.5908 55.3727 58.3704C53.9527 55.791 54.1755 54.2932 56.3751 52.3239C57.4053 51.3809 57.7951 51.2145 59.3265 50.9371C60.1339 50.7984 61.359 51.1867 62.4171 51.9079ZM26.3601 51.2977C27.6409 51.6583 29.5342 53.6275 29.9519 55.0975C30.815 57.9821 28.1699 61.2827 24.9958 61.2827C22.0723 61.2827 20.2068 59.2302 20.2068 56.0961C20.2068 54.5428 20.8472 53.3502 22.2393 52.2685C23.7707 51.1313 24.8287 50.8816 26.3601 51.2977Z" fill="#10524B"/>
<path d="M41.1727 44.8353C40.6437 45.0295 40.7272 46.4995 41.2562 46.6936C41.9244 46.9432 44.319 46.8878 45.0986 46.5827C45.8782 46.3053 46.0452 45.5287 45.4884 44.974C45.1543 44.6411 41.8688 44.5302 41.1727 44.8353Z" fill="#10524B"/>
<path d="M57.9343 52.7955C56.7927 53.2948 56.1245 54.3765 56.1245 55.7355C56.1245 57.9822 57.3775 59.5909 59.5214 60.0347C60.5516 60.2843 62.1108 59.4799 62.8069 58.3705C63.8928 56.6231 63.1967 53.4889 61.5539 52.74C60.6073 52.2963 58.9924 52.324 57.9343 52.7955ZM60.8022 55.5137C61.5261 57.0391 60.1339 58.426 58.881 57.4275C57.6837 56.4844 58.4355 54.4874 59.8833 54.6816C60.1896 54.737 60.6073 55.0976 60.8022 55.5137Z" fill="#10524B"/>
<path d="M23.9656 52.8231C21.237 53.7661 20.5966 57.0667 22.7127 59.1747C24.8566 61.3381 28.699 59.3133 28.699 56.0127C28.699 53.5165 26.4158 51.991 23.9656 52.8231ZM26.0817 55.5135C26.5272 56.3456 26.1374 57.3718 25.2742 57.7046C24.6338 57.9543 24.4668 57.8988 24.0491 57.3995C23.4087 56.5952 23.4087 55.8741 24.077 55.2084C24.7174 54.5705 25.664 54.7091 26.0817 55.5135Z" fill="#10524B"/>
</svg>
