<svg width="25" height="24" viewBox="0 0 25 24" fill="none" xmlns="http://www.w3.org/2000/svg">
<path opacity="0.4" d="M18.3093 13.02C17.7406 13.5791 17.4123 14.3845 17.493 15.2467C17.6224 16.7693 18.9905 17.8 20.4 17.8H21.55V18.24C21.55 19.8958 20.1958 21.25 18.54 21.25H7.06005C5.40427 21.25 4.05005 19.8958 4.05005 18.24V11.51C4.05005 9.85422 5.40427 8.5 7.06005 8.5H18.54C20.1958 8.5 21.55 9.85422 21.55 11.51V12.2H20.28C19.5224 12.2 18.821 12.4982 18.3093 13.02Z" fill="#2EC4B6" stroke="#2EC4B6" stroke-width="1.5"/>
<path d="M15.65 3.94964V7.74962H7.06005C4.99005 7.74962 3.30005 9.43963 3.30005 11.5096V7.83965C3.30005 6.64965 4.03005 5.58961 5.14005 5.16961L13.08 2.16961C14.32 1.70961 15.65 2.61963 15.65 3.94964Z" fill="#2EC4B6"/>
<path d="M23.3601 13.9702V16.0302C23.3601 16.5802 22.9201 17.0302 22.3601 17.0502H20.4001C19.3201 17.0502 18.3301 16.2602 18.2401 15.1802C18.1801 14.5502 18.4201 13.9602 18.8401 13.5502C19.2101 13.1702 19.7201 12.9502 20.2801 12.9502H22.3601C22.9201 12.9702 23.3601 13.4202 23.3601 13.9702Z" fill="#2EC4B6"/>
<path d="M14.8 12.75H7.80005C7.39005 12.75 7.05005 12.41 7.05005 12C7.05005 11.59 7.39005 11.25 7.80005 11.25H14.8C15.21 11.25 15.55 11.59 15.55 12C15.55 12.41 15.21 12.75 14.8 12.75Z" fill="#2EC4B6"/>
</svg>
