<svg width="225" height="238" viewBox="0 0 225 238" fill="none" xmlns="http://www.w3.org/2000/svg">
<circle cx="112.328" cy="125.186" r="110.447" stroke="#9FE4DD" stroke-width="3" stroke-dasharray="3 6"/>
<circle cx="182.971" cy="26.4769" r="26.1476" fill="#2EC4B6"/>
<path d="M182.971 20.6332V27.8519" stroke="#FCFCFC" stroke-width="2" stroke-linecap="round" stroke-linejoin="round"/>
<path d="M195.456 21.7745V31.1794C195.456 32.7194 194.631 34.1495 193.297 34.9332L185.13 39.6495C183.796 40.4195 182.146 40.4195 180.798 39.6495L172.631 34.9332C171.297 34.1632 170.472 32.7332 170.472 31.1794V21.7745C170.472 20.2345 171.297 18.8044 172.631 18.0207L180.798 13.3044C182.132 12.5344 183.782 12.5344 185.13 13.3044L193.297 18.0207C194.631 18.8044 195.456 20.2207 195.456 21.7745Z" stroke="#FCFCFC" stroke-width="2" stroke-linecap="round" stroke-linejoin="round"/>
<path d="M182.971 32.252V32.3895" stroke="#FCFCFC" stroke-width="1.5" stroke-linecap="round" stroke-linejoin="round"/>
<path d="M86.8268 30.7097L88.7391 35.3057C89.5541 37.2646 91.1095 38.8226 93.067 39.641L97.629 41.548L93.1138 43.4356C91.1286 44.2655 89.5582 45.8555 88.753 47.8509L86.8268 52.6246L84.8559 47.7402C84.0773 45.8104 82.5817 44.2572 80.6827 43.4061L76.5371 41.548L80.7285 39.6695C82.6002 38.8306 84.0811 37.3091 84.8689 35.4155L86.8268 30.7097Z" fill="#9FE4DD"/>
<path d="M189.682 172.186L191.594 176.782C192.409 178.741 193.964 180.299 195.922 181.117L200.484 183.024L195.969 184.912C193.984 185.742 192.413 187.332 191.608 189.327L189.682 194.101L187.711 189.217C186.932 187.287 185.437 185.733 183.538 184.882L179.392 183.024L183.584 181.146C185.455 180.307 186.936 178.785 187.724 176.892L189.682 172.186Z" fill="#9FE4DD"/>
<path d="M51.6178 185.64L53.5301 190.236C54.3451 192.194 55.9005 193.752 57.858 194.571L62.42 196.478L57.9048 198.365C55.9196 199.195 54.3492 200.785 53.5441 202.781L51.6178 207.554L49.647 202.67C48.8683 200.74 47.3727 199.187 45.4737 198.336L41.3281 196.478L45.5196 194.599C47.3912 193.76 48.8721 192.239 49.6599 190.345L51.6178 185.64Z" fill="#9FE4DD"/>
<ellipse cx="170.919" cy="120.727" rx="2.06222" ry="2.10498" fill="#FCFCFC"/>
<path d="M130.758 159.543C139.671 159.99 147.653 160.734 154.161 161.697C154.099 162.105 154.38 162.487 154.789 162.55C160.035 163.353 164.231 164.295 167.099 165.323C168.537 165.838 169.597 166.36 170.283 166.867C170.989 167.389 171.155 167.784 171.155 168.029C171.155 168.274 170.989 168.669 170.283 169.191C169.597 169.698 168.537 170.22 167.099 170.735C164.231 171.763 160.035 172.705 154.789 173.509C154.38 173.571 154.099 173.953 154.161 174.362C147.653 175.324 139.671 176.068 130.758 176.515C130.738 176.102 130.387 175.783 129.973 175.803C124.08 176.086 117.79 176.239 111.257 176.239C104.723 176.239 98.4329 176.086 92.5402 175.803C92.1267 175.783 91.7754 176.102 91.7551 176.515C82.8423 176.068 74.8603 175.324 68.3524 174.362C68.4139 173.953 68.133 173.571 67.7242 173.509C62.4781 172.705 58.2825 171.763 55.4147 170.735C53.9762 170.22 52.9164 169.698 52.2302 169.191C51.5246 168.669 51.358 168.274 51.358 168.029C51.358 167.784 51.5246 167.389 52.2302 166.867C52.9164 166.36 53.9762 165.838 55.4147 165.323C58.2825 164.295 62.4781 163.353 67.7242 162.55C68.133 162.487 68.4139 162.105 68.3524 161.697C74.8603 160.734 82.8423 159.99 91.7551 159.543C91.7754 159.956 92.1267 160.275 92.5402 160.255C98.4329 159.972 104.723 159.82 111.257 159.82C117.79 159.82 124.08 159.972 129.973 160.255C130.387 160.275 130.738 159.956 130.758 159.543Z" stroke="#E1F5F3" stroke-width="1.5" stroke-linecap="round" stroke-linejoin="round" stroke-dasharray="60 40"/>
<path d="M133.94 159.648C144.111 160.202 153.206 161.129 160.589 162.329C160.521 162.737 160.797 163.122 161.205 163.191C167.059 164.171 171.741 165.321 174.943 166.574C176.547 167.202 177.736 167.84 178.51 168.465C179.295 169.098 179.543 169.625 179.543 170.029C179.543 170.434 179.295 170.96 178.51 171.593C177.736 172.219 176.547 172.856 174.943 173.484C171.741 174.737 167.059 175.887 161.205 176.868C160.797 176.936 160.521 177.321 160.589 177.729C153.206 178.929 144.111 179.856 133.94 180.41C133.918 179.997 133.566 179.679 133.152 179.701C126.488 180.05 119.371 180.239 111.978 180.239C104.585 180.239 97.4674 180.05 90.8031 179.701C90.3897 179.679 90.037 179.997 90.015 180.41C79.8441 179.856 70.7494 178.929 63.3667 177.729C63.434 177.321 63.1585 176.936 62.7506 176.868C56.8963 175.887 52.2144 174.737 49.0128 173.484C47.4083 172.856 46.2195 172.219 45.445 171.593C44.6603 170.96 44.4126 170.434 44.4126 170.029C44.4126 169.625 44.6603 169.098 45.445 168.465C46.2195 167.84 47.4083 167.202 49.0128 166.574C52.2144 165.321 56.8963 164.171 62.7506 163.191C63.1585 163.122 63.434 162.737 63.3667 162.329C70.7494 161.129 79.8441 160.202 90.015 159.648C90.037 160.062 90.3897 160.379 90.8031 160.357C97.4674 160.008 104.585 159.82 111.978 159.82C119.371 159.82 126.488 160.008 133.152 160.357C133.566 160.379 133.918 160.062 133.94 159.648Z" stroke="#E1F5F3" stroke-width="1.5" stroke-linecap="round" stroke-linejoin="round" stroke-dasharray="60 40"/>
<ellipse cx="111.978" cy="166.279" rx="49.2423" ry="8.20932" fill="#9FE4DD"/>
<path d="M149.074 101.195C149.074 113.103 140.572 147.883 131.221 165.595C125.624 166.374 118.878 164.387 119.318 163.044C131.22 126.7 118.468 110.122 131.22 92.4807C139.821 80.583 149.074 92.4808 149.074 101.195Z" fill="#2EC4B6"/>
<path d="M74.8766 101.195C74.8766 113.103 83.378 147.883 92.7298 165.595C98.3267 166.374 105.072 164.387 104.632 163.044C92.7299 126.7 105.483 110.122 92.73 92.4807C83.4515 79.6455 74.8766 92.4808 74.8766 101.195Z" fill="#2EC4B6"/>
</svg>
