<svg width="24" height="25" viewBox="0 0 24 25" fill="none" xmlns="http://www.w3.org/2000/svg">
<path opacity="0.4" d="M10.5386 3.90526L10.539 3.90497C11.3233 3.276 12.6629 3.2738 13.4599 3.91442L13.4615 3.91566L20.3894 9.45402C20.3897 9.45425 20.39 9.45449 20.3903 9.45473C20.6464 9.66127 20.8961 10.0202 21.0628 10.4572C21.2295 10.894 21.283 11.33 21.2297 11.658C21.2297 11.6584 21.2296 11.6587 21.2296 11.659L19.9004 19.614C19.9004 19.6142 19.9003 19.6144 19.9003 19.6146C19.7212 20.6651 18.6627 21.5599 17.5998 21.5599H6.39977C5.32617 21.5599 4.27871 20.6745 4.09939 19.6154C4.09935 19.6152 4.09932 19.615 4.09929 19.6149L2.76952 11.6562L2.76954 11.6562L2.76874 11.6517C2.71229 11.3262 2.76317 10.8925 2.92926 10.4572C3.09532 10.0219 3.34658 9.66353 3.60646 9.45696L3.60646 9.45697L3.60861 9.45525L10.5386 3.90526Z" fill="#2EC4B6" stroke="#2EC4B6" stroke-width="1.5"/>
<path d="M12 16C13.3807 16 14.5 14.8807 14.5 13.5C14.5 12.1193 13.3807 11 12 11C10.6193 11 9.5 12.1193 9.5 13.5C9.5 14.8807 10.6193 16 12 16Z" fill="#2EC4B6"/>
</svg>
