<svg width="108" height="66" viewBox="0 0 108 66" fill="none" xmlns="http://www.w3.org/2000/svg">
  <path
    d="M8.45311 30.7696C9.60591 30.7696 10.5494 31.7179 10.5494 32.8765V42.3829H18.7382V32.9679C18.7382 31.8094 19.6817 30.8611 20.8345 30.8611H24.5577C25.7105 30.8611 26.654 31.8094 26.654 32.9679V59.4792C26.654 60.6378 25.7105 61.586 24.5577 61.586H20.8345C19.6817 61.586 18.7382 60.6378 18.7382 59.4792V47.8695H10.5494V59.3877C10.5494 60.5463 9.60591 61.4946 8.45311 61.4946H4.73086C3.57806 61.4946 2.63453 60.5463 2.63453 59.3877V32.8765C2.63453 31.7179 3.57806 30.7696 4.73086 30.7696H8.45311ZM8.45311 28.2092H4.73086C2.1705 28.2092 0.0869141 30.3033 0.0869141 32.8765V59.3877C0.0869141 61.9609 2.1705 64.055 4.73086 64.055H8.45311C11.0135 64.055 13.0971 61.9609 13.0971 59.3877V50.4299H16.1906V59.4792C16.1906 62.0524 18.2742 64.1464 20.8345 64.1464H24.5577C27.1181 64.1464 29.2016 62.0524 29.2016 59.4792V32.9679C29.2016 30.3947 27.1181 28.3007 24.5577 28.3007H20.8345C18.2742 28.3007 16.1906 30.3947 16.1906 32.9679V39.8225H13.0971V32.8765C13.0971 30.3033 11.0135 28.2092 8.45311 28.2092Z"
    fill="currentColor" />
  <path
    d="M93.256 30.5868C99.4867 30.5868 104.538 35.6637 104.538 41.9257C104.538 48.1878 99.4867 53.2647 93.256 53.2647C91.3125 53.2647 89.7985 53.0818 87.8878 52.4417V59.5368C87.8878 60.614 87.0107 61.4946 85.9398 61.4946H82.1029C81.031 61.4946 80.1549 60.6131 80.1549 59.5368V32.8198C80.1549 31.7426 81.032 30.862 82.1029 30.862H85.9398C86.7368 30.862 87.4247 31.3494 87.7258 32.0416C89.3599 31.1162 91.247 30.5877 93.256 30.5877M92.3461 47.5952C95.3614 47.5952 97.8053 45.1391 97.8053 42.1086C97.8053 39.0782 95.3614 36.622 92.3461 36.622C89.3308 36.622 86.8869 39.0782 86.8869 42.1086C86.8869 45.1391 89.3308 47.5952 92.3461 47.5952ZM93.256 28.0264C91.5482 28.0264 89.8549 28.3455 88.2727 28.9591C87.583 28.5375 86.7796 28.3007 85.9389 28.3007H82.102C79.6226 28.3007 77.6063 30.328 77.6063 32.8189V59.5359C77.6063 62.0277 79.6235 64.0541 82.102 64.0541H85.9389C88.4182 64.0541 90.4345 62.0268 90.4345 59.5359V55.6624C91.3862 55.7876 92.2997 55.8251 93.2551 55.8251C95.1212 55.8251 96.9327 55.4575 98.6387 54.7315C100.286 54.031 101.765 53.0297 103.034 51.7541C104.304 50.4784 105.301 48.9925 105.997 47.3364C106.718 45.621 107.085 43.8003 107.085 41.9257C107.085 40.0512 106.719 38.2296 105.997 36.515C105.3 34.8599 104.304 33.3731 103.034 32.0974C101.765 30.8218 100.287 29.8196 98.6387 29.12C96.9318 28.3949 95.1203 28.0264 93.2551 28.0264H93.256ZM92.3461 45.0348C90.7411 45.0348 89.4346 43.7217 89.4346 42.1086C89.4346 40.4956 90.7411 39.1824 92.3461 39.1824C93.9511 39.1824 95.2577 40.4956 95.2577 42.1086C95.2577 43.7217 93.9511 45.0348 92.3461 45.0348Z"
    fill="currentColor" />
  <path
    d="M53.5323 65.4267C47.7301 65.4267 42.2709 63.3107 38.1602 59.4692C34.0239 55.6029 31.7456 50.4556 31.7456 44.9754C31.7456 40.3255 33.4161 35.8567 36.4769 32.2474C35.2604 31.2406 33.2442 29.4035 31.2752 26.8504C29.4755 24.5168 28.0853 22.0625 27.1454 19.5578C25.9589 16.3975 25.4894 13.1522 25.7478 9.91056C26.2946 3.07609 30.1961 0.325479 33.6655 0.0301168C36.3823 -0.201235 39.2211 0.917117 41.6577 3.17942C41.8606 3.3678 42.0599 3.56348 42.2555 3.76557C43.3137 3.38883 44.3673 3.27635 44.6566 3.25166C45.0069 3.1968 46.3599 3.03677 48.0522 3.47021C49.7955 3.91737 52.233 5.10339 53.9472 8.2152C57.2719 14.2514 57.1363 21.7826 56.9207 24.7692C61.7784 25.4815 66.2404 27.7219 69.5951 31.1556C73.2864 34.9349 75.3199 39.8427 75.3199 44.9745C75.3199 50.4547 73.0416 55.602 68.9054 59.4682C64.7946 63.3107 59.3354 65.4258 53.5332 65.4258L53.5323 65.4267ZM34.356 2.56127C34.1959 2.56127 34.0376 2.56767 33.8802 2.58138C30.7339 2.84931 28.643 5.66577 28.2872 10.1154C27.8705 15.3359 29.5529 20.4384 33.2888 25.2822C36.1039 28.9317 39.0473 31.0157 39.0764 31.0358L40.3093 31.8999L39.2584 32.9799C36.0557 36.2727 34.2923 40.5331 34.2923 44.9754C34.2923 54.8403 42.9233 62.8663 53.5314 62.8663C64.1395 62.8663 72.7705 54.8403 72.7705 44.9754C72.7705 35.7195 65.3105 28.0639 55.4185 27.1696L54.0946 27.0498L54.2702 25.7257C54.2821 25.6324 55.4612 16.2531 51.7181 9.457C49.3251 5.11253 45.2043 5.75629 45.0306 5.78556L44.9605 5.79836L44.9014 5.8011C44.8959 5.8011 44.5147 5.83128 44.0179 5.93187C45.4427 8.00123 46.5455 10.5068 47.2643 13.3369C47.4135 13.8637 49.5253 21.4324 49.9447 28.5924L50.0193 29.8708L47.4763 30.0208L47.4017 28.7424C46.9931 21.7662 44.8313 14.0987 44.8104 14.0228L44.8004 13.9871C42.8733 6.37902 38.1847 2.56218 34.3569 2.56218L34.356 2.56127ZM53.1129 53.5208C48.2442 53.5208 44.2836 49.5402 44.2836 44.6471C44.2836 39.754 48.2442 35.7735 53.1129 35.7735C57.9816 35.7735 61.9422 39.754 61.9422 44.6471C61.9422 49.5402 57.9816 53.5208 53.1129 53.5208ZM53.1129 38.3339C49.649 38.3339 46.8312 41.1659 46.8312 44.6471C46.8312 48.1284 49.649 50.9604 53.1129 50.9604C56.5767 50.9604 59.3946 48.1284 59.3946 44.6471C59.3946 41.1659 56.5767 38.3339 53.1129 38.3339Z"
    fill="currentColor" />
  <path
    d="M45.3062 26.5632C45.3062 26.5632 43.9414 18.2419 41.5894 12.4508C39.6059 7.56773 37.5669 7.95545 37.4222 9.86204C37.1183 13.8526 42.3045 17.3275 45.3071 26.5632H45.3062Z"
    fill="currentColor" />
</svg>