<svg width="17" height="17" viewBox="0 0 17 17" fill="none" xmlns="http://www.w3.org/2000/svg">
<path opacity="0.4" d="M11.9321 15.6363H5.94538C3.60538 15.6363 3.09872 14.2963 3.29205 12.6563L3.89205 7.65631C4.04538 6.36298 4.27205 5.30298 6.53872 5.30298H11.3387C13.6054 5.30298 13.8321 6.36298 13.9854 7.65631L14.4854 11.823L14.5854 12.6563C14.5921 12.7096 14.5987 12.763 14.6054 12.8163C14.7454 14.383 14.1987 15.6363 11.9321 15.6363Z" fill="#2EC4B6"/>
<path d="M11.6054 6.80298C11.3321 6.80298 11.1054 6.57631 11.1054 6.30298V3.96965C11.1054 3.24965 10.6587 2.80298 9.93873 2.80298H7.93873C7.21873 2.80298 6.77206 3.24965 6.77206 3.96965V6.30298C6.77206 6.57631 6.5454 6.80298 6.27206 6.80298C5.99873 6.80298 5.77206 6.57631 5.77206 6.30298V3.96965C5.77206 2.69631 6.6654 1.80298 7.93873 1.80298H9.93873C11.2121 1.80298 12.1054 2.69631 12.1054 3.96965V6.30298C12.1054 6.57631 11.8787 6.80298 11.6054 6.80298Z" fill="#2EC4B6"/>
<path d="M14.6054 12.8163C14.5854 12.823 14.5654 12.823 14.5454 12.823H6.27206C5.99873 12.823 5.77206 12.5963 5.77206 12.323C5.77206 12.043 5.99873 11.823 6.27206 11.823H14.4854L14.5854 12.6563C14.5921 12.7097 14.5987 12.763 14.6054 12.8163Z" fill="#2EC4B6"/>
</svg>
