<svg width="66" height="68" viewBox="0 0 66 68" fill="none" xmlns="http://www.w3.org/2000/svg">
<g clip-path="url(#clip0_499_3406)" filter="url(#filter0_d_499_3406)">
<path d="M56.1173 23.4797C53.3014 11.0897 42.4937 5.51147 33 5.51147C33 5.51147 33 5.51147 32.9732 5.51147C23.5064 5.51147 12.6719 11.0628 9.85594 23.4528C6.71822 37.291 15.1928 49.0106 22.8628 56.3856C25.7055 59.121 29.3528 60.4887 33 60.4887C36.6473 60.4887 40.2946 59.121 43.1105 56.3856C50.7805 49.0106 59.255 37.3178 56.1173 23.4797ZM33 36.9156C28.3337 36.9156 24.5523 33.1342 24.5523 28.4678C24.5523 23.8015 28.3337 20.0201 33 20.0201C37.6664 20.0201 41.4478 23.8015 41.4478 28.4678C41.4478 33.1342 37.6664 36.9156 33 36.9156Z" fill="#10524B"/>
</g>
<defs>
<filter id="filter0_d_499_3406" x="-2.18188" y="0.818115" width="70.3636" height="71.3635" filterUnits="userSpaceOnUse" color-interpolation-filters="sRGB">
<feFlood flood-opacity="0" result="BackgroundImageFix"/>
<feColorMatrix in="SourceAlpha" type="matrix" values="0 0 0 0 0 0 0 0 0 0 0 0 0 0 0 0 0 0 127 0" result="hardAlpha"/>
<feOffset dy="4"/>
<feGaussianBlur stdDeviation="1.5"/>
<feColorMatrix type="matrix" values="0 0 0 0 0 0 0 0 0 0 0 0 0 0 0 0 0 0 0.3 0"/>
<feBlend mode="normal" in2="BackgroundImageFix" result="effect1_dropShadow_499_3406"/>
<feBlend mode="normal" in="SourceGraphic" in2="effect1_dropShadow_499_3406" result="shape"/>
</filter>
<clipPath id="clip0_499_3406">
<rect width="64.3636" height="64.3636" fill="white" transform="translate(0.818115 0.818115)"/>
</clipPath>
</defs>
</svg>
