<svg width="45" height="44" viewBox="0 0 45 44" fill="none" xmlns="http://www.w3.org/2000/svg">
<circle cx="22.3281" cy="22" r="22" fill="#E1F5F3"/>
<path opacity="0.4" d="M26.5181 12H18.1381C14.4981 12 12.3281 14.17 12.3281 17.81V26.18C12.3281 29.83 14.4981 32 18.1381 32H26.5081C30.1481 32 32.3181 29.83 32.3181 26.19V17.81C32.3281 14.17 30.1581 12 26.5181 12Z" fill="#2EC4B6"/>
<path d="M27.3281 18.25H17.3281C16.9181 18.25 16.5781 17.91 16.5781 17.5C16.5781 17.09 16.9181 16.75 17.3281 16.75H27.3281C27.7381 16.75 28.0781 17.09 28.0781 17.5C28.0781 17.91 27.7381 18.25 27.3281 18.25Z" fill="#2EC4B6"/>
<path d="M27.3281 22.75H17.3281C16.9181 22.75 16.5781 22.41 16.5781 22C16.5781 21.59 16.9181 21.25 17.3281 21.25H27.3281C27.7381 21.25 28.0781 21.59 28.0781 22C28.0781 22.41 27.7381 22.75 27.3281 22.75Z" fill="#2EC4B6"/>
<path d="M27.3281 27.25H17.3281C16.9181 27.25 16.5781 26.91 16.5781 26.5C16.5781 26.09 16.9181 25.75 17.3281 25.75H27.3281C27.7381 25.75 28.0781 26.09 28.0781 26.5C28.0781 26.91 27.7381 27.25 27.3281 27.25Z" fill="#2EC4B6"/>
</svg>
