<svg width="24" height="25" viewBox="0 0 24 25" fill="none" xmlns="http://www.w3.org/2000/svg">
<path opacity="0.4" d="M22 6.70996V11.8099C22 13.0799 21.58 14.15 20.83 14.89C20.09 15.64 19.02 16.0599 17.75 16.0599V17.8699C17.75 18.5499 16.99 18.96 16.43 18.58L15.46 17.9399C15.55 17.6299 15.59 17.2899 15.59 16.9299V12.86C15.59 10.82 14.23 9.45996 12.19 9.45996H5.39999C5.25999 9.45996 5.13 9.46998 5 9.47998V6.70996C5 4.15996 6.7 2.45996 9.25 2.45996H17.75C20.3 2.45996 22 4.15996 22 6.70996Z" fill="#9FE4DD"/>
<path d="M15.59 12.86V16.9299C15.59 17.2899 15.55 17.6299 15.46 17.9399C15.09 19.4099 13.87 20.33 12.19 20.33H9.47L6.45 22.34C6 22.65 5.39999 22.32 5.39999 21.78V20.33C4.37999 20.33 3.53 19.99 2.94 19.4C2.34 18.8 2 17.9499 2 16.9299V12.86C2 10.96 3.18 9.64998 5 9.47998C5.13 9.46998 5.25999 9.45996 5.39999 9.45996H12.19C14.23 9.45996 15.59 10.82 15.59 12.86Z" fill="#9FE4DD"/>
</svg>
