<svg width="20" height="21" viewBox="0 0 20 21" fill="none" xmlns="http://www.w3.org/2000/svg">
<g clip-path="url(#clip0_906_11171)">
<path d="M18.3334 6.10417V10.3541C18.3334 11.4125 17.9834 12.3042 17.3584 12.9208C16.7418 13.5458 15.8501 13.8958 14.7917 13.8958V15.4041C14.7917 15.9708 14.1584 16.3125 13.6917 15.9958L12.8834 15.4625C12.9584 15.2042 12.9917 14.9208 12.9917 14.6208V11.2292C12.9917 9.52919 11.8584 8.39583 10.1584 8.39583H4.50008C4.38341 8.39583 4.27508 8.40418 4.16675 8.41252V6.10417C4.16675 3.97917 5.58341 2.5625 7.70842 2.5625H14.7917C16.9167 2.5625 18.3334 3.97917 18.3334 6.10417Z" stroke="#2EC4B6" stroke-width="1.5" stroke-miterlimit="10" stroke-linecap="round" stroke-linejoin="round"/>
<path d="M12.9917 11.2289V14.6205C12.9917 14.9205 12.9584 15.2038 12.8834 15.4622C12.5751 16.6872 11.5584 17.4538 10.1584 17.4538H7.89175L5.37508 19.1288C5.00008 19.3872 4.50008 19.1122 4.50008 18.6622V17.4538C3.65008 17.4538 2.94175 17.1705 2.45008 16.6788C1.95008 16.1788 1.66675 15.4705 1.66675 14.6205V11.2289C1.66675 9.64553 2.65008 8.55386 4.16675 8.41219C4.27508 8.40386 4.38341 8.39551 4.50008 8.39551H10.1584C11.8584 8.39551 12.9917 9.52886 12.9917 11.2289Z" stroke="#2EC4B6" stroke-width="1.5" stroke-miterlimit="10" stroke-linecap="round" stroke-linejoin="round"/>
</g>
<defs>
<clipPath id="clip0_906_11171">
<rect width="20" height="20" fill="white" transform="translate(0 0.895508)"/>
</clipPath>
</defs>
</svg>
