<svg width="294" height="197" viewBox="0 0 294 197" fill="none" xmlns="http://www.w3.org/2000/svg">
<rect x="65.4836" y="79.6123" width="23.8743" height="82.6164" rx="6.1208" fill="url(#paint0_linear_906_10872)"/>
<rect x="110.444" y="67.1943" width="23.8743" height="95.0349" rx="6.1208" fill="url(#paint1_linear_906_10872)"/>
<rect x="154.721" y="46.2578" width="23.8743" height="115.971" rx="6.1208" fill="url(#paint2_linear_906_10872)"/>
<path d="M171.638 25.1595C170.225 23.714 168.345 22.7709 166.299 22.4706C166.39 21.2133 166.447 18.0432 165.046 15.5017C164.324 14.1921 163.297 13.6924 162.563 13.5041C161.85 13.3213 161.28 13.389 161.132 13.4121C161.01 13.4225 160.566 13.4695 160.12 13.6281C160.038 13.543 159.954 13.4606 159.869 13.3813C158.842 12.429 157.646 11.9582 156.502 12.0555C155.04 12.1803 153.396 13.3382 153.166 16.215C153.057 17.5797 153.255 18.9459 153.755 20.2763C154.151 21.3311 154.736 22.364 155.495 23.3464C156.324 24.4212 157.174 25.1949 157.686 25.6188C156.397 27.1382 155.693 29.0195 155.693 30.977C155.693 33.2841 156.653 35.451 158.395 37.0786C160.127 38.6958 162.427 39.5866 164.871 39.5866C167.316 39.5866 169.616 38.6958 171.347 37.0786C173.09 35.451 174.05 33.2841 174.05 30.977C174.05 28.8162 173.193 26.7502 171.638 25.1595ZM164.871 38.5087C160.402 38.5087 156.766 35.1299 156.766 30.977C156.766 29.1069 157.509 27.3134 158.858 25.9271L159.301 25.4721L158.782 25.1083C158.769 25.0998 157.529 24.2225 156.343 22.6862C154.769 20.647 154.06 18.499 154.236 16.3012C154.386 14.428 155.267 13.2428 156.592 13.1296C156.658 13.1242 156.725 13.1211 156.792 13.1211C158.405 13.1211 160.38 14.7279 161.192 17.9308L161.196 17.9462C161.206 17.9785 162.116 21.2064 162.288 24.1428L162.32 24.681L163.391 24.6175L163.36 24.0797C163.183 21.0655 162.293 17.8792 162.231 17.6575C161.928 16.466 161.463 15.4112 160.863 14.5401C161.072 14.4977 161.233 14.485 161.235 14.485L161.26 14.4839L161.29 14.4785C161.363 14.4658 163.099 14.1951 164.107 16.0237C165.684 18.8851 165.187 22.8336 165.182 22.8729L165.108 23.4303L165.666 23.4807C169.834 23.8576 172.976 27.0801 172.976 30.977C172.976 35.1299 169.34 38.5087 164.871 38.5087Z" fill="url(#paint3_linear_906_10872)"/>
<path d="M165.666 23.4797L165.108 23.4293L165.182 22.8719C165.187 22.8326 165.684 18.8841 164.107 16.0227C163.099 14.1942 161.363 14.4648 161.289 14.4775L161.26 14.4829L161.235 14.484C161.233 14.484 161.072 14.4967 160.863 14.5391C161.463 15.4102 161.928 16.465 162.23 17.6565C162.293 17.8782 163.183 21.0645 163.36 24.0787L163.391 24.6165L162.32 24.68L162.288 24.1419C162.116 21.2054 161.205 17.9775 161.196 17.9452L161.192 17.9298C160.38 14.7269 158.405 13.1201 156.792 13.1201C156.725 13.1201 156.658 13.1232 156.592 13.1286C155.266 13.2418 154.385 14.427 154.236 16.3003C154.06 18.498 154.769 20.646 156.343 22.6852C157.529 24.2215 158.769 25.0989 158.781 25.1073L159.301 25.4711L158.858 25.9261C157.509 27.3124 156.766 29.1059 156.766 30.976C156.766 35.1289 160.402 38.5077 164.871 38.5077C169.34 38.5077 172.976 35.1289 172.976 30.976C172.976 27.0791 169.833 23.8566 165.666 23.4797ZM164.694 33.4956C163.235 33.4956 162.048 32.3033 162.048 30.8378C162.048 29.3723 163.235 28.1801 164.694 28.1801C166.154 28.1801 167.341 29.3723 167.341 30.8378C167.341 32.3033 166.154 33.4956 164.694 33.4956Z" fill="url(#paint4_linear_906_10872)"/>
<path d="M165.666 23.4797L165.108 23.4293L165.182 22.8719C165.187 22.8326 165.684 18.8841 164.107 16.0227C163.099 14.1942 161.363 14.4648 161.289 14.4775L161.26 14.4829L161.235 14.484C161.233 14.484 161.072 14.4967 160.863 14.5391C161.463 15.4102 161.928 16.465 162.23 17.6565C162.293 17.8782 163.183 21.0645 163.36 24.0787L163.391 24.6165L162.32 24.68L162.288 24.1419C162.116 21.2054 161.205 17.9775 161.196 17.9452L161.192 17.9298C160.38 14.7269 158.405 13.1201 156.792 13.1201C156.725 13.1201 156.658 13.1232 156.592 13.1286C155.266 13.2418 154.385 14.427 154.236 16.3003C154.06 18.498 154.769 20.646 156.343 22.6852C157.529 24.2215 158.769 25.0989 158.781 25.1073L159.301 25.4711L158.858 25.9261C157.509 27.3124 156.766 29.1059 156.766 30.976C156.766 35.1289 160.402 38.5077 164.871 38.5077C169.34 38.5077 172.976 35.1289 172.976 30.976C172.976 27.0791 169.833 23.8566 165.666 23.4797ZM164.694 34.5734C162.643 34.5734 160.975 32.8977 160.975 30.8378C160.975 28.7779 162.643 27.1022 164.694 27.1022C166.745 27.1022 168.414 28.7779 168.414 30.8378C168.414 32.8977 166.745 34.5734 164.694 34.5734Z" fill="url(#paint5_linear_906_10872)"/>
<path d="M161.378 23.173C161.378 23.173 160.805 19.6951 159.817 17.2746C158.984 15.2337 158.128 15.3958 158.067 16.1927C157.94 17.8605 160.117 19.3129 161.378 23.173H161.378Z" fill="#10524B"/>
<rect x="203.403" y="63.3809" width="24.2089" height="99.0453" rx="6.1208" fill="url(#paint6_linear_906_10872)"/>
<rect x="249.448" y="54.9092" width="24.2089" height="107.517" rx="6.1208" fill="url(#paint7_linear_906_10872)"/>
<rect x="20.2805" y="114.426" width="24.2089" height="48.0002" rx="6.1208" fill="url(#paint8_linear_906_10872)"/>
<path d="M25.5284 179.546C25.0644 179.546 24.6564 179.458 24.3044 179.282C23.9604 179.098 23.6644 178.85 23.4164 178.538L24.0404 177.962C24.2164 178.202 24.4244 178.386 24.6644 178.514C24.9044 178.634 25.1844 178.694 25.5044 178.694C25.7924 178.694 26.0564 178.634 26.2964 178.514C26.5364 178.386 26.7284 178.19 26.8724 177.926C27.0164 177.662 27.0884 177.33 27.0884 176.93V171.17H27.9764V176.918C27.9764 177.47 27.8644 177.942 27.6404 178.334C27.4244 178.726 27.1284 179.026 26.7524 179.234C26.3844 179.442 25.9764 179.546 25.5284 179.546ZM32.0098 179.546C31.5538 179.546 31.1458 179.442 30.7858 179.234C30.4258 179.018 30.1418 178.726 29.9338 178.358C29.7338 177.99 29.6338 177.558 29.6338 177.062V173.786H30.4858V177.026C30.4858 177.37 30.5458 177.67 30.6658 177.926C30.7938 178.182 30.9738 178.382 31.2058 178.526C31.4378 178.67 31.7058 178.742 32.0098 178.742C32.4818 178.742 32.8538 178.586 33.1258 178.274C33.4058 177.962 33.5458 177.546 33.5458 177.026V173.786H34.3858V177.062C34.3858 177.55 34.2858 177.982 34.0858 178.358C33.8858 178.734 33.6058 179.026 33.2458 179.234C32.8858 179.442 32.4738 179.546 32.0098 179.546ZM35.9536 179.426V170.93H36.7936V179.426H35.9536Z" fill="#8E8E8E"/>
<path d="M66.2152 179.426L69.5992 171.17H70.2592L73.6072 179.426H72.6592L69.7432 172.13H70.0912L67.1512 179.426H66.2152ZM67.7632 177.278V176.498H72.0832V177.278H67.7632ZM76.8497 181.922C76.2817 181.922 75.7737 181.814 75.3257 181.598C74.8857 181.39 74.5297 181.094 74.2577 180.71L74.8097 180.158C75.0337 180.462 75.3177 180.698 75.6617 180.866C76.0057 181.034 76.4097 181.118 76.8737 181.118C77.5137 181.118 78.0217 180.946 78.3977 180.602C78.7817 180.258 78.9737 179.79 78.9737 179.198V177.794L79.1417 176.51L78.9737 175.238V173.786H79.8137V179.198C79.8137 179.742 79.6897 180.218 79.4417 180.626C79.1937 181.034 78.8457 181.35 78.3977 181.574C77.9577 181.806 77.4417 181.922 76.8497 181.922ZM76.9097 179.366C76.3897 179.366 75.9217 179.242 75.5057 178.994C75.0897 178.746 74.7617 178.406 74.5217 177.974C74.2817 177.542 74.1617 177.054 74.1617 176.51C74.1617 175.966 74.2777 175.482 74.5097 175.058C74.7497 174.626 75.0777 174.286 75.4937 174.038C75.9097 173.79 76.3777 173.666 76.8977 173.666C77.3377 173.666 77.7297 173.75 78.0737 173.918C78.4257 174.086 78.7057 174.326 78.9137 174.638C79.1297 174.942 79.2617 175.302 79.3097 175.718V177.314C79.2617 177.722 79.1297 178.082 78.9137 178.394C78.6977 178.698 78.4177 178.938 78.0737 179.114C77.7297 179.282 77.3417 179.366 76.9097 179.366ZM77.0657 178.562C77.4577 178.562 77.7977 178.478 78.0857 178.31C78.3817 178.142 78.6097 177.906 78.7697 177.602C78.9377 177.29 79.0217 176.926 79.0217 176.51C79.0217 176.102 78.9377 175.746 78.7697 175.442C78.6097 175.138 78.3817 174.898 78.0857 174.722C77.7897 174.546 77.4457 174.458 77.0537 174.458C76.6617 174.458 76.3097 174.546 75.9977 174.722C75.6937 174.898 75.4537 175.138 75.2777 175.442C75.1097 175.746 75.0257 176.102 75.0257 176.51C75.0257 176.91 75.1137 177.266 75.2897 177.578C75.4657 177.89 75.7057 178.134 76.0097 178.31C76.3137 178.478 76.6657 178.562 77.0657 178.562ZM84.0621 179.546C83.5181 179.546 83.0221 179.414 82.5741 179.15C82.1341 178.886 81.7821 178.53 81.5181 178.082C81.2621 177.634 81.1341 177.134 81.1341 176.582C81.1341 176.038 81.2621 175.546 81.5181 175.106C81.7821 174.666 82.1341 174.318 82.5741 174.062C83.0221 173.798 83.5181 173.666 84.0621 173.666C84.6141 173.666 85.1101 173.794 85.5501 174.05C85.9901 174.306 86.3381 174.658 86.5941 175.106C86.8581 175.546 86.9901 176.038 86.9901 176.582C86.9901 177.142 86.8581 177.646 86.5941 178.094C86.3381 178.534 85.9901 178.886 85.5501 179.15C85.1101 179.414 84.6141 179.546 84.0621 179.546ZM84.0621 178.73C84.4621 178.73 84.8141 178.638 85.1181 178.454C85.4301 178.27 85.6741 178.014 85.8501 177.686C86.0341 177.358 86.1261 176.99 86.1261 176.582C86.1261 176.174 86.0341 175.814 85.8501 175.502C85.6741 175.182 85.4301 174.93 85.1181 174.746C84.8141 174.562 84.4621 174.47 84.0621 174.47C83.6701 174.47 83.3181 174.562 83.0061 174.746C82.6941 174.93 82.4501 175.182 82.2741 175.502C82.0981 175.814 82.0101 176.174 82.0101 176.582C82.0101 176.998 82.0981 177.37 82.2741 177.698C82.4501 178.018 82.6941 178.27 83.0061 178.454C83.3181 178.638 83.6701 178.73 84.0621 178.73Z" fill="#8E8E8E"/>
<path d="M115.451 179.546C114.811 179.546 114.259 179.426 113.795 179.186C113.331 178.938 112.923 178.594 112.571 178.154L113.183 177.554C113.463 177.946 113.787 178.238 114.155 178.43C114.531 178.622 114.975 178.718 115.487 178.718C116.015 178.718 116.443 178.598 116.771 178.358C117.099 178.118 117.263 177.786 117.263 177.362C117.263 177.034 117.187 176.766 117.035 176.558C116.883 176.342 116.683 176.17 116.435 176.042C116.195 175.906 115.927 175.786 115.631 175.682C115.335 175.578 115.039 175.47 114.743 175.358C114.455 175.238 114.187 175.09 113.939 174.914C113.691 174.738 113.491 174.514 113.339 174.242C113.195 173.97 113.123 173.622 113.123 173.198C113.123 172.75 113.231 172.366 113.447 172.046C113.663 171.726 113.959 171.482 114.335 171.314C114.711 171.138 115.139 171.05 115.619 171.05C116.155 171.05 116.631 171.154 117.047 171.362C117.471 171.57 117.823 171.85 118.103 172.202L117.503 172.802C117.247 172.498 116.967 172.266 116.663 172.106C116.359 171.946 116.003 171.866 115.595 171.866C115.115 171.866 114.731 171.978 114.443 172.202C114.155 172.426 114.011 172.738 114.011 173.138C114.011 173.45 114.083 173.702 114.227 173.894C114.379 174.086 114.579 174.246 114.827 174.374C115.075 174.502 115.343 174.618 115.631 174.722C115.927 174.818 116.223 174.926 116.519 175.046C116.815 175.166 117.083 175.318 117.323 175.502C117.571 175.686 117.771 175.922 117.923 176.21C118.075 176.49 118.151 176.85 118.151 177.29C118.151 178.002 117.907 178.558 117.419 178.958C116.939 179.35 116.283 179.546 115.451 179.546ZM122.11 179.546C121.542 179.546 121.034 179.418 120.586 179.162C120.138 178.906 119.782 178.554 119.518 178.106C119.262 177.658 119.134 177.154 119.134 176.594C119.134 176.042 119.262 175.546 119.518 175.106C119.774 174.658 120.122 174.306 120.562 174.05C121.002 173.794 121.494 173.666 122.038 173.666C122.55 173.666 123.002 173.782 123.394 174.014C123.794 174.246 124.106 174.57 124.33 174.986C124.562 175.394 124.678 175.866 124.678 176.402C124.678 176.466 124.674 176.542 124.666 176.63C124.658 176.71 124.642 176.806 124.618 176.918H119.734V176.198H124.162L123.862 176.462C123.87 176.046 123.798 175.69 123.646 175.394C123.502 175.09 123.29 174.858 123.01 174.698C122.738 174.53 122.406 174.446 122.014 174.446C121.606 174.446 121.25 174.534 120.946 174.71C120.642 174.886 120.402 175.134 120.226 175.454C120.058 175.766 119.974 176.138 119.974 176.57C119.974 177.002 120.062 177.382 120.238 177.71C120.422 178.038 120.674 178.294 120.994 178.478C121.322 178.662 121.698 178.754 122.122 178.754C122.466 178.754 122.782 178.694 123.07 178.574C123.358 178.446 123.602 178.258 123.802 178.01L124.342 178.562C124.078 178.874 123.75 179.118 123.358 179.294C122.974 179.462 122.558 179.546 122.11 179.546ZM128.879 179.546C128.447 179.546 128.059 179.458 127.715 179.282C127.371 179.106 127.087 178.866 126.863 178.562C126.647 178.25 126.515 177.89 126.467 177.482V175.718C126.515 175.302 126.651 174.942 126.875 174.638C127.099 174.326 127.383 174.086 127.727 173.918C128.079 173.75 128.463 173.666 128.879 173.666C129.399 173.666 129.867 173.798 130.283 174.062C130.699 174.318 131.027 174.67 131.267 175.118C131.515 175.558 131.639 176.058 131.639 176.618C131.639 177.17 131.519 177.666 131.279 178.106C131.039 178.546 130.707 178.898 130.283 179.162C129.867 179.418 129.399 179.546 128.879 179.546ZM125.963 181.802V173.786H126.803V175.226L126.635 176.594L126.803 177.974V181.802H125.963ZM128.735 178.742C129.135 178.742 129.487 178.654 129.791 178.478C130.095 178.294 130.331 178.042 130.499 177.722C130.675 177.394 130.763 177.022 130.763 176.606C130.763 176.182 130.675 175.81 130.499 175.49C130.331 175.17 130.095 174.918 129.791 174.734C129.487 174.55 129.139 174.458 128.747 174.458C128.355 174.458 128.007 174.55 127.703 174.734C127.407 174.918 127.175 175.17 127.007 175.49C126.839 175.81 126.755 176.182 126.755 176.606C126.755 177.022 126.839 177.394 127.007 177.722C127.175 178.042 127.407 178.294 127.703 178.478C127.999 178.654 128.343 178.742 128.735 178.742Z" fill="#8E8E8E"/>
<path d="M160.829 180.58C160.11 180.58 159.438 180.449 158.813 180.188C158.197 179.926 157.656 179.567 157.189 179.11C156.732 178.643 156.372 178.102 156.111 177.486C155.85 176.86 155.719 176.193 155.719 175.484C155.719 174.774 155.845 174.116 156.097 173.51C156.358 172.894 156.718 172.357 157.175 171.9C157.642 171.433 158.183 171.074 158.799 170.822C159.415 170.56 160.082 170.43 160.801 170.43C161.529 170.43 162.201 170.56 162.817 170.822C163.433 171.074 163.97 171.433 164.427 171.9C164.894 172.357 165.258 172.894 165.519 173.51C165.78 174.126 165.911 174.788 165.911 175.498C165.911 176.207 165.78 176.87 165.519 177.486C165.258 178.102 164.894 178.643 164.427 179.11C163.97 179.567 163.433 179.926 162.817 180.188C162.21 180.449 161.548 180.58 160.829 180.58ZM160.801 178.802C161.436 178.802 161.986 178.662 162.453 178.382C162.92 178.102 163.284 177.714 163.545 177.22C163.816 176.725 163.951 176.146 163.951 175.484C163.951 174.998 163.876 174.555 163.727 174.154C163.578 173.752 163.363 173.407 163.083 173.118C162.803 172.819 162.472 172.59 162.089 172.432C161.706 172.273 161.277 172.194 160.801 172.194C160.185 172.194 159.639 172.334 159.163 172.614C158.696 172.884 158.328 173.267 158.057 173.762C157.796 174.256 157.665 174.83 157.665 175.484C157.665 175.978 157.74 176.431 157.889 176.842C158.048 177.252 158.262 177.602 158.533 177.892C158.813 178.181 159.144 178.405 159.527 178.564C159.919 178.722 160.344 178.802 160.801 178.802ZM170.416 180.566C169.726 180.566 169.105 180.412 168.554 180.104C168.004 179.796 167.57 179.376 167.252 178.844C166.935 178.312 166.776 177.714 166.776 177.052C166.776 176.38 166.935 175.778 167.252 175.246C167.57 174.714 168.004 174.294 168.554 173.986C169.114 173.668 169.735 173.51 170.416 173.51C170.948 173.51 171.438 173.608 171.886 173.804C172.334 174 172.722 174.28 173.048 174.644L171.872 175.834C171.695 175.638 171.48 175.488 171.228 175.386C170.986 175.283 170.715 175.232 170.416 175.232C170.08 175.232 169.777 175.311 169.506 175.47C169.245 175.619 169.035 175.829 168.876 176.1C168.727 176.361 168.652 176.674 168.652 177.038C168.652 177.392 168.727 177.71 168.876 177.99C169.035 178.26 169.245 178.475 169.506 178.634C169.777 178.783 170.08 178.858 170.416 178.858C170.724 178.858 171 178.806 171.242 178.704C171.494 178.592 171.709 178.433 171.886 178.228L173.076 179.418C172.731 179.791 172.334 180.076 171.886 180.272C171.438 180.468 170.948 180.566 170.416 180.566ZM175 180.426V170.85H176.834V180.426H175ZM173.418 175.274V173.664H178.416V175.274H173.418Z" fill="#10524B"/>
<path d="M206.333 179.426V171.17H206.957L207.209 172.214V179.426H206.333ZM212.045 179.426L206.825 172.346L206.957 171.17L212.165 178.25L212.045 179.426ZM212.045 179.426L211.781 178.43V171.17H212.669V179.426H212.045ZM217.123 179.546C216.579 179.546 216.083 179.414 215.635 179.15C215.195 178.886 214.843 178.53 214.579 178.082C214.323 177.634 214.195 177.134 214.195 176.582C214.195 176.038 214.323 175.546 214.579 175.106C214.843 174.666 215.195 174.318 215.635 174.062C216.083 173.798 216.579 173.666 217.123 173.666C217.675 173.666 218.171 173.794 218.611 174.05C219.051 174.306 219.399 174.658 219.655 175.106C219.919 175.546 220.051 176.038 220.051 176.582C220.051 177.142 219.919 177.646 219.655 178.094C219.399 178.534 219.051 178.886 218.611 179.15C218.171 179.414 217.675 179.546 217.123 179.546ZM217.123 178.73C217.523 178.73 217.875 178.638 218.179 178.454C218.491 178.27 218.735 178.014 218.911 177.686C219.095 177.358 219.187 176.99 219.187 176.582C219.187 176.174 219.095 175.814 218.911 175.502C218.735 175.182 218.491 174.93 218.179 174.746C217.875 174.562 217.523 174.47 217.123 174.47C216.731 174.47 216.379 174.562 216.067 174.746C215.755 174.93 215.511 175.182 215.335 175.502C215.159 175.814 215.071 176.174 215.071 176.582C215.071 176.998 215.159 177.37 215.335 177.698C215.511 178.018 215.755 178.27 216.067 178.454C216.379 178.638 216.731 178.73 217.123 178.73ZM223.109 179.426L220.505 173.786H221.441L223.637 178.718H223.109L225.317 173.786H226.229L223.601 179.426H223.109Z" fill="#8E8E8E"/>
<path d="M255.059 179.426V178.61H257.483C258.131 178.61 258.703 178.47 259.199 178.19C259.695 177.902 260.083 177.51 260.363 177.014C260.643 176.51 260.783 175.934 260.783 175.286C260.783 174.638 260.643 174.066 260.363 173.57C260.083 173.074 259.695 172.686 259.199 172.406C258.703 172.118 258.131 171.974 257.483 171.974H255.083V171.17H257.507C258.107 171.17 258.659 171.274 259.163 171.482C259.675 171.682 260.119 171.97 260.495 172.346C260.879 172.714 261.175 173.15 261.383 173.654C261.591 174.15 261.695 174.698 261.695 175.298C261.695 175.882 261.591 176.426 261.383 176.93C261.175 177.434 260.883 177.874 260.507 178.25C260.131 178.618 259.687 178.906 259.175 179.114C258.671 179.322 258.123 179.426 257.531 179.426H255.059ZM254.519 179.426V171.17H255.395V179.426H254.519ZM263.186 179.426V173.786H264.038V179.426H263.186ZM263.606 172.562C263.446 172.562 263.31 172.506 263.198 172.394C263.086 172.274 263.03 172.134 263.03 171.974C263.03 171.806 263.086 171.666 263.198 171.554C263.31 171.442 263.446 171.386 263.606 171.386C263.782 171.386 263.922 171.442 264.026 171.554C264.138 171.666 264.194 171.806 264.194 171.974C264.194 172.134 264.138 172.274 264.026 172.394C263.922 172.506 263.782 172.562 263.606 172.562ZM268.308 179.546C267.756 179.546 267.256 179.418 266.808 179.162C266.368 178.898 266.016 178.542 265.752 178.094C265.496 177.646 265.368 177.146 265.368 176.594C265.368 176.042 265.496 175.546 265.752 175.106C266.016 174.658 266.368 174.306 266.808 174.05C267.256 173.794 267.756 173.666 268.308 173.666C268.732 173.666 269.128 173.746 269.496 173.906C269.864 174.066 270.176 174.29 270.432 174.578L269.88 175.142C269.688 174.926 269.456 174.762 269.184 174.65C268.912 174.53 268.62 174.47 268.308 174.47C267.908 174.47 267.552 174.562 267.24 174.746C266.928 174.93 266.684 175.182 266.508 175.502C266.332 175.814 266.244 176.178 266.244 176.594C266.244 177.002 266.332 177.37 266.508 177.698C266.684 178.018 266.928 178.27 267.24 178.454C267.552 178.638 267.908 178.73 268.308 178.73C268.628 178.73 268.924 178.674 269.196 178.562C269.468 178.442 269.7 178.274 269.892 178.058L270.456 178.622C270.192 178.918 269.872 179.146 269.496 179.306C269.128 179.466 268.732 179.546 268.308 179.546Z" fill="#8E8E8E"/>
<defs>
<linearGradient id="paint0_linear_906_10872" x1="63.9047" y1="-46.04" x2="103.362" y2="-45.2703" gradientUnits="userSpaceOnUse">
<stop stop-color="#9FE4DD"/>
<stop offset="1" stop-color="#2EC4B5"/>
</linearGradient>
<linearGradient id="paint1_linear_906_10872" x1="108.865" y1="-77.3454" x2="148.326" y2="-76.6762" gradientUnits="userSpaceOnUse">
<stop stop-color="#9FE4DD"/>
<stop offset="1" stop-color="#2EC4B5"/>
</linearGradient>
<linearGradient id="paint2_linear_906_10872" x1="178.595" y1="138.581" x2="155.536" y2="138.972" gradientUnits="userSpaceOnUse">
<stop stop-color="#134641"/>
<stop offset="1" stop-color="#07A999"/>
</linearGradient>
<linearGradient id="paint3_linear_906_10872" x1="174.05" y1="47.1092" x2="149.009" y2="16.405" gradientUnits="userSpaceOnUse">
<stop stop-color="#134641"/>
<stop offset="0.986069" stop-color="#07A999"/>
</linearGradient>
<linearGradient id="paint4_linear_906_10872" x1="172.976" y1="45.4415" x2="149.779" y2="17.7491" gradientUnits="userSpaceOnUse">
<stop stop-color="#134641"/>
<stop offset="0.986069" stop-color="#07A999"/>
</linearGradient>
<linearGradient id="paint5_linear_906_10872" x1="172.976" y1="45.4415" x2="149.779" y2="17.7491" gradientUnits="userSpaceOnUse">
<stop stop-color="#134641"/>
<stop offset="0.986069" stop-color="#07A999"/>
</linearGradient>
<linearGradient id="paint6_linear_906_10872" x1="201.802" y1="-87.2583" x2="241.817" y2="-86.5981" gradientUnits="userSpaceOnUse">
<stop stop-color="#9FE4DD"/>
<stop offset="1" stop-color="#2EC4B5"/>
</linearGradient>
<linearGradient id="paint7_linear_906_10872" x1="247.847" y1="-108.615" x2="287.864" y2="-108.006" gradientUnits="userSpaceOnUse">
<stop stop-color="#9FE4DD"/>
<stop offset="1" stop-color="#2EC4B5"/>
</linearGradient>
<linearGradient id="paint8_linear_906_10872" x1="18.6794" y1="41.4217" x2="58.659" y2="42.7828" gradientUnits="userSpaceOnUse">
<stop stop-color="#9FE4DD"/>
<stop offset="1" stop-color="#2EC4B5"/>
</linearGradient>
</defs>
</svg>
