<svg width="294" height="186" viewBox="0 0 294 186" fill="none" xmlns="http://www.w3.org/2000/svg">
<rect x="108.786" y="69.8096" width="23.8743" height="82.6164" rx="6.1208" fill="url(#paint0_linear_906_10871)"/>
<rect x="153.747" y="57.3916" width="23.8743" height="95.0349" rx="6.1208" fill="url(#paint1_linear_906_10871)"/>
<rect x="198.023" y="32.2471" width="23.8743" height="120.179" rx="6.1208" fill="url(#paint2_linear_906_10871)"/>
<path d="M125.481 48.0003C124.068 46.5548 122.188 45.6117 120.142 45.3114C120.233 44.0541 120.29 40.884 118.889 38.3425C118.167 37.0329 117.14 36.5332 116.406 36.345C115.693 36.1621 115.123 36.2299 114.975 36.253C114.853 36.2634 114.409 36.3103 113.964 36.4689C113.881 36.3838 113.797 36.3015 113.712 36.2222C112.685 35.2698 111.489 34.799 110.345 34.8964C108.883 35.0211 107.24 36.179 107.009 39.0558C106.9 40.4205 107.099 41.7867 107.598 43.1171C107.994 44.1719 108.58 45.2048 109.338 46.1872C110.168 47.262 111.017 48.0358 111.529 48.4596C110.24 49.979 109.536 51.8603 109.536 53.8178C109.536 56.1249 110.496 58.2918 112.238 59.9194C113.97 61.5366 116.27 62.4274 118.714 62.4274C121.159 62.4274 123.459 61.5366 125.191 59.9194C126.933 58.2918 127.893 56.1249 127.893 53.8178C127.893 51.6571 127.036 49.591 125.481 48.0003ZM118.714 61.3495C114.245 61.3495 110.609 57.9708 110.609 53.8178C110.609 51.9477 111.353 50.1542 112.701 48.7679L113.144 48.3129L112.625 47.9491C112.613 47.9407 111.372 47.0633 110.186 45.527C108.613 43.4879 107.903 41.3398 108.079 39.1421C108.229 37.2689 109.11 36.0836 110.435 35.9704C110.502 35.965 110.568 35.9619 110.636 35.9619C112.248 35.9619 114.224 37.5687 115.035 40.7716L115.04 40.787C115.049 40.8193 115.96 44.0472 116.131 46.9837L116.163 47.5218L117.235 47.4583L117.203 46.9205C117.026 43.9063 116.136 40.72 116.074 40.4983C115.771 39.3068 115.306 38.252 114.706 37.3809C114.915 37.3385 115.076 37.3258 115.078 37.3258L115.103 37.3247L115.133 37.3193C115.206 37.3066 116.942 37.036 117.95 38.8645C119.528 41.7259 119.031 45.6744 119.026 45.7137L118.951 46.2711L119.509 46.3215C123.677 46.6984 126.82 49.9209 126.82 53.8178C126.82 57.9708 123.184 61.3495 118.714 61.3495Z" fill="url(#paint3_linear_906_10871)"/>
<path d="M119.51 46.3215L118.951 46.2711L119.026 45.7137C119.031 45.6744 119.528 41.7259 117.95 38.8645C116.942 37.0359 115.206 37.3066 115.133 37.3193L115.103 37.3247L115.078 37.3258C115.076 37.3258 114.916 37.3385 114.706 37.3809C115.306 38.252 115.771 39.3068 116.074 40.4983C116.136 40.72 117.026 43.9063 117.203 46.9205L117.235 47.4583L116.163 47.5218L116.131 46.9836C115.96 44.0472 115.049 40.8193 115.04 40.787L115.035 40.7716C114.224 37.5687 112.248 35.9619 110.636 35.9619C110.568 35.9619 110.502 35.965 110.435 35.9704C109.11 36.0836 108.229 37.2688 108.079 39.1421C107.904 41.3398 108.613 43.4878 110.186 45.527C111.372 47.0633 112.613 47.9407 112.625 47.9491L113.144 48.3129L112.701 48.7679C111.353 50.1542 110.609 51.9477 110.609 53.8178C110.609 57.9707 114.245 61.3495 118.715 61.3495C123.184 61.3495 126.82 57.9707 126.82 53.8178C126.82 49.9209 123.677 46.6984 119.51 46.3215ZM118.538 56.3374C117.079 56.3374 115.891 55.1451 115.891 53.6796C115.891 52.2141 117.079 51.0219 118.538 51.0219C119.997 51.0219 121.184 52.2141 121.184 53.6796C121.184 55.1451 119.997 56.3374 118.538 56.3374Z" fill="url(#paint4_linear_906_10871)"/>
<path d="M119.51 46.3215L118.951 46.2711L119.026 45.7137C119.031 45.6744 119.528 41.7259 117.95 38.8645C116.942 37.0359 115.206 37.3066 115.133 37.3193L115.103 37.3247L115.078 37.3258C115.076 37.3258 114.916 37.3385 114.706 37.3809C115.306 38.252 115.771 39.3068 116.074 40.4983C116.136 40.72 117.026 43.9063 117.203 46.9205L117.235 47.4583L116.163 47.5218L116.131 46.9836C115.96 44.0472 115.049 40.8193 115.04 40.787L115.035 40.7716C114.224 37.5687 112.248 35.9619 110.636 35.9619C110.568 35.9619 110.502 35.965 110.435 35.9704C109.11 36.0836 108.229 37.2688 108.079 39.1421C107.904 41.3398 108.613 43.4878 110.186 45.527C111.372 47.0633 112.613 47.9407 112.625 47.9491L113.144 48.3129L112.701 48.7679C111.353 50.1542 110.609 51.9477 110.609 53.8178C110.609 57.9707 114.245 61.3495 118.715 61.3495C123.184 61.3495 126.82 57.9707 126.82 53.8178C126.82 49.9209 123.677 46.6984 119.51 46.3215ZM118.538 57.4152C116.487 57.4152 114.818 55.7395 114.818 53.6796C114.818 51.6197 116.487 49.944 118.538 49.944C120.589 49.944 122.258 51.6197 122.258 53.6796C122.258 55.7395 120.589 57.4152 118.538 57.4152Z" fill="url(#paint5_linear_906_10871)"/>
<path d="M115.221 46.0148C115.221 46.0148 114.648 42.5368 113.661 40.1164C112.828 38.0755 111.972 38.2376 111.911 39.0344C111.783 40.7023 113.961 42.1547 115.222 46.0148H115.221Z" fill="#10524B"/>
<rect x="246.706" y="53.5781" width="24.2089" height="99.0453" rx="6.1208" fill="url(#paint6_linear_906_10871)"/>
<rect x="63.583" y="104.623" width="24.2089" height="48.0002" rx="6.1208" fill="url(#paint7_linear_906_10871)"/>
<rect x="23.0225" y="90.4814" width="24.2089" height="62.1418" rx="6.1208" fill="url(#paint8_linear_906_10871)"/>
<path d="M27.4159 181.123V172.867H28.2919V181.123H27.4159ZM27.9919 181.123V180.319H32.8519V181.123H27.9919ZM27.9919 177.283V176.503H32.4679V177.283H27.9919ZM27.9919 173.671V172.867H32.7799V173.671H27.9919ZM38.3823 181.123V177.811C38.3823 177.315 38.2343 176.915 37.9383 176.611C37.6503 176.299 37.2663 176.143 36.7863 176.143C36.4583 176.143 36.1703 176.215 35.9223 176.359C35.6743 176.503 35.4783 176.699 35.3343 176.947C35.1903 177.195 35.1183 177.479 35.1183 177.799L34.7343 177.583C34.7343 177.159 34.8343 176.779 35.0343 176.443C35.2343 176.107 35.5023 175.843 35.8383 175.651C36.1823 175.459 36.5743 175.363 37.0143 175.363C37.4463 175.363 37.8303 175.467 38.1663 175.675C38.5023 175.883 38.7623 176.163 38.9463 176.515C39.1383 176.867 39.2343 177.251 39.2343 177.667V181.123H38.3823ZM34.2783 181.123V175.483H35.1183V181.123H34.2783ZM43.4096 181.243C42.8416 181.243 42.3336 181.115 41.8856 180.859C41.4376 180.603 41.0816 180.251 40.8176 179.803C40.5616 179.355 40.4336 178.851 40.4336 178.291C40.4336 177.739 40.5616 177.243 40.8176 176.803C41.0736 176.355 41.4216 176.003 41.8616 175.747C42.3016 175.491 42.7936 175.363 43.3376 175.363C43.8496 175.363 44.3016 175.479 44.6936 175.711C45.0936 175.943 45.4056 176.267 45.6296 176.683C45.8616 177.091 45.9776 177.563 45.9776 178.099C45.9776 178.163 45.9736 178.239 45.9656 178.327C45.9576 178.407 45.9416 178.503 45.9176 178.615H41.0336V177.895H45.4616L45.1616 178.159C45.1696 177.743 45.0976 177.387 44.9456 177.091C44.8016 176.787 44.5896 176.555 44.3096 176.395C44.0376 176.227 43.7056 176.143 43.3136 176.143C42.9056 176.143 42.5496 176.231 42.2456 176.407C41.9416 176.583 41.7016 176.831 41.5256 177.151C41.3576 177.463 41.2736 177.835 41.2736 178.267C41.2736 178.699 41.3616 179.079 41.5376 179.407C41.7216 179.735 41.9736 179.991 42.2936 180.175C42.6216 180.359 42.9976 180.451 43.4216 180.451C43.7656 180.451 44.0816 180.391 44.3696 180.271C44.6576 180.143 44.9016 179.955 45.1016 179.707L45.6416 180.259C45.3776 180.571 45.0496 180.815 44.6576 180.991C44.2736 181.159 43.8576 181.243 43.4096 181.243Z" fill="#8E8E8E"/>
<path d="M68.2608 181.123V172.867H69.1368V181.123H68.2608ZM68.8368 177.391V176.587H73.2648V177.391H68.8368ZM68.8368 173.671V172.867H73.4688V173.671H68.8368ZM77.2116 181.243C76.6436 181.243 76.1356 181.115 75.6876 180.859C75.2396 180.603 74.8836 180.251 74.6196 179.803C74.3636 179.355 74.2356 178.851 74.2356 178.291C74.2356 177.739 74.3636 177.243 74.6196 176.803C74.8756 176.355 75.2236 176.003 75.6636 175.747C76.1036 175.491 76.5956 175.363 77.1396 175.363C77.6516 175.363 78.1036 175.479 78.4956 175.711C78.8956 175.943 79.2076 176.267 79.4316 176.683C79.6636 177.091 79.7796 177.563 79.7796 178.099C79.7796 178.163 79.7756 178.239 79.7676 178.327C79.7596 178.407 79.7436 178.503 79.7196 178.615H74.8356V177.895H79.2636L78.9636 178.159C78.9716 177.743 78.8996 177.387 78.7476 177.091C78.6036 176.787 78.3916 176.555 78.1116 176.395C77.8396 176.227 77.5076 176.143 77.1156 176.143C76.7076 176.143 76.3516 176.231 76.0476 176.407C75.7436 176.583 75.5036 176.831 75.3276 177.151C75.1596 177.463 75.0756 177.835 75.0756 178.267C75.0756 178.699 75.1636 179.079 75.3396 179.407C75.5236 179.735 75.7756 179.991 76.0956 180.175C76.4236 180.359 76.7996 180.451 77.2236 180.451C77.5676 180.451 77.8836 180.391 78.1716 180.271C78.4596 180.143 78.7036 179.955 78.9036 179.707L79.4436 180.259C79.1796 180.571 78.8516 180.815 78.4596 180.991C78.0756 181.159 77.6596 181.243 77.2116 181.243ZM83.9806 181.243C83.5486 181.243 83.1606 181.155 82.8166 180.979C82.4726 180.803 82.1886 180.563 81.9646 180.259C81.7486 179.947 81.6166 179.587 81.5686 179.179V177.415C81.6166 176.999 81.7526 176.639 81.9766 176.335C82.2006 176.023 82.4846 175.783 82.8286 175.615C83.1806 175.447 83.5646 175.363 83.9806 175.363C84.5006 175.363 84.9686 175.495 85.3846 175.759C85.8006 176.015 86.1286 176.367 86.3686 176.815C86.6166 177.255 86.7406 177.755 86.7406 178.315C86.7406 178.867 86.6206 179.363 86.3806 179.803C86.1406 180.243 85.8086 180.595 85.3846 180.859C84.9686 181.115 84.5006 181.243 83.9806 181.243ZM81.0646 181.123V172.627H81.9046V176.863L81.7366 178.219L81.9046 179.611V181.123H81.0646ZM83.8366 180.439C84.2366 180.439 84.5886 180.351 84.8926 180.175C85.1966 179.991 85.4326 179.739 85.6006 179.419C85.7766 179.091 85.8646 178.719 85.8646 178.303C85.8646 177.879 85.7766 177.507 85.6006 177.187C85.4326 176.867 85.1966 176.615 84.8926 176.431C84.5886 176.247 84.2406 176.155 83.8486 176.155C83.4566 176.155 83.1086 176.247 82.8046 176.431C82.5086 176.615 82.2766 176.867 82.1086 177.187C81.9406 177.507 81.8566 177.879 81.8566 178.303C81.8566 178.719 81.9406 179.091 82.1086 179.419C82.2766 179.739 82.5086 179.991 82.8046 180.175C83.1006 180.351 83.4446 180.439 83.8366 180.439Z" fill="#8E8E8E"/>
<path d="M109.962 181.623V171.781H111.306L115.296 178.165H114.526L118.502 171.781H119.846V181.623H117.956V175.043L118.32 175.155L115.548 179.607H114.26L111.488 175.155L111.866 175.043V181.623H109.962ZM124.489 181.763C123.873 181.763 123.318 181.609 122.823 181.301C122.328 180.993 121.941 180.573 121.661 180.041C121.381 179.509 121.241 178.912 121.241 178.249C121.241 177.577 121.381 176.975 121.661 176.443C121.941 175.911 122.328 175.491 122.823 175.183C123.318 174.875 123.873 174.721 124.489 174.721C124.974 174.721 125.408 174.819 125.791 175.015C126.174 175.211 126.477 175.486 126.701 175.841C126.934 176.186 127.06 176.578 127.079 177.017V179.453C127.06 179.901 126.934 180.298 126.701 180.643C126.477 180.988 126.174 181.264 125.791 181.469C125.408 181.665 124.974 181.763 124.489 181.763ZM124.825 180.069C125.338 180.069 125.754 179.901 126.071 179.565C126.388 179.22 126.547 178.776 126.547 178.235C126.547 177.88 126.472 177.568 126.323 177.297C126.183 177.017 125.982 176.802 125.721 176.653C125.469 176.494 125.17 176.415 124.825 176.415C124.489 176.415 124.19 176.494 123.929 176.653C123.677 176.802 123.476 177.017 123.327 177.297C123.187 177.568 123.117 177.88 123.117 178.235C123.117 178.599 123.187 178.921 123.327 179.201C123.476 179.472 123.677 179.686 123.929 179.845C124.19 179.994 124.489 180.069 124.825 180.069ZM126.449 181.623V179.803L126.743 178.151L126.449 176.527V174.861H128.269V181.623H126.449ZM129.891 181.623V174.861H131.725V181.623H129.891ZM131.725 177.885L131.011 177.409C131.095 176.578 131.338 175.925 131.739 175.449C132.141 174.964 132.719 174.721 133.475 174.721C133.802 174.721 134.096 174.777 134.357 174.889C134.619 174.992 134.857 175.164 135.071 175.407L133.923 176.723C133.821 176.611 133.695 176.527 133.545 176.471C133.405 176.415 133.242 176.387 133.055 176.387C132.663 176.387 132.341 176.513 132.089 176.765C131.847 177.008 131.725 177.381 131.725 177.885Z" fill="#10524B"/>
<path d="M156.193 181.123L159.577 172.867H160.237L163.585 181.123H162.637L159.721 173.827H160.069L157.129 181.123H156.193ZM157.741 178.975V178.195H162.061V178.975H157.741ZM167.802 181.243C167.37 181.243 166.982 181.155 166.638 180.979C166.294 180.803 166.01 180.563 165.786 180.259C165.57 179.947 165.438 179.587 165.39 179.179V177.415C165.438 176.999 165.574 176.639 165.798 176.335C166.022 176.023 166.306 175.783 166.65 175.615C167.002 175.447 167.386 175.363 167.802 175.363C168.322 175.363 168.79 175.495 169.206 175.759C169.622 176.015 169.95 176.367 170.19 176.815C170.438 177.255 170.562 177.755 170.562 178.315C170.562 178.867 170.442 179.363 170.202 179.803C169.962 180.243 169.63 180.595 169.206 180.859C168.79 181.115 168.322 181.243 167.802 181.243ZM164.886 181.123V172.627H165.726V176.863L165.558 178.219L165.726 179.611V181.123H164.886ZM167.658 180.439C168.058 180.439 168.41 180.351 168.714 180.175C169.018 179.991 169.254 179.739 169.422 179.419C169.598 179.091 169.686 178.719 169.686 178.303C169.686 177.879 169.598 177.507 169.422 177.187C169.254 176.867 169.018 176.615 168.714 176.431C168.41 176.247 168.062 176.155 167.67 176.155C167.278 176.155 166.93 176.247 166.626 176.431C166.33 176.615 166.098 176.867 165.93 177.187C165.762 177.507 165.678 177.879 165.678 178.303C165.678 178.719 165.762 179.091 165.93 179.419C166.098 179.739 166.33 179.991 166.626 180.175C166.922 180.351 167.266 180.439 167.658 180.439ZM171.905 181.123V175.483H172.745V181.123H171.905ZM172.745 177.835L172.397 177.679C172.397 176.967 172.569 176.403 172.913 175.987C173.265 175.571 173.745 175.363 174.353 175.363C174.633 175.363 174.889 175.415 175.121 175.519C175.353 175.615 175.569 175.771 175.769 175.987L175.217 176.575C175.081 176.423 174.929 176.315 174.761 176.251C174.601 176.187 174.417 176.155 174.209 176.155C173.777 176.155 173.425 176.299 173.153 176.587C172.881 176.867 172.745 177.283 172.745 177.835Z" fill="#8E8E8E"/>
<path d="M200.691 181.123V172.867H201.315L204.879 178.711H204.435L207.999 172.867H208.623V181.123H207.735V174.403L207.939 174.451L204.963 179.335H204.339L201.363 174.451L201.567 174.403V181.123H200.691ZM212.966 181.243C212.43 181.243 211.95 181.115 211.526 180.859C211.102 180.595 210.766 180.243 210.518 179.803C210.278 179.363 210.158 178.867 210.158 178.315C210.158 177.755 210.278 177.255 210.518 176.815C210.766 176.367 211.102 176.015 211.526 175.759C211.95 175.495 212.426 175.363 212.954 175.363C213.386 175.363 213.77 175.451 214.106 175.627C214.45 175.795 214.726 176.035 214.934 176.347C215.15 176.651 215.282 177.007 215.33 177.415V179.179C215.282 179.587 215.15 179.947 214.934 180.259C214.726 180.571 214.45 180.815 214.106 180.991C213.77 181.159 213.39 181.243 212.966 181.243ZM213.098 180.439C213.682 180.439 214.15 180.243 214.502 179.851C214.862 179.459 215.042 178.943 215.042 178.303C215.042 177.879 214.958 177.507 214.79 177.187C214.63 176.859 214.402 176.607 214.106 176.431C213.818 176.247 213.478 176.155 213.086 176.155C212.686 176.155 212.33 176.247 212.018 176.431C211.714 176.615 211.47 176.871 211.286 177.199C211.11 177.519 211.022 177.887 211.022 178.303C211.022 178.719 211.11 179.087 211.286 179.407C211.47 179.727 211.718 179.979 212.03 180.163C212.342 180.347 212.698 180.439 213.098 180.439ZM214.994 181.123V179.611L215.162 178.219L214.994 176.863V175.483H215.834V181.123H214.994ZM219.421 181.147L216.949 175.483H217.873L219.865 180.211H219.517L221.617 175.483H222.553L219.901 181.147H219.421ZM217.885 183.499L219.433 180.295L219.901 181.147L218.809 183.499H217.885Z" fill="#8E8E8E"/>
<path d="M251.774 181.243C251.31 181.243 250.902 181.155 250.55 180.979C250.206 180.795 249.91 180.547 249.662 180.235L250.286 179.659C250.462 179.899 250.67 180.083 250.91 180.211C251.15 180.331 251.43 180.391 251.75 180.391C252.038 180.391 252.302 180.331 252.542 180.211C252.782 180.083 252.974 179.887 253.118 179.623C253.262 179.359 253.334 179.027 253.334 178.627V172.867H254.222V178.615C254.222 179.167 254.11 179.639 253.886 180.031C253.67 180.423 253.374 180.723 252.998 180.931C252.63 181.139 252.222 181.243 251.774 181.243ZM258.255 181.243C257.799 181.243 257.391 181.139 257.031 180.931C256.671 180.715 256.387 180.423 256.179 180.055C255.979 179.687 255.879 179.255 255.879 178.759V175.483H256.731V178.723C256.731 179.067 256.791 179.367 256.911 179.623C257.039 179.879 257.219 180.079 257.451 180.223C257.683 180.367 257.951 180.439 258.255 180.439C258.727 180.439 259.099 180.283 259.371 179.971C259.651 179.659 259.791 179.243 259.791 178.723V175.483H260.631V178.759C260.631 179.247 260.531 179.679 260.331 180.055C260.131 180.431 259.851 180.723 259.491 180.931C259.131 181.139 258.719 181.243 258.255 181.243ZM266.303 181.123V177.811C266.303 177.315 266.155 176.915 265.859 176.611C265.571 176.299 265.187 176.143 264.707 176.143C264.379 176.143 264.091 176.215 263.843 176.359C263.595 176.503 263.399 176.699 263.255 176.947C263.111 177.195 263.039 177.479 263.039 177.799L262.655 177.583C262.655 177.159 262.755 176.779 262.955 176.443C263.155 176.107 263.423 175.843 263.759 175.651C264.103 175.459 264.495 175.363 264.935 175.363C265.367 175.363 265.751 175.467 266.087 175.675C266.423 175.883 266.683 176.163 266.867 176.515C267.059 176.867 267.155 177.251 267.155 177.667V181.123H266.303ZM262.199 181.123V175.483H263.039V181.123H262.199Z" fill="#8E8E8E"/>
<defs>
<linearGradient id="paint0_linear_906_10871" x1="132.661" y1="115.534" x2="115.478" y2="116.116" gradientUnits="userSpaceOnUse">
<stop stop-color="#134641"/>
<stop offset="0.986069" stop-color="#07A999"/>
</linearGradient>
<linearGradient id="paint1_linear_906_10871" x1="152.168" y1="-87.1481" x2="191.629" y2="-86.4789" gradientUnits="userSpaceOnUse">
<stop stop-color="#9FE4DD"/>
<stop offset="1" stop-color="#2EC4B5"/>
</linearGradient>
<linearGradient id="paint2_linear_906_10871" x1="196.444" y1="-150.535" x2="235.91" y2="-150.006" gradientUnits="userSpaceOnUse">
<stop stop-color="#9FE4DD"/>
<stop offset="1" stop-color="#2EC4B5"/>
</linearGradient>
<linearGradient id="paint3_linear_906_10871" x1="127.893" y1="69.95" x2="102.852" y2="39.2458" gradientUnits="userSpaceOnUse">
<stop stop-color="#134641"/>
<stop offset="0.986069" stop-color="#07A999"/>
</linearGradient>
<linearGradient id="paint4_linear_906_10871" x1="126.82" y1="68.2833" x2="103.623" y2="40.5909" gradientUnits="userSpaceOnUse">
<stop stop-color="#134641"/>
<stop offset="0.986069" stop-color="#07A999"/>
</linearGradient>
<linearGradient id="paint5_linear_906_10871" x1="126.82" y1="68.2833" x2="103.623" y2="40.5909" gradientUnits="userSpaceOnUse">
<stop stop-color="#134641"/>
<stop offset="0.986069" stop-color="#07A999"/>
</linearGradient>
<linearGradient id="paint6_linear_906_10871" x1="245.105" y1="-97.0611" x2="285.12" y2="-96.4008" gradientUnits="userSpaceOnUse">
<stop stop-color="#9FE4DD"/>
<stop offset="1" stop-color="#2EC4B5"/>
</linearGradient>
<linearGradient id="paint7_linear_906_10871" x1="61.9819" y1="31.6189" x2="101.962" y2="32.9801" gradientUnits="userSpaceOnUse">
<stop stop-color="#9FE4DD"/>
<stop offset="1" stop-color="#2EC4B5"/>
</linearGradient>
<linearGradient id="paint8_linear_906_10871" x1="21.4213" y1="-4.0308" x2="61.4196" y2="-2.97894" gradientUnits="userSpaceOnUse">
<stop stop-color="#9FE4DD"/>
<stop offset="1" stop-color="#2EC4B5"/>
</linearGradient>
</defs>
</svg>
