<svg width="45" height="45" viewBox="0 0 45 45" fill="none" xmlns="http://www.w3.org/2000/svg">
<circle cx="22.3281" cy="22.7925" r="22" fill="#E1F5F3"/>
<path opacity="0.4" d="M29.6681 25.2825L28.6681 23.6225C28.4581 23.2525 28.2681 22.5525 28.2681 22.1425V19.6125C28.2681 16.3525 25.6181 13.6925 22.3481 13.6925C19.0781 13.6925 16.4281 16.3525 16.4281 19.6125V22.1425C16.4281 22.5525 16.2381 23.2525 16.0281 23.6125L15.0181 25.2825C14.6181 25.9525 14.5281 26.6925 14.7781 27.3725C15.0181 28.0425 15.5881 28.5625 16.3281 28.8125C18.2681 29.4725 20.3081 29.7925 22.3481 29.7925C24.3881 29.7925 26.4281 29.4725 28.3681 28.8225C29.0681 28.5925 29.6081 28.0625 29.8681 27.3725C30.1281 26.6825 30.0581 25.9225 29.6681 25.2825Z" fill="#2EC4B6"/>
<path d="M24.5782 14.1125C23.8882 13.8425 23.1382 13.6925 22.3482 13.6925C21.5682 13.6925 20.8182 13.8325 20.1282 14.1125C20.5582 13.3025 21.4082 12.7925 22.3482 12.7925C23.2982 12.7925 24.1382 13.3025 24.5782 14.1125Z" fill="#2EC4B6"/>
<path d="M25.1581 30.8025C24.7381 31.9625 23.6281 32.7925 22.3281 32.7925C21.5381 32.7925 20.7581 32.4725 20.2081 31.9025C19.8881 31.6025 19.6481 31.2025 19.5081 30.7925C19.6381 30.8125 19.7681 30.8225 19.9081 30.8425C20.1381 30.8725 20.3781 30.9025 20.6181 30.9225C21.1881 30.9725 21.7681 31.0025 22.3481 31.0025C22.9181 31.0025 23.4881 30.9725 24.0481 30.9225C24.2581 30.9025 24.4681 30.8925 24.6681 30.8625C24.8281 30.8425 24.9881 30.8225 25.1581 30.8025Z" fill="#2EC4B6"/>
<circle cx="30.0222" cy="16.2141" r="5.52832" fill="#C63232"/>
</svg>
