<svg width="44" height="44" viewBox="0 0 44 44" fill="none" xmlns="http://www.w3.org/2000/svg">
<circle cx="22" cy="22" r="22" fill="#E1F5F3"/>
<path opacity="0.4" d="M29.3399 24.4904L28.3399 22.8304C28.1299 22.4604 27.9399 21.7604 27.9399 21.3504V18.8204C27.9399 15.5604 25.2899 12.9004 22.0199 12.9004C18.7499 12.9004 16.0999 15.5604 16.0999 18.8204V21.3504C16.0999 21.7604 15.9099 22.4604 15.6999 22.8204L14.6899 24.4904C14.2899 25.1604 14.1999 25.9004 14.4499 26.5804C14.6899 27.2504 15.2599 27.7704 15.9999 28.0204C17.9399 28.6804 19.9799 29.0004 22.0199 29.0004C24.0599 29.0004 26.0999 28.6804 28.0399 28.0304C28.7399 27.8004 29.2799 27.2704 29.5399 26.5804C29.7999 25.8904 29.7299 25.1304 29.3399 24.4904Z" fill="#2EC4B6"/>
<path d="M24.25 13.32C23.56 13.05 22.81 12.9 22.02 12.9C21.24 12.9 20.49 13.04 19.8 13.32C20.23 12.51 21.08 12 22.02 12C22.97 12 23.81 12.51 24.25 13.32Z" fill="#2EC4B6"/>
<path d="M24.8299 30.01C24.4099 31.17 23.2999 32 21.9999 32C21.2099 32 20.4299 31.68 19.8799 31.11C19.5599 30.81 19.3199 30.41 19.1799 30C19.3099 30.02 19.4399 30.03 19.5799 30.05C19.8099 30.08 20.0499 30.11 20.2899 30.13C20.8599 30.18 21.4399 30.21 22.0199 30.21C22.5899 30.21 23.1599 30.18 23.7199 30.13C23.9299 30.11 24.1399 30.1 24.3399 30.07C24.4999 30.05 24.6599 30.03 24.8299 30.01Z" fill="#2EC4B6"/>
</svg>
