<svg width="81" height="81" viewBox="0 0 81 81" fill="none" xmlns="http://www.w3.org/2000/svg">
<circle cx="40.2886" cy="40.6239" r="40" fill="#2EC4B6"/>
<path d="M55.2079 59.1779H25.7342C19.4185 59.1779 19.4185 56.3358 19.4185 52.8621V50.7569C19.4185 49.599 20.3658 48.6516 21.5237 48.6516H59.4185C60.5764 48.6516 61.5237 49.599 61.5237 50.7569V52.8621C61.5237 56.3358 61.5237 59.1779 55.2079 59.1779Z" stroke="#FCFCFC" stroke-width="3" stroke-linecap="round" stroke-linejoin="round"/>
<path d="M58.8921 40.2307V48.6517H22.1553V40.2307C22.1553 32.1464 27.8605 25.3885 35.4605 23.7675C36.5974 23.5149 37.7763 23.3885 38.9974 23.3885H42.05C43.2711 23.3885 44.4711 23.5149 45.6079 23.7675C53.2079 25.4096 58.8921 32.1464 58.8921 40.2307Z" stroke="#FCFCFC" stroke-width="3" stroke-linecap="round" stroke-linejoin="round"/>
<path d="M45.7973 22.3359C45.7973 22.8412 45.7342 23.3043 45.6078 23.7675C44.471 23.5149 43.271 23.3885 42.0499 23.3885H38.9973C37.7763 23.3885 36.5973 23.5149 35.4605 23.7675C35.3342 23.3043 35.271 22.8412 35.271 22.3359C35.271 19.4306 37.6289 17.0728 40.5342 17.0728C43.4394 17.0728 45.7973 19.4306 45.7973 22.3359Z" stroke="#FCFCFC" stroke-width="3" stroke-linecap="round" stroke-linejoin="round"/>
<path d="M46.8498 36.02H34.2183" stroke="#FCFCFC" stroke-width="3" stroke-linecap="round" stroke-linejoin="round"/>
</svg>
