<svg width="81" height="80" viewBox="0 0 81 80" fill="none" xmlns="http://www.w3.org/2000/svg">
<circle cx="40.1719" cy="40" r="40" fill="#2EC4B6"/>
<path d="M47.5612 20.6947H32.7822C27.5401 20.6947 26.3822 23.3052 25.7085 26.5052L23.3296 37.8947H57.0138L54.6349 26.5052C53.9612 23.3052 52.8033 20.6947 47.5612 20.6947Z" stroke="#FCFCFC" stroke-width="3" stroke-linecap="round" stroke-linejoin="round"/>
<path d="M61.2037 56.4631C61.4353 58.9262 59.4563 61.0525 56.93 61.0525H52.9721C50.6984 61.0525 50.3826 60.0841 49.9826 58.8841L49.5616 57.621C48.9721 55.8947 48.5931 54.7368 45.5616 54.7368H34.7826C31.751 54.7368 31.3089 56.042 30.7826 57.621L30.3616 58.8841C29.9616 60.0841 29.6458 61.0525 27.3721 61.0525H23.4142C20.8879 61.0525 18.9089 58.9262 19.1405 56.4631L20.3195 43.642C20.6142 40.4841 21.2247 37.8947 26.7405 37.8947H53.6037C59.1195 37.8947 59.73 40.4841 60.0247 43.642L61.2037 56.4631Z" stroke="#FCFCFC" stroke-width="3" stroke-linecap="round" stroke-linejoin="round"/>
<path d="M23.3299 31.579H21.2246" stroke="#FCFCFC" stroke-width="3" stroke-linecap="round" stroke-linejoin="round"/>
<path d="M59.1194 31.579H57.0142" stroke="#FCFCFC" stroke-width="3" stroke-linecap="round" stroke-linejoin="round"/>
<path d="M40.1719 21.0526V25.2631" stroke="#FCFCFC" stroke-width="3" stroke-linecap="round" stroke-linejoin="round"/>
<path d="M37.0142 25.2632H43.3299" stroke="#FCFCFC" stroke-width="3" stroke-linecap="round" stroke-linejoin="round"/>
<path d="M27.54 46.3158H33.8558" stroke="#FCFCFC" stroke-width="3" stroke-linecap="round" stroke-linejoin="round"/>
<path d="M46.4878 46.3158H52.8036" stroke="#FCFCFC" stroke-width="3" stroke-linecap="round" stroke-linejoin="round"/>
</svg>
