<svg width="224" height="228" viewBox="0 0 224 228" fill="none" xmlns="http://www.w3.org/2000/svg">
<circle cx="112" cy="113.079" r="110.447" stroke="url(#paint0_linear_217_1529)" stroke-width="3" stroke-dasharray="3 6"/>
<path d="M188.782 147.015L190.757 151.583C191.426 153.131 192.68 154.353 194.246 154.983L199.025 156.906L194.284 158.814C192.696 159.453 191.43 160.701 190.768 162.28L188.782 167.015L186.761 162.195C186.121 160.666 184.913 159.446 183.391 158.79L179.025 156.906L183.429 155.007C184.928 154.36 186.124 153.166 186.771 151.667L188.782 147.015Z" fill="#2EC4B6"/>
<path d="M22.5666 120.479L24.5411 125.046C25.2107 126.595 26.4644 127.817 28.0298 128.447L32.8096 130.37L28.0683 132.278C26.4801 132.917 25.2137 134.165 24.5518 135.744L22.5666 140.479L20.5456 135.659C19.9049 134.13 18.6969 132.91 17.1754 132.254L12.8096 130.37L17.213 128.471C18.7121 127.824 19.9078 126.63 20.5556 125.131L22.5666 120.479Z" fill="#2EC4B6"/>
<path d="M139.778 13.7034L141.791 18.3595C142.436 19.8515 143.644 21.0288 145.152 21.6355L150.021 23.5947L145.189 25.5389C143.659 26.1545 142.439 27.3568 141.801 28.8777L139.778 33.7034L137.72 28.7955C137.103 27.3234 135.94 26.1477 134.474 25.5154L130.021 23.5947L134.51 21.6583C135.954 21.0353 137.106 19.8845 137.73 18.4409L139.778 13.7034Z" fill="#2EC4B6"/>
<circle cx="28.6407" cy="26.6476" r="26.1476" fill="#2EC4B6"/>
<path d="M33.4669 14.0388H23.8144C20.3906 14.0388 19.6344 15.7438 19.1944 17.8338L17.6406 25.2726H39.6406L38.0869 17.8338C37.6469 15.7438 36.8906 14.0388 33.4669 14.0388Z" stroke="#FCFCFC" stroke-width="2" stroke-linecap="round" stroke-linejoin="round"/>
<path d="M42.3766 37.4001C42.5279 39.0088 41.2354 40.3976 39.5854 40.3976H37.0004C35.5154 40.3976 35.3091 39.7651 35.0479 38.9813L34.7729 38.1563C34.3879 37.0288 34.1404 36.2726 32.1604 36.2726H25.1204C23.1404 36.2726 22.8516 37.1251 22.5079 38.1563L22.2329 38.9813C21.9716 39.7651 21.7654 40.3976 20.2804 40.3976H17.6954C16.0454 40.3976 14.7529 39.0088 14.9041 37.4001L15.6741 29.0263C15.8666 26.9638 16.2654 25.2726 19.8679 25.2726H37.4129C41.0154 25.2726 41.4141 26.9638 41.6066 29.0263L42.3766 37.4001Z" stroke="#FCFCFC" stroke-width="2" stroke-linecap="round" stroke-linejoin="round"/>
<path d="M17.6406 21.1476H16.2656" stroke="#FCFCFC" stroke-width="2" stroke-linecap="round" stroke-linejoin="round"/>
<path d="M41.0156 21.1476H39.6406" stroke="#FCFCFC" stroke-width="2" stroke-linecap="round" stroke-linejoin="round"/>
<path d="M28.6406 14.2726V17.0226" stroke="#FCFCFC" stroke-width="2" stroke-linecap="round" stroke-linejoin="round"/>
<path d="M26.5781 17.0226H30.7031" stroke="#FCFCFC" stroke-width="2" stroke-linecap="round" stroke-linejoin="round"/>
<path d="M20.3906 30.7726H24.5156" stroke="#FCFCFC" stroke-width="2" stroke-linecap="round" stroke-linejoin="round"/>
<path d="M32.7656 30.7726H36.8906" stroke="#FCFCFC" stroke-width="2" stroke-linecap="round" stroke-linejoin="round"/>
<rect x="52.8618" y="203.438" width="118.191" height="21.5874" fill="#FBFBFB"/>
<path d="M73.8447 222.147H65.0034C62.5921 211.698 73.8447 177.137 114.568 176.869C147.147 176.654 160.65 207.501 161.722 222.147C156.185 222.683 146.129 223.433 150.202 222.147C155.292 220.54 142.7 187.585 114.568 187.317C92.063 187.103 76.7025 210.091 73.8447 222.147Z" fill="#2EC4B6"/>
<path d="M106.404 36.6865C106.106 36.7611 104.353 37.0223 102.487 37.2461C90.7365 38.8502 80.0301 44.8189 73.5391 53.399C67.7195 61.0465 64.5859 71.9021 65.5932 80.7434C66.0781 84.6976 67.0107 86.3764 70.0697 88.7639L72.0842 90.2934V94.3223V98.3512L70.3682 98.948C66.7496 100.179 63.2057 103.163 61.1539 106.67C58.5799 111.072 58.2814 117.488 60.4451 122.077C62.4223 126.33 66.3393 129.799 70.7412 131.291L72.5691 131.925L73.3898 135.208C75.8519 144.87 81.7461 153.189 90.1023 158.747L92.7137 160.501L90.1396 161.023C86.2973 161.769 81.5223 163.448 77.6053 165.425C60.1467 174.192 48.8807 191.277 47.948 210.377C47.6869 216.01 48.0973 218.025 50.0744 221.158C51.865 223.881 54.3645 225.784 57.498 226.754C59.8109 227.5 60.8555 227.5 112 227.5C162.958 227.5 164.189 227.5 166.502 226.754C170.867 225.411 174.411 221.83 175.642 217.465C176.164 215.786 176.239 214.406 176.052 210.526C175.157 191.352 163.555 173.856 146.134 165.35C141.583 163.149 137.74 161.769 133.861 161.023L131.287 160.501L133.898 158.747C142.254 153.189 148.148 144.87 150.611 135.208L151.431 131.925L153.259 131.291C157.288 129.948 161.317 126.554 163.108 123.01C165.831 117.712 165.532 110.848 162.399 105.924C160.347 102.716 156.729 99.8807 153.334 98.7988L151.916 98.3512V94.2103V90.0322L153.632 88.9131C155.535 87.6447 156.878 86.0406 157.81 83.9516C158.631 82.049 158.631 73.2078 157.773 69.44C156.355 63.2848 153.856 57.8383 150.163 53.026C143.858 44.707 134.793 39.6336 122.259 37.3953C119.237 36.873 107.785 36.3508 106.404 36.6865ZM122.744 43.1775C131.249 44.9309 137.591 48.0645 142.59 52.9514C148.82 59.032 152.55 67.2391 152.774 75.4088L152.849 78.4678L126.624 78.6543C101.182 78.8408 100.361 78.8781 99.8389 79.5496C99.0928 80.5941 99.2047 82.1236 100.025 83.1682L100.734 84.0635L125.691 84.25L150.611 84.4365L146.917 86.2645C144.194 87.6074 141.807 88.4281 137.778 89.3607C134.793 90.1068 131.958 90.8156 131.473 91.0022C129.683 91.6736 129.571 94.5834 131.287 95.7025C132.145 96.2621 132.48 96.2621 135.539 95.6652C138.524 95.1057 143.933 93.6881 145.686 92.9793C146.358 92.7555 146.358 93.5016 146.209 111.893C146.059 130.433 146.059 131.179 145.239 134.052C141.023 149.011 128.787 158.822 113.492 159.494C105.994 159.829 99.7643 158.188 93.8328 154.308C86.4092 149.459 81.2238 142.371 78.7617 133.679C77.941 130.806 77.9037 130.097 77.7545 111.744C77.6799 101.336 77.7172 92.8301 77.7918 92.8301C77.9037 92.8301 78.6871 93.0912 79.5824 93.3896C82.6787 94.5088 88.3117 95.7771 93.7209 96.5979C98.4213 97.3439 100.66 97.4559 110.918 97.4559C122.035 97.4932 122.781 97.4559 123.527 96.7844C124.05 96.2994 124.311 95.6279 124.311 94.6953C124.311 92.1586 124.385 92.1959 111.254 91.9721C102.04 91.8228 98.384 91.599 94.3551 91.0022C85.8869 89.7338 79.0602 87.7939 75.1805 85.481L73.3898 84.4365L82.5295 84.25C87.5656 84.1381 91.9676 83.9143 92.3406 83.7277C93.9074 82.9816 94.1686 80.7061 92.8629 79.475C92.0422 78.6916 91.6691 78.6543 81.5969 78.5797L71.1516 78.4678L71.2262 75.4088C71.45 67.4256 75.1805 58.9947 81.0373 53.2498C87.3791 47.0199 94.0566 44.1475 106.591 42.3195C109.389 41.9092 119.051 42.4314 122.744 43.1775ZM72.0842 115.25V126.069L70.5547 125.211C69.6967 124.726 68.2791 123.569 67.4211 122.562C62.8326 117.488 63.9891 109.17 69.7713 105.476C70.7039 104.879 71.6365 104.395 71.7857 104.395C71.935 104.395 72.0842 109.281 72.0842 115.25ZM153.707 105.103C158.183 107.416 160.534 113.758 158.855 118.869C158.109 121.107 155.647 123.979 153.446 125.211L151.916 126.069V115.25C151.916 109.281 151.991 104.395 152.103 104.395C152.215 104.395 152.923 104.73 153.707 105.103ZM103.42 170.275C105.099 173.035 106.404 175.348 106.367 175.423C106.293 175.46 104.8 175.796 103.084 176.169C101.368 176.542 98.7943 177.213 97.4141 177.698L94.84 178.556V172.252C94.84 165.089 94.5043 165.723 98.384 165.462C99.4285 165.388 100.287 165.313 100.324 165.276C100.361 165.238 101.779 167.477 103.42 170.275ZM116.775 165.5C116.365 166.507 112.187 173.408 112 173.408C111.814 173.408 107.636 166.507 107.225 165.5C107.151 165.35 109.314 165.201 112 165.201C114.686 165.201 116.85 165.35 116.775 165.5ZM129.086 171.506L129.198 177.213L128.153 176.952C125.393 176.243 120.282 175.273 119.2 175.273C118.529 175.273 117.969 175.124 117.969 174.938C117.969 174.714 119.2 172.513 120.729 169.976L123.49 165.388L126.251 165.574L128.974 165.761L129.086 171.506ZM89.2443 172.849C89.2443 176.02 89.207 178.631 89.1324 178.631C89.0951 178.631 87.118 176.691 84.7678 174.341L80.515 170.088L81.6342 169.64C84.2082 168.596 88.349 167.104 88.7967 167.104C89.1324 167.066 89.2443 168.447 89.2443 172.849ZM138.188 168.036C156.206 174.005 169.487 191.538 170.457 210.601C170.68 215.003 170.643 215.227 169.673 217.167C168.517 219.554 165.905 221.68 165.309 220.748C165.122 220.449 164.973 219.815 164.973 219.293C164.973 217.614 163.182 210.974 161.839 207.542C159.153 200.79 155.199 195.045 149.417 189.449C145.686 185.793 141.284 182.622 137.106 180.533L134.756 179.377V173.222C134.756 169.827 134.868 167.066 135.017 167.066C135.204 167.066 136.584 167.514 138.188 168.036ZM84.6932 183.854C84.2455 184.152 82.9771 185.122 81.8953 185.98C80.8135 186.875 79.8062 187.584 79.657 187.584C79.4705 187.584 77.1203 185.346 74.3971 182.622L69.3982 177.624L71.2262 176.169C72.1961 175.348 73.5391 174.304 74.1359 173.856L75.2551 173.072L80.4031 178.183C85.4766 183.257 85.5139 183.294 84.6932 183.854ZM120.506 181.093C140.613 184.077 156.579 200.156 159.526 220.337L159.75 221.904H156.99C153.893 221.904 154.043 222.016 153.595 218.92C152.886 214.481 150.312 208.251 147.328 203.849C143.635 198.365 136.696 192.62 130.466 189.822C121.886 185.98 111.963 185.159 103.01 187.584C99.2793 188.629 92.6018 191.911 89.4309 194.336C83.8725 198.552 78.9855 204.707 76.5607 210.638C75.367 213.436 73.5764 219.853 73.5764 221.196C73.5764 221.83 73.2779 221.904 70.7412 221.904H67.9061L68.1672 219.853C68.876 214.182 71.9723 206.124 75.4416 201.014C81.7461 191.762 91.1842 185.047 102.04 182.175C108.456 180.459 114.089 180.123 120.506 181.093ZM70.5174 186.95L75.4416 191.874L73.8748 193.739C68.1672 200.566 63.9518 210.041 62.6834 218.733C62.1611 222.315 62.0492 222.389 59.1021 221.382C56.752 220.524 55.3717 219.33 54.2898 217.129C53.3572 215.227 53.3199 214.966 53.5437 210.601C53.8422 204.296 55.3344 198.589 58.2068 192.657C60.184 188.591 64.5486 181.988 65.2947 181.988C65.4439 181.988 67.7941 184.227 70.5174 186.95ZM122.072 192.844C126.288 193.814 132.667 196.985 136.136 199.895C142.18 204.893 146.47 211.907 147.925 219.144L148.447 221.718L140.389 221.83L132.369 221.904L123.677 213.25L114.985 204.558V198.104V191.65L116.962 191.911C118.006 192.023 120.319 192.471 122.072 192.844ZM109.016 195.306V198.552L106.404 195.978C104.987 194.56 103.868 193.329 103.942 193.254C104.166 193.03 107.598 192.135 108.382 192.098C108.941 192.061 109.016 192.434 109.016 195.306ZM111.068 208.848L124.124 221.904H118.902H113.679L102.599 210.825L91.5572 199.783L92.4152 199.111C93.982 197.843 97.2275 195.791 97.6379 195.791C97.8244 195.791 103.905 201.648 111.068 208.848ZM96.5187 212.951L105.472 221.904H92.3033C85.1035 221.904 79.1721 221.792 79.1721 221.606C79.1721 220.114 81.0373 214.331 82.343 211.646C83.8352 208.587 86.8568 203.998 87.3791 203.998C87.491 203.998 91.5945 208.027 96.5187 212.951Z" fill="#8E8E8E"/>
<path d="M86.1108 102.94C84.8424 103.947 84.7678 105.812 85.9988 106.931C86.8568 107.715 87.1553 107.752 95.3623 107.752H103.83L104.726 106.819C105.248 106.334 105.658 105.476 105.658 104.954C105.658 104.432 105.248 103.574 104.726 103.089L103.83 102.156H95.4742C87.5656 102.156 87.0434 102.194 86.1108 102.94Z" fill="#8E8E8E"/>
<path d="M119.274 103.089C118.752 103.574 118.342 104.432 118.342 104.954C118.342 105.476 118.752 106.334 119.274 106.819L120.17 107.752H128.712C137.143 107.752 137.255 107.752 138.039 106.894C139.195 105.663 139.121 103.91 137.889 102.94C136.957 102.194 136.435 102.156 128.526 102.156H120.17L119.274 103.089Z" fill="#8E8E8E"/>
<path d="M92.3404 116.481C90.9975 117.115 89.6172 119.055 89.6172 120.361C89.6172 121.741 90.6617 123.569 91.8182 124.278C93.9445 125.546 96.9289 124.763 98.0107 122.674C98.9434 120.846 98.7195 119.092 97.3766 117.638C95.9217 116.071 94.1311 115.66 92.3404 116.481Z" fill="#8E8E8E"/>
<path d="M128.19 116.332C126.847 116.854 125.43 118.869 125.43 120.286C125.43 123.868 128.974 125.994 132.107 124.353C133.264 123.793 134.383 121.779 134.383 120.361C134.383 117.6 130.802 115.25 128.19 116.332Z" fill="#8E8E8E"/>
<path d="M103.159 134.238C102.674 134.462 102.189 135.134 101.891 136.029C100.921 139.274 103.868 144.311 107.785 146.176C110.172 147.295 113.828 147.295 116.216 146.176C122.334 143.303 124.647 133.865 119.237 133.865C118.23 133.865 116.962 135.544 116.701 137.185C116.514 138.304 116.067 139.2 115.209 140.058C114.089 141.177 113.716 141.326 112 141.326C110.284 141.326 109.911 141.177 108.792 140.058C107.934 139.2 107.486 138.304 107.3 137.185C106.852 134.537 105.248 133.38 103.159 134.238Z" fill="#8E8E8E"/>
<g clip-path="url(#clip0_217_1529)">
<path d="M86.0546 201.894L108.71 190.807L124.134 192.977L139.679 201.05L151.652 224.79H77.1372L86.0546 201.894Z" fill="#FCFCFC"/>
<path d="M105.589 190.181C91.7893 193.056 80.6725 203.176 75.6124 217.513C74.5774 220.388 74.5391 220.771 74.5391 227.978C74.5391 233.843 74.6924 236.105 75.2674 238.52C76.5324 244.04 79.8675 249.981 84.2758 254.543C90.0259 260.562 95.431 263.897 102.906 266.12C107.851 267.615 115.211 267.883 120.348 266.772C131.886 264.318 144.038 254.466 148.293 244.155C149.635 240.896 150.9 235.836 151.475 231.543C151.935 228.016 151.475 222.189 150.402 218.164C148.907 212.338 145.227 205.859 140.78 201.144C137.291 197.426 134.416 195.317 129.74 192.979C122.303 189.261 114.406 188.341 105.589 190.181ZM105.973 196.621C105.704 199.802 105.244 203.483 104.056 211.303C103.481 215.251 103.328 215.596 102.139 216.669C101.449 217.283 100.683 218.164 100.491 218.586C100.108 219.314 99.4177 219.429 91.5209 220.043C86.8059 220.426 81.9758 220.694 80.7491 220.694H78.4874L78.7558 219.429C79.5991 215.481 84.0842 207.508 87.5342 203.866C89.5276 201.758 94.5876 197.924 97.156 196.621C99.1493 195.586 104.823 193.516 105.743 193.477C106.126 193.477 106.203 194.091 105.973 196.621ZM123.645 194.282C128.475 195.509 132.538 198.039 137.061 202.486C139.208 204.594 141.661 207.393 142.467 208.696C144.345 211.609 146.683 216.938 147.028 219.123L147.297 220.771L145.035 220.579C143.808 220.426 139.055 220.119 134.531 219.889L126.29 219.429L124.526 217.589L122.725 215.749L121.536 206.051C120.846 200.723 120.233 195.701 120.118 194.896C120.003 194.129 120.041 193.477 120.233 193.477C120.425 193.477 121.958 193.822 123.645 194.282ZM117.703 217.589C123.875 219.928 126.903 226.789 124.488 232.846C122.495 237.753 119.428 240.015 114.176 240.513C109.921 240.935 104.823 238.596 102.791 235.338C101.143 232.655 100.644 231.198 100.644 228.591C100.606 224.796 101.411 222.726 103.864 220.273C107.621 216.478 112.413 215.558 117.703 217.589ZM93.0543 237.37L100.108 237.945L101.871 239.746L103.634 241.548L103.941 245.803C104.248 249.79 105.053 257.38 105.628 261.405C105.858 263.092 105.819 263.245 105.091 263.245C103.059 263.245 98.1143 261.213 94.7793 259.028C86.5375 253.585 80.1741 245.075 78.7558 237.485L78.5258 236.181L82.2825 236.488C84.3525 236.641 89.1826 237.063 93.0543 237.37ZM147.182 236.565C147.182 237.983 145.112 243.388 143.578 246.11C140.166 252.09 136.065 256.115 129.28 260.102C127.133 261.367 122.265 263.245 121.076 263.245C120.118 263.245 120.118 262.287 121.115 254.16C122.648 241.203 122.533 241.778 124.526 239.631L126.328 237.715L135.298 237.025C143.348 236.411 144.958 236.296 146.722 236.066C146.952 236.066 147.182 236.296 147.182 236.565Z" fill="#8E8E8E"/>
</g>
<path d="M126.595 141.457C120.638 141.457 115.058 139.666 112.186 136.745C108.883 139.666 99.3569 141.457 96.3716 141.457C93.3863 141.457 79.6216 140.635 81 127.911C87.2764 135.783 100.018 125.669 105.155 125.67C109.7 125.67 109.822 127.911 112.186 127.911C114.368 127.911 115.058 125.67 119.26 125.67C124.807 125.67 133.788 133.615 143.509 127.911C141.812 139.666 129.776 141.457 126.595 141.457Z" fill="#2EC4B6"/>
<defs>
<linearGradient id="paint0_linear_217_1529" x1="-14.7545" y1="-339.39" x2="353.742" y2="-314.515" gradientUnits="userSpaceOnUse">
<stop stop-color="#9FE4DD"/>
<stop offset="1" stop-color="#2EC4B5"/>
</linearGradient>
<clipPath id="clip0_217_1529">
<rect width="77.3384" height="38.2379" fill="white" transform="translate(74.5391 189.262)"/>
</clipPath>
</defs>
</svg>
