<svg width="236" height="238" viewBox="0 0 236 238" fill="none" xmlns="http://www.w3.org/2000/svg">
<circle cx="112.586" cy="112.365" r="110.447" stroke="url(#paint0_linear_217_1530)" stroke-width="3" stroke-dasharray="3 6"/>
<path d="M189.002 146.301L190.896 150.853C191.544 152.412 192.782 153.651 194.339 154.302L198.86 156.192L194.377 158.067C192.797 158.727 191.548 159.992 190.907 161.58L189.002 166.301L187.061 161.492C186.442 159.956 185.252 158.72 183.741 158.043L179.611 156.192L183.777 154.325C185.267 153.658 186.445 152.447 187.072 150.94L189.002 146.301Z" fill="#2EC4B6"/>
<path d="M22.7861 119.765L24.6801 124.317C25.3286 125.876 26.5661 127.115 28.1236 127.766L32.6444 129.656L28.1608 131.531C26.5813 132.191 25.3318 133.456 24.6912 135.044L22.7861 139.765L20.8455 134.955C20.226 133.42 19.036 132.184 17.5251 131.507L13.3955 129.656L17.5616 127.789C19.0507 127.122 20.229 125.911 20.8558 124.404L22.7861 119.765Z" fill="#2EC4B6"/>
<path d="M89.9976 12.9893L91.9287 17.6307C92.5534 19.1321 93.7455 20.3262 95.2458 20.9534L99.8558 22.8806L95.2817 24.7927C93.7601 25.4288 92.5565 26.6475 91.9394 28.1769L89.9976 32.9893L88.0215 28.092C87.4247 26.613 86.2784 25.4224 84.8229 24.7701L80.6069 22.8806L84.858 20.9753C86.2925 20.3323 87.4276 19.1661 88.0314 17.7148L89.9976 12.9893Z" fill="#2EC4B6"/>
<circle cx="209.227" cy="35.9335" r="26.1476" fill="#2EC4B6"/>
<path d="M218.811 49.6835H199.561C195.436 49.6835 195.436 47.8272 195.436 45.5585V44.1835C195.436 43.4272 196.054 42.8085 196.811 42.8085H221.561C222.317 42.8085 222.936 43.4272 222.936 44.1835V45.5585C222.936 47.8272 222.936 49.6835 218.811 49.6835Z" stroke="#FCFCFC" stroke-width="2" stroke-linecap="round" stroke-linejoin="round"/>
<path d="M221.216 37.3085V42.8085H197.223V37.3085C197.223 32.0285 200.949 27.6147 205.913 26.556C206.655 26.391 207.425 26.3085 208.223 26.3085H210.216C211.014 26.3085 211.798 26.391 212.54 26.556C217.504 27.6285 221.216 32.0285 221.216 37.3085Z" stroke="#FCFCFC" stroke-width="2" stroke-linecap="round" stroke-linejoin="round"/>
<path d="M212.664 25.621C212.664 25.951 212.623 26.2535 212.54 26.556C211.798 26.391 211.014 26.3085 210.217 26.3085H208.223C207.425 26.3085 206.655 26.391 205.913 26.556C205.83 26.2535 205.789 25.951 205.789 25.621C205.789 23.7235 207.329 22.1835 209.227 22.1835C211.124 22.1835 212.664 23.7235 212.664 25.621Z" stroke="#FCFCFC" stroke-width="2" stroke-linecap="round" stroke-linejoin="round"/>
<path d="M213.352 34.5585H205.102" stroke="#FCFCFC" stroke-width="2" stroke-linecap="round" stroke-linejoin="round"/>
<rect x="53.8618" y="199.153" width="118.191" height="29.1582" fill="#FBFBFB"/>
<g clip-path="url(#clip0_217_1530)">
<path d="M67.5886 56.3502C65.2247 57.0775 64.0731 58.108 63.1033 60.4718C62.3759 62.2296 62.4365 63.1388 63.4669 68.0484C64.1337 71.1397 65.2853 75.5038 65.9521 77.8677C67.1037 81.8075 68.316 92.5359 68.3766 98.6578C68.3766 100.597 68.1341 101.325 67.3462 101.567C59.5877 104.052 55.0418 110.053 55.0418 117.811C55.0418 121.691 56.6177 125.206 59.9514 128.782C62.982 132.055 64.0731 132.722 67.9523 133.631L70.8617 134.298L72.8013 139.147C75.1652 144.905 79.0444 150.603 83.7116 154.967L87.1059 158.179L81.5901 161.574C72.1346 167.393 62.7396 173.757 59.9514 176.121C53.8902 181.333 48.1926 191.031 45.5862 200.366C44.5558 204.184 43.586 230.49 44.374 233.581C44.7983 235.279 46.7379 237.582 47.7683 237.582C49.4654 237.582 49.8897 234.491 50.2534 218.792C50.6171 203.518 50.6777 202.487 52.193 198.366C54.6781 191.334 57.4663 186.667 61.7092 182.364C65.2853 178.727 69.6494 175.393 71.4678 175.03C71.9527 174.908 72.1952 176.484 72.3164 180C72.6195 190.304 73.2862 193.213 76.5593 198.487C78.1958 201.154 81.5295 205.76 83.954 208.791C86.3179 211.761 91.2881 218.186 94.8643 223.035C99.7133 229.52 102.441 232.612 105.29 234.794C109.108 237.582 109.351 237.703 112.624 237.461C115.17 237.279 116.564 236.794 118.2 235.521C120.443 233.885 129.838 222.55 134.202 216.367C135.475 214.549 137.354 212.003 138.445 210.731C139.475 209.458 141.233 206.791 142.324 204.79C143.657 202.184 145.355 200.305 147.84 198.366C149.779 196.79 151.416 195.335 151.416 195.032C151.416 194.729 150.749 193.456 149.901 192.244C147.9 189.334 147.961 188.607 150.325 186.667L152.264 185.031L152.143 179.151C151.961 172.545 151.658 172.726 156.568 176.545C166.569 184.243 172.751 193.153 174.388 202.124C174.752 204.063 175.055 212.185 175.055 220.065C175.055 228.005 175.297 235.157 175.661 236.006C176.449 238.067 178.267 238.006 179.904 235.885C181.177 234.248 181.237 233.945 180.934 217.883C180.631 199.881 180.328 197.941 176.57 190.001C174.206 185.091 168.327 178.06 163.599 174.545C159.235 171.272 139.657 159.392 137.293 158.604C136.929 158.482 138.505 156.603 140.687 154.3C142.93 152.058 145.536 149.027 146.567 147.572C148.628 144.542 152.628 136.48 152.628 135.328C152.628 134.904 153.234 134.54 154.022 134.54C156.265 134.48 160.69 132.177 163.478 129.51C168.872 124.297 170.448 117.387 167.539 111.144C165.054 105.81 162.266 103.325 156.629 101.567C155.538 101.204 155.477 100.658 155.901 91.748C156.265 83.0197 156.507 81.7469 158.75 74.6552C161.781 65.139 162.266 61.381 160.811 59.1384C158.508 55.6228 160.205 55.7441 112.806 55.8047C88.8636 55.8047 68.4978 56.1077 67.5886 56.3502ZM156.265 62.5327C156.265 63.0782 155.174 66.5937 153.78 70.4123C152.446 74.1703 151.234 77.5646 151.113 77.9283C150.948 78.5458 142.324 78.9072 130.966 79.0193C124.242 79.0246 126.167 79.0842 119.199 79.0193C112.772 78.94 99.5013 78.8606 93.0032 78.8153C89.5739 78.7913 86.5371 78.7769 84.3177 78.7769H72.7407L70.8617 70.9578C69.8313 66.6543 68.9827 62.7751 68.9827 62.3508C68.9827 61.6235 76.3774 61.5023 112.624 61.5023C152.992 61.5023 156.265 61.5629 156.265 62.5327ZM149.597 87.1414V90.1114L136.445 90.4751C129.171 90.7175 112.26 90.8994 98.8647 90.8994H74.4378V87.8687V84.8381L89.3243 84.7641L92.7125 84.7472H119.563C123.924 84.7472 124.154 79.048 119.199 79.0193C121.019 79.0464 127.741 79.014 130.966 79.0193C130.966 79.0193 127.065 81.3582 130.714 84.5707C141.066 84.5089 148.178 84.431 148.567 84.3532C149.416 84.232 149.597 84.7169 149.597 87.1414ZM142.93 97.5061C141.96 99.3245 137.778 102.658 134.323 104.355C128.322 107.321 116.387 109.088 106.39 108.765C103.568 108.475 101.41 113.627 106.156 114.852C101.607 114.363 92.5175 112.817 93.7733 113.023C96.1879 113.42 99.2374 108.584 94.7431 106.962C93.1397 106.383 90.8032 105.083 90.8032 105.083C86.8028 103.204 82.7418 100.113 81.7113 98.1729C81.1658 97.2031 82.863 97.0819 111.23 97.0213C127.838 96.9606 141.475 96.7788 141.657 96.597C141.778 96.4757 142.263 96.3545 142.748 96.3545C143.354 96.3545 143.415 96.6576 142.93 97.5061ZM150.325 105.265C150.507 108.901 150.507 111.932 150.385 112.053C150.082 112.477 148.506 110.295 146.931 107.265L145.476 104.537L147.234 102.537C148.203 101.446 148.991 100.173 148.991 99.6882C148.991 99.2033 149.234 98.779 149.537 98.779C149.84 98.779 150.204 101.688 150.325 105.265ZM76.135 101.991L78.014 104.598L75.7713 108.538L73.5286 112.417L73.3468 109.689C73.165 107.204 73.7105 99.3851 74.0742 99.3851C74.1348 99.3851 75.1046 100.537 76.135 101.991ZM160.387 110.538C163.538 114.114 163.72 119.933 160.811 124.297C159.599 126.237 156.204 128.479 154.628 128.479C154.325 128.479 154.386 125.691 154.81 121.933C155.234 118.357 155.598 113.811 155.659 111.75C155.659 109.75 155.841 107.871 156.022 107.689C156.629 107.083 158.326 108.235 160.387 110.538ZM67.9523 114.66C68.1947 118.418 68.5584 123.085 68.7402 124.964C68.9827 127.085 68.9221 128.479 68.5584 128.479C67.4068 128.479 62.7396 123.933 61.9516 121.994C60.0726 117.569 61.4061 111.811 64.9217 108.962C67.2855 107.022 67.5886 107.568 67.9523 114.66ZM93.7733 113.023C97.8281 113.689 101.913 114.396 106.156 114.852C109.077 114.976 112.643 114.992 117.372 114.927C117.372 114.927 129.595 113.447 135.05 110.659C140.506 107.871 140.809 107.75 141.597 108.841C142.021 109.507 143.476 111.447 144.748 113.265C148.022 117.751 148.628 119.872 148.203 125.691C147.234 138.723 138.687 151.391 126.807 157.452C120.685 160.604 108.381 161.392 100.986 159.149C93.4096 156.907 82.8024 147.451 79.2262 139.693C76.8623 134.662 75.044 127.206 75.044 122.539C75.044 118.781 75.1652 118.478 77.4685 115.993C78.8019 114.538 80.4991 112.174 81.1658 110.72L82.4387 108.113L86.1967 110.053C88.1969 111.144 90.6373 112.508 93.7733 113.023ZM99.1072 164.665C107.047 166.605 115.654 166.786 123.231 165.029C128.262 163.877 135.172 163.574 136.02 164.422C136.323 164.665 136.081 166.18 135.535 167.756C134.99 169.332 134.323 171.635 134.141 172.908C133.535 176.181 132.626 176.303 132.626 173.029C132.626 169.514 130.686 167.271 127.656 167.271C124.868 167.332 120.806 168.302 117.897 169.696C116.503 170.423 114.866 170.726 114.078 170.544C113.291 170.363 111.836 170.484 110.866 170.787C109.411 171.272 108.623 171.211 106.744 170.241C105.471 169.575 102.986 168.605 101.168 168.12C96.9251 166.847 93.7733 167.635 92.1973 170.363L91.1063 172.181L90.7426 170.484C90.5002 169.575 90.3183 167.514 90.2577 165.877C90.1971 162.422 90.0759 162.422 99.1072 164.665ZM84.4995 169.817C89.7122 190.122 90.682 193.274 93.1065 196.487C96.3796 200.851 109.533 228.793 108.684 229.581C108.442 229.823 107.957 229.581 107.593 229.036C107.169 228.551 104.138 224.853 100.804 220.853C97.41 216.913 91.7124 210.003 88.0757 205.578C84.3783 201.093 80.6809 196.608 79.7717 195.517L78.0746 193.517L79.893 191.153C82.3175 187.94 82.2569 186.425 79.5899 185.213C77.1654 184.061 77.1654 183.94 78.1352 176.363C78.7413 171.575 78.9838 171.09 81.0446 169.271C82.2569 168.18 83.3479 167.271 83.5297 167.271C83.7116 167.271 84.1359 168.423 84.4995 169.817ZM142.93 168.787C144.93 169.817 145.536 172.363 145.597 180L145.658 184.546L143.415 185.758C142.142 186.425 140.99 187.334 140.809 187.819C140.627 188.243 141.718 189.94 143.233 191.577C144.748 193.153 145.961 194.668 145.961 194.85C145.961 195.032 142.869 198.244 139.051 202.002C135.293 205.76 130.747 210.912 129.05 213.458C124.989 219.58 115.473 230.733 115.17 229.763C115.048 229.339 116.382 226.066 118.261 222.55C120.079 218.974 123.413 211.822 125.655 206.669C127.959 201.517 130.686 196.062 131.777 194.547C132.808 193.032 134.141 190.425 134.626 188.789C135.172 187.092 136.687 182.606 138.02 178.666C139.415 174.787 140.506 170.787 140.506 169.756C140.506 167.574 140.566 167.574 142.93 168.787ZM102.198 174.969C103.411 175.515 104.623 176.242 104.865 176.606C105.532 177.575 104.684 178.788 103.289 178.788C101.35 178.788 100.38 179.697 100.622 181.273C100.744 182.424 101.289 182.788 102.926 183.031C106.017 183.455 105.593 184.728 101.41 187.031C95.6522 190.243 95.6522 190.243 95.6522 182.182C95.6522 178.363 95.8341 174.787 96.0159 174.242C96.5008 173.029 98.6223 173.272 102.198 174.969ZM127.777 181.273V188.607L125.898 188.243C123.595 187.819 118.503 184.788 118.624 183.94C118.685 183.576 119.473 183.031 120.443 182.727C122.807 181.94 123.11 181.515 122.625 180.061C122.443 179.333 121.655 178.788 120.625 178.666C119.473 178.545 118.988 178.121 118.988 177.272C118.988 175.939 123.11 174.06 126.14 173.999L127.777 173.939V181.273ZM114.2 178.424C115.594 181.273 114.745 183.879 112.321 184.122C111.412 184.243 110.381 184 110.139 183.515C108.745 181.333 110.32 176.363 112.381 176.363C112.866 176.363 113.715 177.272 114.2 178.424ZM118.927 192.486L124.564 195.214L120.685 203.821C117.109 211.64 112.806 219.398 112.018 219.398C111.836 219.398 110.563 217.155 109.169 214.367C107.835 211.64 105.168 206.306 103.289 202.487C101.35 198.729 99.9557 195.274 100.138 194.85C100.259 194.426 101.471 193.698 102.744 193.274C104.017 192.85 106.259 191.88 107.714 191.092C109.169 190.365 111.048 189.698 111.775 189.698C112.563 189.698 115.776 190.971 118.927 192.486Z" fill="#8E8E8E"/>
<path d="M94.2808 171.339C95.9755 168.524 102.957 172.512 106.236 174.857C106.94 177.424 104.751 178.981 103.266 179.805C102.79 180.666 102.85 181.4 105.357 182.059C107.864 182.719 107.775 185.743 107.417 187.172C103.376 188.895 94.8343 192.109 92.9871 191.185C90.6781 190.031 92.1625 174.857 94.2808 171.339Z" fill="#2EC4B6"/>
<path d="M130.144 171.088C128.301 168.199 120.707 172.292 117.14 174.699C116.375 177.334 118.756 178.931 120.371 179.777C120.889 180.661 120.824 181.414 118.097 182.091C115.371 182.768 115.468 185.872 115.857 187.339C120.251 189.107 129.542 192.405 131.551 191.458C134.062 190.273 132.448 174.699 130.144 171.088Z" fill="#2EC4B6"/>
<path d="M90.8034 119.266C87.7727 122.297 88.5607 127.024 92.4399 129.025C95.4099 130.54 98.9861 127.388 98.9861 123.266C98.9861 120.175 97.592 118.417 94.622 117.811C92.9854 117.508 92.3793 117.751 90.8034 119.266Z" fill="#8E8E8E"/>
<path d="M127.716 119.327C126.443 120.661 125.958 121.691 125.958 123.328C125.958 124.964 126.443 125.994 127.716 127.328C131.292 130.904 135.777 128.722 135.898 123.267C135.959 120.964 135.717 120.236 134.262 119.024C131.959 117.084 129.898 117.145 127.716 119.327Z" fill="#8E8E8E"/>
<path d="M121.109 139.147C116.078 144.724 109.35 144.966 103.228 139.935C100.016 137.268 99.7734 137.208 98.44 138.541C96.7428 140.178 97.2883 142.117 100.137 144.724C107.35 151.33 117.048 151.27 124.018 144.481C126.746 141.875 127.231 141.087 126.867 139.875C126.382 138.359 124.928 136.965 123.837 136.965C123.412 136.965 122.2 137.935 121.109 139.147Z" fill="#8E8E8E"/>
<path d="M110.564 196.487C110.018 197.214 109.594 198.244 109.594 198.79C109.594 201.518 113.17 203.457 114.928 201.699C116.685 199.942 114.988 195.153 112.624 195.153C112.018 195.153 111.048 195.759 110.564 196.487Z" fill="#8E8E8E"/>
<path d="M145.112 202.851C142.385 206.549 135.657 219.944 135.657 221.52C135.657 222.187 136.081 223.399 136.627 224.126C137.536 225.399 137.899 225.46 148.022 225.46H158.508L158.932 230.369C159.174 233.097 159.599 235.824 159.962 236.431C160.69 237.885 163.357 237.946 163.781 236.491C164.145 235.279 164.327 226.793 164.205 216.186V214.793C163.175 214.793 162.696 214.913 162.029 216.186C161.484 217.216 158.993 212.004 158.69 211.822C158.386 211.64 156.992 209.579 155.598 207.215C152.871 202.669 150.204 200.002 148.325 200.002C147.658 200.002 146.325 201.154 145.112 202.851ZM150.022 208.003C150.689 208.791 152.022 210.731 152.992 212.428C153.901 214.065 155.174 216.125 155.78 216.913C157.962 219.823 157.538 220.005 148.931 220.005H140.991L142.688 217.095C143.597 215.519 145.173 212.549 146.143 210.428C147.173 208.367 148.204 206.67 148.385 206.67C148.628 206.67 149.355 207.276 150.022 208.003Z" fill="#8E8E8E"/>
<path d="M64.6792 208.306C63.2851 208.67 62.9214 212.125 62.9214 224.308C62.9214 236.067 63.3457 237.764 66.1945 237.461C67.7704 237.279 68.0735 236.976 68.5584 234.855C68.8614 233.521 68.9826 227.278 68.8008 220.914C68.4977 210.913 68.3159 209.337 67.4067 208.67C66.8006 208.246 66.1945 207.943 66.0126 207.943C65.8308 208.003 65.2247 208.125 64.6792 208.306Z" fill="#8E8E8E"/>
<path d="M114.896 181.365C114.896 183.833 113.102 184.164 111.326 184.164C109.55 184.164 109.251 182.571 109.54 181.365C109.54 178.897 110.474 176.354 112.25 176.354C114.026 176.354 114.896 178.897 114.896 181.365Z" fill="#2EC4B6"/>
<rect x="45.6143" y="233.786" width="132.991" height="3.70679" rx="1.85339" fill="#8E8E8E"/>
<circle cx="113.348" cy="70.3164" r="3.86963" fill="#8E8E8E"/>
</g>
<defs>
<linearGradient id="paint0_linear_217_1530" x1="-14.1686" y1="-340.104" x2="354.328" y2="-315.23" gradientUnits="userSpaceOnUse">
<stop stop-color="#9FE4DD"/>
<stop offset="1" stop-color="#2EC4B5"/>
</linearGradient>
<clipPath id="clip0_217_1530">
<rect width="137" height="181.796" fill="white" transform="translate(44.0859 55.7859)"/>
</clipPath>
</defs>
</svg>
