<svg width="16" height="17" viewBox="0 0 16 17" fill="none" xmlns="http://www.w3.org/2000/svg">
<path opacity="0.4" d="M11.6867 5.64013C11.64 5.63346 11.5934 5.63346 11.5467 5.64013C10.5134 5.60679 9.69336 4.76012 9.69336 3.72012C9.69336 2.66012 10.5534 1.79346 11.62 1.79346C12.68 1.79346 13.5467 2.65346 13.5467 3.72012C13.54 4.76012 12.72 5.60679 11.6867 5.64013Z" fill="#10524B"/>
<path opacity="0.4" d="M13.86 10.2597C13.1133 10.7597 12.0667 10.9464 11.1 10.8197C11.3533 10.2731 11.4867 9.66641 11.4933 9.02641C11.4933 8.35974 11.3467 7.72641 11.0667 7.17308C12.0533 7.03974 13.1 7.2264 13.8533 7.7264C14.9067 8.41973 14.9067 9.55974 13.86 10.2597Z" fill="#10524B"/>
<path opacity="0.4" d="M4.29335 5.64013C4.34001 5.63346 4.38668 5.63346 4.43335 5.64013C5.46668 5.60679 6.28668 4.76012 6.28668 3.72012C6.28668 2.66012 5.42668 1.79346 4.36002 1.79346C3.30002 1.79346 2.43335 2.65346 2.43335 3.72012C2.44002 4.76012 3.26001 5.60679 4.29335 5.64013Z" fill="#10524B"/>
<path opacity="0.4" d="M4.36674 9.02654C4.36674 9.6732 4.50674 10.2865 4.76008 10.8399C3.82008 10.9399 2.84008 10.7399 2.12008 10.2665C1.06674 9.56654 1.06674 8.42653 2.12008 7.72653C2.83341 7.24653 3.84008 7.0532 4.78674 7.15987C4.51341 7.71987 4.36674 8.3532 4.36674 9.02654Z" fill="#10524B"/>
<path d="M8.07995 11.04C8.02662 11.0333 7.96662 11.0333 7.90662 11.04C6.67995 11 5.69995 9.9933 5.69995 8.7533C5.69995 7.48663 6.71995 6.45996 7.99329 6.45996C9.25995 6.45996 10.2866 7.48663 10.2866 8.7533C10.2866 9.9933 9.31328 11 8.07995 11.04Z" fill="#10524B"/>
<path d="M5.91345 12.4197C4.90678 13.0931 4.90678 14.1997 5.91345 14.8664C7.06011 15.6331 8.94012 15.6331 10.0868 14.8664C11.0934 14.1931 11.0934 13.0864 10.0868 12.4197C8.94678 11.6531 7.06678 11.6531 5.91345 12.4197Z" fill="#10524B"/>
</svg>
