<svg width="20" height="21" viewBox="0 0 20 21" fill="none" xmlns="http://www.w3.org/2000/svg">
<g clip-path="url(#clip0_906_12316)">
<path d="M1.96108 8.43252L1.91816 8.38412C1.87457 8.32749 1.83664 8.26653 1.80836 8.20563C1.77183 8.12695 1.75781 8.06258 1.75624 8.01469L1.75032 4.25335L2.53868 4.52076L3.38364 7.11916L3.4998 7.47638L3.85544 7.5973L7.04919 8.68324L8.32796 9.11805L8.021 7.80271L6.61298 1.7694L8.11416 2.28038L8.11772 2.29754L8.14566 2.3643L11.2832 9.86039L11.4135 10.1717L11.7329 10.2807L14.7798 11.3197L14.7799 11.3198C15.4807 11.5587 16.1383 11.9865 16.6428 12.6334C17.2415 13.4026 17.2886 13.8917 17.232 14.1651C17.1791 14.4079 16.9929 14.7441 16.2414 15.0069C15.6082 15.2254 14.9056 15.1909 14.1979 14.9507C14.1977 14.9506 14.1976 14.9506 14.1974 14.9505L5.21066 11.8882L5.20966 11.8879C5.04881 11.8333 4.88305 11.7264 4.73296 11.5575C4.73293 11.5575 4.73289 11.5574 4.73286 11.5574C4.73278 11.5573 4.73269 11.5572 4.73261 11.5571L1.96108 8.43252ZM1.75159 4.04181C1.75191 4.04048 1.75216 4.03986 1.7522 4.03987L1.75159 4.04181ZM2.51805 4.45709C2.51798 4.4569 2.51795 4.4568 2.51795 4.4568L2.51805 4.45709ZM0.75 20.145V19.145H19.25V20.145H0.75ZM19.2496 20.2748C19.2496 20.2748 19.2496 20.2743 19.2499 20.2733L19.2496 20.2748ZM0.750398 20.2748C0.750362 20.2748 0.750243 20.2743 0.750144 20.2733L0.750398 20.2748ZM0.750144 19.0167C0.750243 19.0158 0.750363 19.0153 0.750398 19.0153L0.750144 19.0167Z" stroke="#2EC4B6" stroke-width="1.5"/>
</g>
<defs>
<clipPath id="clip0_906_12316">
<rect width="20" height="20" fill="white" transform="translate(0 0.895508)"/>
</clipPath>
</defs>
</svg>
