<svg width="20" height="20" viewBox="0 0 20 20" fill="none" xmlns="http://www.w3.org/2000/svg">
<g clip-path="url(#clip0_1278_14841)">
<path d="M15.8083 18.3337H4.1416C1.6416 18.3337 1.6416 17.2087 1.6416 15.8337V15.0003C1.6416 14.542 2.0166 14.167 2.47493 14.167H17.4749C17.9333 14.167 18.3083 14.542 18.3083 15.0003V15.8337C18.3083 17.2087 18.3083 18.3337 15.8083 18.3337Z" stroke="#2EC4B6" stroke-width="1.5" stroke-linecap="round" stroke-linejoin="round"/>
<path d="M17.2668 10.8337V14.167H2.7251V10.8337C2.7251 7.63366 4.98343 4.95866 7.99176 4.31699C8.44176 4.21699 8.90843 4.16699 9.39176 4.16699H10.6001C11.0834 4.16699 11.5584 4.21699 12.0084 4.31699C15.0168 4.96699 17.2668 7.63366 17.2668 10.8337Z" stroke="#2EC4B6" stroke-width="1.5" stroke-linecap="round" stroke-linejoin="round"/>
<path d="M12.0834 3.75033C12.0834 3.95033 12.0584 4.13366 12.0084 4.31699C11.5584 4.21699 11.0834 4.16699 10.6001 4.16699H9.39175C8.90842 4.16699 8.44175 4.21699 7.99175 4.31699C7.94175 4.13366 7.91675 3.95033 7.91675 3.75033C7.91675 2.60033 8.85008 1.66699 10.0001 1.66699C11.1501 1.66699 12.0834 2.60033 12.0834 3.75033Z" stroke="#2EC4B6" stroke-width="1.5" stroke-linecap="round" stroke-linejoin="round"/>
<path d="M12.5 9.16699H7.5" stroke="#2EC4B6" stroke-width="1.5" stroke-linecap="round" stroke-linejoin="round"/>
</g>
<defs>
<clipPath id="clip0_1278_14841">
<rect width="20" height="20" fill="white"/>
</clipPath>
</defs>
</svg>
