<svg width="20" height="21" viewBox="0 0 20 21" fill="none" xmlns="http://www.w3.org/2000/svg">
<g clip-path="url(#clip0_1011_10455)">
<path d="M1.66626 5.14453C1.85025 5.14453 2.00007 5.29359 2.00024 5.47754V11.9775C2.00024 12.806 2.67182 13.4775 3.50024 13.4775H8.16626C8.99469 13.4775 9.66626 12.806 9.66626 11.9775V7.31152C9.66626 7.03549 9.89027 6.8117 10.1663 6.81152H15.8333C17.3988 6.81152 18.6663 8.07901 18.6663 9.64453V16.3115C18.6661 16.4955 18.5172 16.6445 18.3333 16.6445C18.1493 16.6445 18.0004 16.4955 18.0002 16.3115V15.6445C18.0002 14.8162 17.3285 14.1447 16.5002 14.1445H3.50024C2.67182 14.1445 2.00024 14.8161 2.00024 15.6445V16.3115C2.00007 16.4955 1.85025 16.6445 1.66626 16.6445C1.48242 16.6444 1.33343 16.4954 1.33325 16.3115V5.47754L1.34009 5.41113C1.37099 5.25913 1.50517 5.14469 1.66626 5.14453ZM11.8333 7.47754C11.0049 7.47754 10.3334 8.14926 10.3333 8.97754V11.9775C10.3333 12.806 11.0048 13.4775 11.8333 13.4775H16.5002C17.3285 13.4774 18.0002 12.8059 18.0002 11.9775V9.64453C18.0002 8.45172 17.0261 7.47754 15.8333 7.47754H11.8333ZM5.83325 7.64453C6.94044 7.64453 7.83325 8.53734 7.83325 9.64453C7.83325 10.7517 6.94044 11.6445 5.83325 11.6445C4.72606 11.6445 3.83325 10.7517 3.83325 9.64453C3.83325 8.53734 4.72606 7.64453 5.83325 7.64453ZM5.83325 8.31152C5.09878 8.31152 4.50024 8.91006 4.50024 9.64453C4.50024 10.379 5.09878 10.9775 5.83325 10.9775C6.56773 10.9775 7.16626 10.379 7.16626 9.64453C7.16626 8.91006 6.56773 8.31152 5.83325 8.31152Z" stroke="#2EC4B6"/>
</g>
<defs>
<clipPath id="clip0_1011_10455">
<rect width="20" height="20" fill="white" transform="translate(0 0.894531)"/>
</clipPath>
</defs>
</svg>
