<svg width="309" height="343" viewBox="0 0 309 343" fill="none" xmlns="http://www.w3.org/2000/svg">
<path fill-rule="evenodd" clip-rule="evenodd" d="M68.9128 45.8747C69.2755 44.8857 68.0628 42.2899 65.1118 41.8384C62.1607 41.3869 56.2967 43.0845 54.1202 44.4455C53.6275 43.9958 53.6615 42.6977 53.704 41.0726C53.7751 38.3531 53.8702 34.7179 51.5613 32.6104C47.3568 28.7729 44.551 30.3117 44.551 30.3117C44.551 30.3117 49.107 24.1308 57.7692 35.6676C59.6734 38.2038 57.9222 26.027 49.6158 21.3397C48.9411 20.959 49.8442 20.6456 51.2399 20.1612C53.5928 19.3447 57.3457 18.0423 57.3008 15.1126C57.2896 14.3832 54.6579 10.5705 50.9582 8.96303C48.9417 8.08694 45.1585 6.64734 40.5492 12.179C40.3385 12.4319 40.1084 12.6619 40.1084 12.6619C35.3243 11.4959 24.5978 16.5091 23.7346 21.1395C22.8713 25.7699 27.9721 26.8499 29.4809 24.3055C31.5019 21.3235 36.0446 15.6813 38.8937 16.0397C40.0885 16.19 40.8884 19.9699 40.1003 21.4304C39.4954 22.4072 37.2527 24.1305 34.8947 25.9425C32.5898 27.7135 30.1746 29.5694 29.0707 30.8958C21.4597 40.0411 30.8346 46.2829 30.8346 46.2829L30.4846 46.6664C28.3282 46.2632 25.8457 49.0053 25.465 51.4929C25.1241 53.721 28.0559 56.96 31.0269 56.2699C34.0372 55.0472 34.9396 53.4402 34.9836 50.7729C34.9936 50.1686 35.6325 50.1273 36.6556 50.0612C38.3597 49.951 41.1296 49.7719 43.8347 46.8083C46.2465 44.1659 46.6332 45.7818 47.1652 48.0048C47.5088 49.4408 47.9131 51.1303 48.9632 52.0888C50.8898 53.8472 52.4739 52.486 54.2375 50.9705C54.9232 50.3813 55.636 49.7687 56.4067 49.3072C58.8603 47.8376 61.2616 48.0876 63.3345 48.3033C65.83 48.5631 67.8498 48.7733 68.9128 45.8747ZM49.0923 13.3517C49.4873 12.9189 49.4494 12.2412 49.0077 11.838C48.5659 11.4348 47.8876 11.4588 47.4926 11.8916C47.0976 12.3244 47.1355 13.002 47.5772 13.4052C48.019 13.8084 48.6973 13.7845 49.0923 13.3517Z" fill="#9FE4DD"/>
<rect x="11.9683" y="57.0332" width="11.6548" height="3.17354" rx="1.58677" transform="rotate(-47.6119 11.9683 57.0332)" fill="#9FE4DD"/>
<rect x="11.4277" y="49.9102" width="11.6548" height="3.17354" rx="1.58677" transform="rotate(-47.6119 11.4277 49.9102)" fill="#9FE4DD"/>
<circle cx="154.45" cy="171.291" r="147.113" stroke="url(#paint0_linear_932_10357)" stroke-width="3.99595" stroke-dasharray="4 7.99"/>
<path d="M287.309 310.069C288.869 308.694 288.469 308.844 290.599 306.968C293.046 304.811 295.297 302.022 296.213 300.047C297.476 297.324 297.399 291.757 295.981 284.393C295.72 283.093 295.826 282.436 296.545 280.877C297.59 278.547 298.11 273.702 297.552 271.698C297.154 270.197 295.767 268.44 294.287 267.491C293.464 266.969 293.367 266.813 293.506 265.966C293.689 264.758 293.257 263.126 292.518 262.288C291.859 261.54 289.07 260.658 288.113 260.897C287.744 260.981 286.194 262.146 284.631 263.523L281.822 265.999L280.099 265.505C276.672 264.54 274.087 265.169 271.278 267.645C269.012 269.641 268.234 271.133 268.056 273.946C267.973 275.267 267.997 276.573 268.149 276.882C268.373 277.41 268.121 277.672 264.043 281.266C261.642 283.383 256.174 288.322 251.881 292.266L244.072 299.39L242.562 298.91C239.209 297.8 236.277 298.492 233.287 301.128C231.18 302.984 230.569 304.529 230.488 308.183L230.411 311.109L228.197 313.301C226.281 315.191 225.953 315.641 225.783 316.636C225.547 318.012 225.909 320.067 226.508 320.747C227.227 321.563 228.74 322 230.145 321.768L231.485 321.553L233.061 323.706C235.502 327.07 236.999 328.084 239.787 328.324C243.189 328.667 247.297 326.615 252.598 321.943L254.819 319.987L256.634 320.722C259.493 321.865 264.525 323.145 266.699 323.282C269.407 323.431 271.609 322.779 274.397 320.965L276.676 319.44L282.158 314.608C283.039 313.831 284.301 312.719 287.309 310.069ZM277.683 307.201C275.901 305.27 274.423 303.594 274.389 303.463C274.334 303.31 277.514 300.387 281.433 296.933L288.569 290.644L288.87 291.304C290.241 294.322 290.56 298.429 289.589 300.935C288.658 303.486 287.914 304.423 284.083 307.84L280.908 310.678L277.683 307.201ZM269.659 319.425C268.856 319.61 267.348 319.771 266.303 319.727C264.359 319.668 258.602 318.343 258.183 317.867C258.023 317.686 259.889 315.921 264.986 311.428L272.009 305.239L275.323 308.999L278.657 312.783L274.865 315.924C271.546 318.688 270.942 319.1 269.659 319.425ZM269.533 301.745C269.203 301.553 268.524 300.783 267.996 300.001C267.468 299.219 265.411 296.885 263.444 294.836C259.991 291.237 259.808 291.076 259.233 291.382C258.924 291.534 256.87 293.223 254.696 295.14L250.691 298.588C249.674 299.163 251.031 298.288 248.742 300.306C249.331 299.787 248.083 300.927 248.303 301.176C249.481 302.513 250.868 309.019 250.386 310.892C249.721 313.29 245.65 317.119 242.591 318.124C240.667 318.773 237.434 318.484 234.91 317.447L232.597 316.467L231.003 317.993L229.412 319.475L228.753 318.728C227.535 317.346 227.693 316.885 229.928 315.036L231.913 313.407L233.21 314.559C236.857 317.784 241.8 317.775 245.47 314.54C247.396 312.843 248.206 311.525 248.455 309.615C249.503 305.552 246.581 302.236 245.982 301.557C245.722 301.262 247.214 300.123 247.313 299.916C247.505 299.585 263.245 285.431 267.383 281.905L269.011 280.51L270.186 281.568C271.827 283.019 274.896 284.219 276.908 284.217C280.7 284.135 284.245 281.856 285.716 278.547C287.167 275.215 286.94 272.034 285.011 268.703L284.067 267.039L284.891 266.193C285.369 265.731 286.429 264.878 287.233 264.329C288.574 263.43 288.878 263.363 289.842 263.681C290.743 263.973 290.926 264.134 290.936 264.648C290.969 265.143 290.579 265.567 289.046 266.797L287.174 268.326L287.707 270.392C288.778 274.439 288.386 277.603 286.417 280.666C284.635 283.485 280.697 285.868 277.627 286.038C275.631 286.148 272.597 285.4 270.715 284.361C267.946 282.817 268.689 282.565 264.618 286.394L261.003 289.782L265.681 295.319C268.249 298.369 270.389 301.072 270.438 301.31C270.526 301.957 270.171 302.149 269.533 301.745ZM294.054 273.895C293.542 272.173 292.925 270.422 292.694 270.022C292.505 269.625 292.357 268.91 292.407 268.464L292.523 267.637L293.663 269.249C294.428 270.346 294.935 271.469 295.198 272.726C295.631 274.679 295.672 277.42 295.259 277.18C295.136 277.087 294.586 275.64 294.054 273.895ZM279.13 279.843C277.513 280.383 276.661 280.329 274.891 279.554C273.079 278.777 272.617 278.298 272.014 276.656C271.363 274.775 272.019 272.505 273.732 270.795C274.853 269.646 275.275 269.394 276.595 269.157C278.588 268.769 280.141 269.252 281.339 270.611C284.054 273.692 282.87 278.56 279.13 279.843ZM241.606 312.714C238.849 314.016 234.707 312.193 233.987 309.366C233.266 306.539 235.515 303.108 238.558 302.359C240.993 301.742 243.919 303.51 244.536 305.945C245.133 308.357 244.636 310.123 242.896 311.939C242.714 312.099 242.134 312.49 241.606 312.714Z" fill="#9FE4DD"/>
<path d="M281.109 275.388C281.711 272.966 279.695 270.678 277.336 271.106C275.147 271.546 273.694 273.551 274.215 275.467C274.727 277.189 275.442 277.726 277.275 277.842C278.681 277.931 279.073 277.827 279.934 277.068C280.477 276.589 281.017 275.832 281.109 275.388ZM277.816 276.036C276.495 275.953 275.966 273.48 277.221 273.26C277.957 273.135 279.054 274.06 279.068 274.853C279.09 275.517 278.498 276.079 277.816 276.036Z" fill="#9FE4DD"/>
<path d="M242.939 308.667C243.296 307.748 242.551 306.311 241.853 305.519C241.214 304.794 238.977 304.309 238.164 304.985C236.27 306.535 235.919 307.689 236.746 309.496C237.931 312.074 241.881 311.531 242.939 308.667ZM239.473 309.347C239.029 309.255 238.331 308.985 238.141 308.267C237.862 307.265 238.792 306.566 239.627 306.554C240.227 306.549 241.298 307.537 241.266 308.048C241.234 308.559 240.047 309.405 239.473 309.347Z" fill="#9FE4DD"/>
<path d="M133.973 58.9336L136.831 65.8029C137.917 68.4122 139.989 70.4874 142.596 71.5774L149.417 74.4286L142.659 77.2538C140.014 78.3592 137.923 80.4771 136.85 83.1349L133.973 90.2642L131.037 82.9874C130 80.4171 128.008 78.3481 125.479 77.2145L119.263 74.4286L125.54 71.6154C128.033 70.4981 130.005 68.4714 131.054 65.9491L133.973 58.9336Z" fill="#9FE4DD"/>
<path d="M232.426 232.594L234.973 238.716C236.059 241.325 238.13 243.4 240.738 244.49L246.814 247.03L240.8 249.544C238.156 250.65 236.064 252.768 234.992 255.426L232.426 261.784L229.801 255.278C228.764 252.708 226.771 250.639 224.242 249.505L218.72 247.03L224.303 244.528C226.796 243.411 228.769 241.384 229.818 238.862L232.426 232.594Z" fill="#9FE4DD"/>
<path d="M107.884 260.174L110.442 266.323C111.528 268.933 113.6 271.008 116.207 272.098L122.311 274.65L116.27 277.176C113.625 278.281 111.534 280.399 110.461 283.057L107.884 289.444L105.247 282.909C104.21 280.339 102.218 278.27 99.6884 277.136L94.1406 274.65L99.7494 272.136C102.242 271.019 104.215 268.992 105.264 266.47L107.884 260.174Z" fill="#9FE4DD"/>
<defs>
<linearGradient id="paint0_linear_932_10357" x1="124.63" y1="-23.2144" x2="301.037" y2="47.8612" gradientUnits="userSpaceOnUse">
<stop stop-color="#9FE4DD"/>
<stop offset="1" stop-color="#2EC4B5"/>
</linearGradient>
</defs>
</svg>
