<svg width="24" height="25" viewBox="0 0 24 25" fill="none" xmlns="http://www.w3.org/2000/svg">
<path opacity="0.4" d="M8.88003 4.61267C8.08003 1.15267 2.87002 1.14267 2.07002 4.61267C1.60002 6.64267 2.89003 8.36267 4.01003 9.43267C4.83003 10.2027 6.12003 10.2027 6.94003 9.43267C8.06003 8.36267 9.34003 6.64267 8.88003 4.61267ZM5.51003 6.21267C4.96003 6.21267 4.51003 5.76267 4.51003 5.21267C4.51003 4.66267 4.95003 4.21267 5.50003 4.21267H5.51003C6.07003 4.21267 6.51003 4.66267 6.51003 5.21267C6.51003 5.76267 6.07003 6.21267 5.51003 6.21267Z" fill="#2EC4B6"/>
<path d="M6.51001 5.21265C6.51001 5.76265 6.07001 6.21265 5.51001 6.21265C4.96001 6.21265 4.51001 5.76265 4.51001 5.21265C4.51001 4.66265 4.95001 4.21265 5.50001 4.21265H5.51001C6.07001 4.21265 6.51001 4.66265 6.51001 5.21265Z" fill="#2EC4B6"/>
<path opacity="0.4" d="M21.91 16.6127C21.11 13.1527 15.88 13.1427 15.07 16.6127C14.6 18.6427 15.89 20.3627 17.02 21.4327C17.84 22.2027 19.14 22.2027 19.96 21.4327C21.09 20.3627 22.38 18.6427 21.91 16.6127ZM18.53 18.2127C17.98 18.2127 17.53 17.7627 17.53 17.2127C17.53 16.6627 17.97 16.2127 18.52 16.2127H18.53C19.08 16.2127 19.53 16.6627 19.53 17.2127C19.53 17.7627 19.08 18.2127 18.53 18.2127Z" fill="#2EC4B6"/>
<path d="M19.53 17.2126C19.53 17.7626 19.08 18.2126 18.53 18.2126C17.98 18.2126 17.53 17.7626 17.53 17.2126C17.53 16.6626 17.97 16.2126 18.52 16.2126H18.53C19.08 16.2126 19.53 16.6626 19.53 17.2126Z" fill="#2EC4B6"/>
<path d="M11.9999 19.7627H9.31994C8.15994 19.7627 7.14994 19.0627 6.74994 17.9827C6.33994 16.9027 6.63994 15.7127 7.50994 14.9427L15.4999 7.9527C15.9799 7.5327 15.9899 6.9627 15.8499 6.5727C15.6999 6.1827 15.3199 5.7627 14.6799 5.7627H11.9999C11.5899 5.7627 11.2499 5.4227 11.2499 5.0127C11.2499 4.6027 11.5899 4.2627 11.9999 4.2627H14.6799C15.8399 4.2627 16.8499 4.9627 17.2499 6.0427C17.6599 7.1227 17.3599 8.3127 16.4899 9.0827L8.49994 16.0727C8.01994 16.4927 8.00994 17.0627 8.14994 17.4527C8.29994 17.8427 8.67994 18.2627 9.31994 18.2627H11.9999C12.4099 18.2627 12.7499 18.6027 12.7499 19.0127C12.7499 19.4227 12.4099 19.7627 11.9999 19.7627Z" fill="#2EC4B6"/>
</svg>
