<svg width="86" height="86" viewBox="0 0 86 86" fill="none" xmlns="http://www.w3.org/2000/svg">
<rect x="-0.000732422" width="85.9395" height="85.9395" rx="14" fill="#E1F5F3"/>
<circle cx="42.969" cy="42.9697" r="32.7099" fill="#9FE4DD"/>
<path d="M67.1593 38.5951L67.1668 37.879C67.154 37.8789 67.1412 37.8791 67.1284 37.8796L67.1593 38.5951ZM67.1593 38.5951L67.1668 37.879L67.167 37.879L67.1674 37.879L67.1687 37.879L67.1736 37.8791L67.1918 37.8793L67.2606 37.8803C67.32 37.8813 67.4059 37.8829 67.5128 37.8854C67.7264 37.8904 68.0246 37.899 68.3637 37.9136C69.0351 37.9425 69.8924 37.9956 70.5708 38.0947C70.6278 38.103 70.6829 38.111 70.7365 38.1187C71.2897 38.1988 71.686 38.2562 72.3082 38.4243C72.8321 38.5658 73.1303 38.6696 73.6261 38.8664C73.8754 38.9653 74.1768 39.1036 74.4069 39.2124C74.5239 39.2678 74.6262 39.3173 74.6994 39.353L74.7858 39.3954L74.8095 39.4071L74.8159 39.4103L74.8177 39.4112L74.8182 39.4114L74.8183 39.4115L74.8184 39.4115L74.5009 40.0489M67.1593 38.5951L67.1284 37.8796L67.1283 37.8796L67.1278 37.8796L67.126 37.8797L67.1189 37.88L67.0906 37.8812L66.9809 37.8859L66.5729 37.9031C66.2258 37.9176 65.7403 37.9376 65.1868 37.9596C64.079 38.0036 62.7014 38.0556 61.6155 38.0875C61.5226 38.0902 61.297 38.0675 60.9488 38.0008C60.6183 37.9376 60.224 37.8441 59.8191 37.7306C59.1644 37.5472 58.5455 37.3289 58.1289 37.1275C58.0195 37.0644 57.9034 36.9999 57.7804 36.9339C57.442 36.7523 57.0205 36.87 56.8252 37.2007C56.6298 37.5314 56.7302 37.9574 57.0526 38.1661C57.0882 38.1892 57.1253 38.2121 57.1638 38.2348C55.5249 38.2259 53.626 38.1942 52.048 38.1624C51.1172 38.1436 50.2992 38.1249 49.7141 38.1108C49.4215 38.1038 49.1871 38.0979 49.026 38.0938L48.841 38.0891L48.7932 38.0878L48.7811 38.0875L48.7781 38.0874L48.7773 38.0874L48.7772 38.0874L48.7581 38.8033L48.7771 38.0873L48.765 38.0872L38.0137 37.9831C37.646 37.9795 37.3353 38.2551 37.2949 38.6207L37.1916 39.5576C37.1887 39.5837 37.1872 39.6099 37.1872 39.6362V51.3999C37.1872 51.7954 37.5079 52.116 37.9034 52.116H46.6846L52.9847 52.22L52.9847 52.2201H52.9965H55.6844C55.8939 52.2201 56.0928 52.1284 56.2289 51.9691C56.3649 51.8099 56.4245 51.599 56.3917 51.3921L74.5009 40.0489M74.5009 40.0489L74.8184 39.4115C75.0616 39.5327 75.2153 39.7809 75.2153 40.0526V40.1567C75.2153 40.3487 75.1381 40.5327 75.0012 40.6673C74.8643 40.8019 74.6791 40.876 74.4871 40.8727L68.8922 40.7788M74.5009 40.0489L68.8922 40.7788M68.8922 40.7788C68.8884 40.908 68.8912 41.0242 68.9014 41.0918C68.9417 41.3619 69.0069 41.4804 69.1976 41.8272C69.2094 41.8486 69.2216 41.8709 69.2344 41.8942C69.3611 42.125 69.4906 42.2812 69.6519 42.4505C69.6925 42.4931 69.7399 42.5412 69.7923 42.5942C69.9358 42.7395 70.1161 42.922 70.292 43.1314C70.5078 43.3882 70.5888 43.4628 70.6373 43.5013C70.6626 43.5214 70.6892 43.5397 70.746 43.5767C70.753 43.5813 70.7603 43.5861 70.7681 43.5911C70.822 43.626 70.8942 43.6729 70.9822 43.7346C71.4454 44.0597 71.7342 44.1706 72.3428 44.3685C72.7429 44.4985 72.9943 44.5358 73.3894 44.5942C73.5063 44.6116 73.6358 44.6307 73.7854 44.6547C74.5918 44.784 75.6617 44.8356 76.5524 44.8531C76.993 44.8618 77.3812 44.862 77.6591 44.8601C77.7979 44.8591 77.9089 44.8576 77.9848 44.8563L78.0714 44.8547L78.0932 44.8543L78.0984 44.8541L78.0996 44.8541L78.0997 44.8541L68.8922 40.7788ZM74.0317 52.0102C74.0152 52.0114 73.9987 52.0119 73.9822 52.0119H70.364C70.1642 52.0119 69.9734 51.9284 69.8379 51.7816C69.7023 51.6349 69.6342 51.4381 69.6501 51.239L74.0317 52.0102ZM74.0317 52.0102L73.9822 51.2958M74.0317 52.0102L73.9822 51.2958M73.9822 51.2958L74.0317 52.0102L74.0318 52.0102L74.0319 52.0102L74.0324 52.0102L74.0341 52.01L74.0401 52.0096L74.0621 52.008L74.1423 52.002C74.2099 51.9968 74.3044 51.9892 74.4119 51.9797C74.6229 51.961 74.8993 51.9334 75.1224 51.8999C75.1906 51.8896 75.2601 51.8808 75.3317 51.8717C75.6105 51.8364 75.9205 51.7971 76.3018 51.6538C76.8053 51.4645 77.1481 51.2876 77.5782 50.8766C78.0695 50.4074 78.2515 50.003 78.4671 49.492C78.682 48.9822 78.7383 48.6248 78.8061 48.1936C78.8121 48.1555 78.8182 48.1168 78.8245 48.0774C78.9099 47.5426 78.907 46.8852 78.8882 46.3937M73.9822 51.2958L78.8882 46.3937M78.8882 46.3937C78.8786 46.1413 78.8642 45.9194 78.8522 45.7604M78.8882 46.3937L78.8522 45.7604M78.8522 45.7604C78.8461 45.6807 78.8407 45.6164 78.8367 45.5715M78.8522 45.7604L78.8367 45.5715M78.8367 45.5715L78.8319 45.5191M78.8367 45.5715L78.8319 45.5191M78.8319 45.5191L78.8305 45.5047M78.8319 45.5191L78.8305 45.5047M78.8305 45.5047L78.8301 45.5006M78.8305 45.5047L78.8301 45.5006M78.8301 45.5006L78.83 45.4994M78.8301 45.5006L78.83 45.4994M78.83 45.4994L78.8299 45.4989M78.83 45.4994L78.8299 45.4989M78.8299 45.4989L78.8299 45.4988M78.8299 45.4989L78.8299 45.4988M78.8299 45.4988C78.8299 45.4987 78.8299 45.4986 78.1173 45.5701L78.8299 45.4988ZM56.3917 51.3921L56.3917 51.392L56.3916 51.3912L56.391 51.3876L56.3887 51.3723L56.3798 51.3137C56.3722 51.2634 56.3619 51.193 56.351 51.1129C56.3284 50.9485 56.3053 50.7593 56.2953 50.6201C56.2449 49.9138 56.2727 49.5273 56.391 48.8097C56.451 48.4455 56.4797 48.2766 56.5752 47.9681C56.7234 47.4897 56.8544 47.2547 57.1358 46.7536L56.5114 46.4029L57.1358 46.7535C57.4435 46.2056 57.597 45.9437 57.9718 45.5312L57.4418 45.0495L57.9718 45.5312C58.2103 45.2687 58.371 45.1388 58.6515 44.9122C58.7046 44.8693 58.7619 44.823 58.8248 44.7717C58.8481 44.7527 58.8708 44.7342 58.8929 44.7161C59.2766 44.4029 59.4793 44.2375 59.8783 43.9977C60.2544 43.7716 60.433 43.6692 60.7941 43.5341C61.2281 43.3717 61.4734 43.3264 61.9785 43.2614C62.5874 43.183 62.9226 43.1953 63.5696 43.2633C64.1367 43.3229 64.4376 43.3858 64.9916 43.55C65.2249 43.6191 65.5331 43.7377 65.7976 43.8462C65.9266 43.8991 66.0397 43.9473 66.1203 43.9822C66.1606 43.9997 66.1926 44.0137 66.2142 44.0233L66.2246 44.0279L66.2291 44.0302C66.2369 44.0345 66.2465 44.0396 66.2576 44.0456C66.2708 44.0528 66.2862 44.0611 66.3034 44.0706C66.3672 44.1054 66.4562 44.1548 66.5562 44.2123C66.7629 44.3311 66.9926 44.471 67.1491 44.5859C67.5487 44.8791 67.7428 45.0545 68.0731 45.4233C68.2243 45.592 68.4094 45.8461 68.567 46.0764C68.6433 46.1879 68.7088 46.2874 68.7551 46.3589C68.775 46.3896 68.7913 46.415 68.8033 46.4338C68.8123 46.4534 68.8242 46.4795 68.8386 46.5111C68.8727 46.5864 68.9199 46.6919 68.9721 46.8123C69.0789 47.0585 69.1978 47.3474 69.2713 47.567C69.4843 48.2036 69.5716 48.5497 69.6534 49.1991C69.6995 49.5644 69.7013 50.0646 69.6882 50.4986C69.6818 50.7103 69.6721 50.8969 69.6641 51.0303C69.6601 51.0969 69.6565 51.15 69.654 51.186L69.651 51.2266L69.6503 51.2365L69.6501 51.2386L69.6501 51.2389L56.3917 51.3921ZM58.1709 38.9052C58.1709 38.9052 58.1698 38.9038 58.168 38.9012C58.1701 38.9038 58.171 38.9052 58.1709 38.9052Z" fill="#9FE4DD" stroke="#10524B" stroke-width="1.43232" stroke-linejoin="round"/>
<path d="M27.8758 30.5791L27.7017 29.8844L27.7016 29.8844L27.7013 29.8845L27.7003 29.8847L27.6966 29.8857L27.6828 29.8891L27.631 29.9023C27.5861 29.9138 27.5213 29.9304 27.4407 29.9515C27.2797 29.9935 27.055 30.0532 26.8 30.1239C26.295 30.2639 25.6524 30.4522 25.1502 30.6347C24.0764 31.0248 23.484 31.3039 22.4842 31.8153L22.8103 32.4529L22.4842 31.8153C21.856 32.1367 21.4211 32.3989 20.937 32.6908C20.7322 32.8143 20.5186 32.9431 20.2778 33.084C19.3843 33.6066 18.8804 33.9028 17.9924 34.444C17.1352 34.9663 16.6556 35.2652 15.8091 35.805C15.5505 35.9699 15.3631 36.0977 15.1935 36.2133C14.944 36.3835 14.7328 36.5275 14.3895 36.7252C14.2328 36.8154 14.0996 36.895 13.9802 36.9664C13.5794 37.2059 13.3344 37.3524 12.8786 37.4953C12.6092 37.5797 12.4519 37.6077 12.157 37.6603C12.119 37.6671 12.0787 37.6742 12.0356 37.682C11.6172 37.7573 11.2706 37.7043 10.8183 37.6352C10.7381 37.6229 10.6546 37.6101 10.5668 37.5975C9.9994 37.5158 9.30962 37.4596 8.53206 37.8514C8.50807 37.8635 8.48158 37.8761 8.45295 37.8898C8.29786 37.964 8.07977 38.0682 7.85386 38.275L8.33745 38.8033L7.85386 38.275C7.54575 38.5571 7.38993 38.8092 7.25269 39.1782C7.17824 39.3784 7.14499 39.6058 7.12876 39.7427C7.11968 39.8193 7.1139 39.8867 7.11035 39.9352C7.10856 39.9596 7.10731 39.9797 7.10647 39.9943L7.10551 40.0121L7.10524 40.0178L7.10515 40.0197L7.10511 40.0205L7.1051 40.0208L7.10509 40.021C7.10509 40.021 7.10508 40.0211 7.82056 40.0525L7.10508 40.0211C7.09652 40.2163 7.16808 40.4065 7.30317 40.5477C7.43827 40.6888 7.62517 40.7687 7.82056 40.7687H11.6478C11.678 40.7903 11.6963 40.8055 11.7046 40.8125C11.7103 40.8173 11.7114 40.8182 11.7084 40.8145C11.7183 40.8268 11.7218 40.8336 11.7225 40.8351C11.7231 40.8363 11.7232 40.8366 11.7233 40.8372L11.7234 40.8373C11.7237 40.839 11.7282 40.8589 11.7214 40.9147C11.714 40.9749 11.6973 41.0499 11.6671 41.1653C11.6614 41.1871 11.655 41.2111 11.6482 41.2367C11.623 41.3313 11.5916 41.4487 11.5662 41.5651C11.5232 41.7614 11.4908 41.8545 11.4027 42.0563C11.197 42.5275 10.999 42.7253 10.5274 43.1813L11.0253 43.6961L10.5274 43.1813C10.1992 43.4987 10.0663 43.626 9.75393 43.7951L10.0949 44.4249L9.75393 43.7951C9.34244 44.0178 9.09656 44.0769 8.5767 44.1286C8.46208 44.14 8.29191 44.1412 8.13071 44.1373C8.05428 44.1355 7.98682 44.1327 7.93866 44.1304L7.88307 44.1275L7.8691 44.1267L7.86603 44.1266L7.86575 44.1265C7.86572 44.1265 7.8657 44.1265 7.86568 44.1265L7.86562 44.1265C7.86562 44.1265 7.86561 44.1265 7.8656 44.1265C7.48297 44.1024 7.1492 44.3839 7.10845 44.7652L7.82056 44.8413C7.10845 44.7652 7.10844 44.7652 7.10844 44.7653L7.10842 44.7655L7.10836 44.766L7.10819 44.7676L7.10762 44.773L7.10563 44.7925L7.09862 44.8641C7.09277 44.9257 7.08477 45.0141 7.07591 45.1239C7.05822 45.3432 7.03701 45.6491 7.02285 45.997C6.99511 46.6783 6.99176 47.574 7.11462 48.2932C7.11926 48.3204 7.12368 48.3467 7.12802 48.3725C7.15444 48.53 7.17791 48.6699 7.23083 48.8734C7.23582 48.8925 7.24075 48.9116 7.24566 48.9305C7.3486 49.3279 7.43941 49.6785 7.74171 50.1316C8.02711 50.5594 8.2761 50.7725 8.63471 51.0383C9.04533 51.3426 9.3636 51.4667 9.72245 51.6067C9.75861 51.6208 9.79519 51.6351 9.83231 51.6497L10.0949 50.9834L9.83231 51.6497C10.5622 51.9373 11.027 52.0282 11.7728 52.1115C12.1455 52.1532 12.6001 52.1517 12.9393 52.1426C13.1136 52.1379 13.2667 52.1309 13.3764 52.125C13.4313 52.1221 13.4756 52.1194 13.5066 52.1175L13.5427 52.1152L13.5527 52.1145L13.5556 52.1143L13.5564 52.1142L13.5567 52.1142L13.5569 52.1142L13.5063 51.3998L13.5569 52.1142C13.9319 52.0876 14.2225 51.7757 14.2225 51.3998V49.3488L14.227 49.299C14.2316 49.2489 14.2384 49.1787 14.2471 49.0992C14.2649 48.9347 14.2883 48.7501 14.3133 48.6186C14.4047 48.1376 14.4919 47.8872 14.688 47.398C14.9335 46.7852 15.0747 46.4826 15.4309 45.9892C15.6588 45.6735 15.813 45.5167 16.1036 45.221C16.1307 45.1935 16.1589 45.1647 16.1885 45.1345C16.2688 45.0527 16.3385 44.9803 16.4014 44.9149C16.6623 44.6439 16.8074 44.493 17.1089 44.2916C17.417 44.0858 17.5982 44.011 18.003 43.8438L18.0182 43.8376C18.0719 43.8154 18.1223 43.7944 18.1698 43.7746C18.5898 43.5999 18.7886 43.5172 19.1753 43.4701C20.0346 43.3654 20.5655 43.4147 20.8564 43.4729C21.0017 43.5019 21.0877 43.5333 21.1261 43.5493C21.1358 43.5534 21.1426 43.5565 21.1466 43.5585C21.4668 43.7578 21.8905 43.6744 22.1101 43.3624C22.3371 43.04 22.2608 42.5948 21.9394 42.3664C21.4336 42.0069 20.7912 41.3526 20.2996 40.6041C19.7945 39.8354 19.5372 39.1033 19.5941 38.5665C19.6375 38.1577 19.7498 37.7732 19.9269 37.3753C20.5048 36.4822 22.0194 34.814 25.1648 33.4467C24.959 33.7098 24.8105 33.9835 24.7191 34.2679C24.495 34.9658 24.6562 35.5969 24.9215 36.0812C25.1797 36.5528 25.5511 36.9176 25.8328 37.1536C25.9774 37.2748 26.1078 37.3698 26.2035 37.4355C26.2515 37.4684 26.2914 37.4943 26.3205 37.5128C26.3351 37.5221 26.3471 37.5295 26.3562 37.535L26.3675 37.5419L26.3715 37.5443L26.373 37.5452L26.3737 37.5456C26.374 37.5458 26.3743 37.5459 26.7387 36.9294L26.3743 37.5459C26.4847 37.6111 26.6105 37.6455 26.7387 37.6455H31.2873H32.2177H32.2232H32.2288H32.2342H32.2397H32.2451H32.2504H32.2558H32.2611H32.2663H32.2715H32.2767H32.2818H32.2869H32.292H32.297H32.302H32.3069H32.3118H32.3167H32.3216H32.3264H32.3311H32.3359H32.3406H32.3452H32.3498H32.3544H32.359H32.3635H32.368H32.3724H32.3768H32.3812H32.3856H32.3899H32.3941H32.3984H32.4026H32.4068H32.4109H32.415H32.4191H32.4232H32.4272H32.4312H32.4351H32.439H32.4429H32.4468H32.4506H32.4544H32.4581H32.4619H32.4656H32.4692H32.4729H32.4765H32.4801H32.4836H32.4871H32.4906H32.4941H32.4975H32.5009H32.5043H32.5076H32.5109H32.5142H32.5175H32.5207H32.5239H32.5271H32.5302H32.5334H32.5365H32.5395H32.5426H32.5456H32.5486H32.5515H32.5545H32.5574H32.5603H32.5631H32.5659H32.5687H32.5715H32.5743H32.577H32.5797H32.5824H32.5851H32.5877H32.5903H32.5929H32.5955H32.598H32.6005H32.603H32.6055H32.6079H32.6103H32.6128H32.6151H32.6175H32.6198H32.6221H32.6244H32.6267H32.629H32.6312H32.6334H32.6356H32.6378H32.6399H32.642H32.6441H32.6462H32.6483H32.6503H32.6524H32.6544H32.6564H32.6583H32.6603H32.6622H32.6641H32.666H32.6679H32.6698H32.6716H32.6734H32.6753H32.677H32.6788H32.6806H32.6823H32.6841H32.6858H32.6875H32.6891H32.6908H32.6924H32.6941H32.6957H32.6973H32.6989H32.7004H32.702H32.7035H32.7051H32.7066H32.7081H32.7096H32.711H32.7125H32.7139H32.7154H32.7168H32.7182H32.7196H32.721H32.7223H32.7237H32.725H32.7264H32.7277H32.729H32.7303H32.7316H32.7329H32.7341H32.7354H32.7366H32.7379H32.7391H32.7403H32.7415H32.7427H32.7439H32.7451H32.7463H32.7474H32.7486H32.7497H32.7508H32.752H32.7531H32.7542H32.7553H32.7564H32.7575H32.7586H32.7596H32.7607H32.7618H32.7628H32.7639H32.7649H32.766H32.767H32.768H32.769H32.77H32.771H32.7721H32.7731H32.774H32.775H32.776H32.777H32.778H32.779H32.7799H32.7809H32.7819H32.7828H32.7838H32.7847H32.7857H32.7866H32.7876H32.7885H32.7895H32.7904H32.7914H32.7923H32.7932H32.7942H32.7951H32.796H32.797H32.7979H32.7988H32.7998H32.8007H32.8016H32.8026H32.8035H32.8045H32.8054H32.8063H32.8073H32.8082H32.8092H32.8101H32.8111H32.812H32.813H32.8139H32.8149H32.8158H32.8168H32.8178H32.8187H32.8197H32.8207H32.8217H32.8226H32.8236H32.8246H32.8256H32.8266H32.8276H32.8286H32.8297H32.8307H32.8317H32.8328H32.8338H32.8348H32.8359H32.837H32.838H32.8391H32.8402H32.8413H32.8424H32.8435H32.8446H32.8457H32.8468H32.8479H32.8491H32.8502H32.8514H32.8526H32.8537H32.8549H32.8561H32.8573H32.8585H32.8598H32.861H32.8622H32.8635H32.8647H32.866H32.8673H32.8686H32.8699H32.8712H32.8726H32.8739H32.8753H32.8766H32.878H32.8794H32.8808H32.8822H32.8836H32.8851H32.8865H32.888H32.8895H32.891H32.8925H32.894H32.8956H32.8971H32.8987H32.9003H32.9019H32.9035H32.9051H32.9067H32.9084H32.9101H32.9118H32.9135H32.9152H32.9169H32.9187H32.9205H32.9223H32.9241H32.9259H32.9277H32.9296H32.9315H32.9333H32.9353H32.9372H32.9391H32.9411H32.9431H32.9451H32.9471H32.9492H32.9512H32.9533H32.9554H32.9575H32.9597H32.9618H32.964H32.9662H32.9685H32.9707H32.973H32.9753H32.9776H32.9799H32.9823H32.9846H32.987H32.9894H32.9919H32.9944H32.9968H32.9994H33.0019H33.0044H33.007H33.0096H33.0123H33.0149H33.0176H33.0203H33.023H33.0258H33.0286H33.0314H33.0342H33.037H33.0399H33.0428H33.0457H33.0487H33.0517H33.0547H33.0577H33.0608H33.0639H33.067H33.0701H33.0733H33.0765H33.0797H33.083H33.0863H33.0896H33.0929H33.0963H33.0997H33.1031H33.1065H33.11H33.1135H33.1171H33.1206H33.1242H33.1279H33.1315H33.1352H33.139H33.1427H33.1465H33.1503H33.1542H33.158H33.162H33.1659H33.1699H33.1739H33.1779H33.182H33.1861H33.1902H33.1944H33.1986H33.2028H33.2071H33.2114H33.2158H33.2201H33.2245H33.229H33.2334H33.238H33.2425H33.2471H33.2517H33.2564H33.261H33.2658H33.2705H33.2753H33.2801H33.285H33.2899H33.2949H33.2998H33.3048H33.3099H33.315H33.3201H33.3253H33.3305H33.3357H33.341H33.3463H33.3517H33.3571H33.3625H33.368H33.3735H33.379H33.3846H33.3903H33.3959H33.4016H33.4074H33.4132H33.419H33.4249H33.4308H33.4368H33.4428H33.4488H33.4549H33.461H33.4672H33.4734H33.4796H33.4859H33.4922H33.4986H33.505H33.5115H33.518H33.5246H33.5312H33.5378H33.5445H33.5512H33.558H33.5648H33.5716H33.5785H33.5855H33.5925H33.5995H33.6066H33.6137H33.6209H33.6281H33.6354H33.6427H33.6501H33.6575H33.665H36.6629C37.0532 37.6455 37.3717 37.333 37.379 36.9428L37.5016 30.3842C37.5051 30.192 37.4313 30.0064 37.2966 29.8692C37.162 29.732 36.9778 29.6547 36.7855 29.6547H35.2185V29.9008C35.2185 29.9008 35.2185 29.9008 35.2185 29.9008L35.2185 29.6547H35.2184H35.218H35.2164H35.21L35.1847 29.6547L35.0864 29.6547L34.7156 29.6547L33.4119 29.6547L29.6312 29.6547C29.367 29.6547 28.875 29.7153 28.5037 29.7652C28.3061 29.7917 28.1221 29.8182 27.9877 29.838C27.9204 29.8479 27.8654 29.8562 27.827 29.862L27.7824 29.8688L27.7705 29.8707L27.7674 29.8712L27.7665 29.8713L27.7663 29.8713L27.7662 29.8713L27.8758 30.5791ZM27.8758 30.5791L27.7017 29.8844C27.723 29.879 27.7445 29.8747 27.7662 29.8713L27.8758 30.5791ZM21.1163 43.5386C21.1165 43.5387 21.1167 43.5388 21.1169 43.539L21.1168 43.5389L21.1163 43.5386ZM21.1163 43.5386C21.1161 43.5384 21.116 43.5383 21.1158 43.5382C21.1158 43.5382 21.1158 43.5382 21.1158 43.5382L21.1163 43.5386Z" fill="#9FE4DD" stroke="#10524B" stroke-width="1.43232" stroke-linejoin="round"/>
<path d="M30.3569 37.9831L30.3425 37.9832L25.1808 38.0872H20.7428H20.1799C19.9863 38.0872 19.801 38.1655 19.6661 38.3044C19.5312 38.4433 19.4583 38.6308 19.464 38.8243C19.5199 40.7313 20.8982 42.0661 22.1018 42.9739C22.6739 43.4054 23.3013 43.6808 23.8389 43.9168C23.9343 43.9587 24.0269 43.9993 24.1158 44.0394C24.7315 44.3167 25.2434 44.5897 25.6801 45.0643C26.8286 46.3126 27.4793 48.142 27.5732 49.8575V51.3999C27.5732 51.7954 27.8938 52.116 28.2893 52.116H36.3677C36.7632 52.116 37.0838 51.7954 37.0838 51.3999V38.8033C37.0838 38.4608 36.8414 38.1663 36.5053 38.1005L35.9735 37.9964C35.9282 37.9875 35.8821 37.9831 35.8359 37.9831H30.3569Z" fill="#9FE4DD" stroke="#10524B" stroke-width="1.43232" stroke-linejoin="round"/>
<path d="M53.4697 34.0257L53.4698 34.0256L53.459 34.0194L53.2944 34.3036C53.2944 34.3036 53.2943 34.3036 53.2943 34.3036L53.459 34.0193L53.4589 34.0193L53.4586 34.0191L53.4574 34.0184L53.4526 34.0157L53.4339 34.0048L53.3615 33.9629L53.0925 33.8072C52.8638 33.6749 52.5441 33.4901 52.1801 33.2801C51.4524 32.8603 50.5463 32.3389 49.8361 31.9346C48.4168 31.1266 46.3387 30.2301 45.4984 29.9098C45.1985 29.7955 44.8183 29.7375 44.448 29.703C44.063 29.6671 43.6262 29.6515 43.1821 29.646C42.657 29.6395 42.077 29.6472 41.5463 29.6544C41.203 29.659 40.8804 29.6633 40.6066 29.6633L38.3278 29.6633L37.4364 29.6633L37.1734 29.6633L37.1026 29.6633L37.0843 29.6633H37.0796H37.0784H37.0781H37.0781L37.078 30.3795V29.6633C36.6825 29.6633 36.3619 29.9839 36.3619 30.3795L36.3619 37.0652C36.3619 37.2602 36.4414 37.4469 36.5821 37.5819C36.7229 37.717 36.9126 37.7888 37.1075 37.7808L40.3993 37.6455H40.4007H40.4027H40.4047H40.4067H40.4087H40.4107H40.4127H40.4147H40.4166H40.4186H40.4206H40.4225H40.4245H40.4265H40.4284H40.4304H40.4323H40.4343H40.4362H40.4381H40.4401H40.442H40.4439H40.4458H40.4478H40.4497H40.4516H40.4535H40.4554H40.4573H40.4592H40.4611H40.463H40.4649H40.4668H40.4687H40.4706H40.4725H40.4744H40.4762H40.4781H40.48H40.4819H40.4837H40.4856H40.4875H40.4893H40.4912H40.493H40.4949H40.4968H40.4986H40.5005H40.5023H40.5041H40.506H40.5078H40.5097H40.5115H40.5133H40.5152H40.517H40.5188H40.5206H40.5225H40.5243H40.5261H40.5279H40.5297H40.5316H40.5334H40.5352H40.537H40.5388H40.5406H40.5424H40.5442H40.546H40.5478H40.5496H40.5514H40.5532H40.555H40.5568H40.5586H40.5604H40.5622H40.564H40.5658H40.5676H40.5694H40.5712H40.5729H40.5747H40.5765H40.5783H40.5801H40.5819H40.5837H40.5854H40.5872H40.589H40.5908H40.5926H40.5943H40.5961H40.5979H40.5997H40.6015H40.6032H40.605H40.6068H40.6086H40.6103H40.6121H40.6139H40.6157H40.6174H40.6192H40.621H40.6228H40.6245H40.6263H40.6281H40.6299H40.6317H40.6334H40.6352H40.637H40.6388H40.6405H40.6423H40.6441H40.6459H40.6477H40.6494H40.6512H40.653H40.6548H40.6566H40.6584H40.6602H40.6619H40.6637H40.6655H40.6673H40.6691H40.6709H40.6727H40.6745H40.6763H40.6781H40.6798H40.6816H40.6834H40.6852H40.687H40.6888H40.6906H40.6925H40.6943H40.6961H40.6979H40.6997H40.7015H40.7033H40.7051H40.7069H40.7088H40.7106H40.7124H40.7142H40.7161H40.7179H40.7197H40.7215H40.7234H40.7252H40.727H40.7289H40.7307H40.7326H40.7344H40.7363H40.7381H40.74H40.7418H40.7437H40.7455H40.7474H40.7493H40.7511H40.753H40.7549H40.7567H40.7586H40.7605H40.7624H40.7642H40.7661H40.768H40.7699H40.7718H40.7737H40.7756H40.7775H40.7794H40.7813H40.7832H40.7851H40.7871H40.789H40.7909H40.7928H40.7948H40.7967H40.7986H40.8006H40.8025H40.8045H40.8064H40.8084H40.8103H40.8123H40.8143H40.8162H40.8182H40.8202H40.8221H40.8241H40.8261H40.8281H40.8301H40.8321H40.8341H40.8361H40.8381H40.8401H40.8421H40.8442H40.8462H40.8482H40.8502H40.8523H40.8543H40.8564H40.8584H40.8605H40.8625H40.8646H40.8667H40.8687H40.8708H40.8729H40.875H40.8771H40.8792H40.8812H40.8834H40.8855H40.8876H40.8897H40.8918H40.8939H40.8961H40.8982H40.9003H40.9025H40.9046H40.9068H40.909H40.9111H40.9133H40.9155H40.9177H40.9198H40.922H40.9242H40.9264H40.9286H40.9309H40.9331H40.9353H40.9375H40.9398H40.942H40.9443H40.9465H40.9488H40.951H40.9533H40.9556H40.9579H40.9601H40.9624H40.9647H40.967H40.9693H40.9717H40.974H40.9763H40.9786H40.981H40.9833H40.9857H40.988H40.9904H40.9928H40.9952H40.9975H40.9999H41.0023H41.0047H41.0071H41.0096H41.012H41.0144H41.0168H41.0193H41.0217H41.0242H41.0267H41.0291H41.0316H41.0341H41.0366H41.0391H41.0416H41.0441H41.0466H41.0491H41.0517H41.0542H41.0567H41.0593H41.0619H41.0644H41.067H41.0696H41.0722H41.0748H41.0774H41.08H41.0826H41.0852H41.0879H41.0905H41.0931H41.0958H41.0985H41.1011H41.1038H41.1065H41.1092H41.1119H41.1146H41.1173H41.1201H41.1228H41.1255H41.1283H41.1311H41.1338H41.1366H41.1394H41.1422H41.145H41.1478H41.1506H41.1534H41.1563H41.1591H41.1619H41.1648H41.1677H41.1705H41.1734H41.1763H41.1792H41.1821H41.185H41.188H41.1909H41.1939H41.1968H41.1998H41.2027H41.2057H41.2087H41.2117H41.2147H41.2177H41.2208H41.2238H41.2268H41.2299H41.233H41.236H41.2391H41.2422H41.2453H41.2484H41.2515H41.2546H41.2578H41.2609H41.2641H41.2673H41.2704H41.2736H41.2768H41.28H41.2832H41.2864H41.2897H41.2929H41.2962H41.2994H41.3027H41.306H41.3093H41.3126H41.3159H41.3192H41.3226H41.3259H41.3293H41.3326H41.336H41.3394H41.3428H41.3462H41.3496H41.353H41.3565H41.3599H41.3634H41.3668H41.3703H41.3738H41.3773H41.3808H41.3843H41.3879H41.3914H41.395H41.3985H41.4021H41.4057H41.4093H41.4129H41.4165H41.4202H41.4238H41.4275H41.4311H41.4348H41.4385H41.4422H41.4459H41.4496H41.4533H41.4571H41.4608H41.4646H41.4684H41.4722H41.476H41.4798H41.4836H41.4875H41.4913H41.4952H41.499H41.5029H41.5068H41.5107H41.5146H41.5186H41.5225H41.5265H41.5304H41.5344H41.5384H41.5424H41.5464H41.5505H41.5545H41.5586H41.5626H41.5667H41.5708H41.5749H41.579H41.5831H41.5873H41.5914H41.5956H41.5998H41.6039H41.6081H41.6124H41.6166H41.6208H41.6251H45.5515C45.5763 37.6455 45.6011 37.6442 45.6258 37.6416L45.5515 36.9293C45.6258 37.6416 45.6259 37.6416 45.626 37.6416L45.6263 37.6416L45.6271 37.6415L45.6297 37.6412L45.6388 37.6402L45.6717 37.6366C45.7001 37.6334 45.741 37.6287 45.7927 37.6225C45.896 37.61 46.043 37.5912 46.2199 37.566C46.5726 37.5157 47.0505 37.4387 47.543 37.3325C48.0294 37.2275 48.5581 37.0881 48.9999 36.9062C49.2204 36.8155 49.4439 36.7042 49.6363 36.5655C49.8205 36.4327 50.0388 36.2298 50.1511 35.9348C50.153 35.9298 50.1558 35.9229 50.1594 35.9143C50.2053 35.8031 50.3716 35.4001 50.2291 34.9032C50.1467 34.6161 49.9801 34.3476 49.7267 34.0945C49.7635 34.1112 49.8004 34.128 49.8373 34.1449C50.6466 34.5158 51.0863 34.7436 51.8798 35.1717C52.0346 35.2552 52.1748 35.3298 52.3053 35.3992C52.8522 35.6904 53.2287 35.8907 53.7934 36.2731C54.4556 36.7214 55.3959 37.3494 55.9286 37.6236L56.1027 37.2853L55.9286 37.6236C56.0858 37.7045 56.3607 37.8273 56.6666 37.7718C56.8534 37.738 57.0343 37.6399 57.1647 37.473C57.2835 37.321 57.322 37.1612 57.3351 37.0567C57.3592 36.8631 57.3161 36.6933 57.2971 36.6248C57.2847 36.5798 57.2717 36.5416 57.2617 36.5142C57.2566 36.5002 57.252 36.4882 57.2483 36.4787L57.2432 36.4662L57.2412 36.4613L57.2403 36.4592L57.2399 36.4582L57.2397 36.4577C57.2396 36.4575 57.2395 36.4573 56.5801 36.7369L57.2395 36.4573C57.1805 36.3183 57.0792 36.2015 56.9499 36.1235L53.4697 34.0257Z" fill="#9FE4DD" stroke="#10524B" stroke-width="1.43232" stroke-linejoin="round"/>
<path d="M21.5363 43.712C21.0819 43.6674 20.8072 43.6738 20.3715 43.7112C16.6128 44.0333 13.8166 47.0648 14.56 51.0117C14.7074 51.7947 15.0296 52.6723 15.4967 53.4507C15.9597 54.2225 16.6021 54.9574 17.4227 55.3706C17.4377 55.3782 17.4528 55.3858 17.4678 55.3933C18.3187 55.8219 19.2326 56.2822 20.3705 56.3814C20.9654 56.4332 21.5551 56.3968 22.1434 56.2619C23.1804 56.024 24.257 55.4521 25.0462 54.7433C25.8918 53.984 26.518 53.0025 26.8955 51.9547C27.074 51.4594 27.1843 51.1202 27.2443 50.5359C27.5383 47.674 25.6776 44.9891 23.0486 44.0617C22.5014 43.8686 22.1442 43.7716 21.5363 43.712ZM19.5145 46.8763C19.8768 46.76 20.0745 46.7292 20.4825 46.7007C21.6447 46.6196 22.9769 47.1355 23.709 48.0081C24.0963 48.4698 24.2996 49.0375 24.3727 49.7076C24.4157 50.102 24.4296 50.2539 24.3788 50.5497C24.123 52.0386 22.7492 53.3005 21.2672 53.5007C20.8979 53.5506 20.7039 53.5467 20.3115 53.4994C18.8273 53.3207 17.6086 52.1486 17.3103 50.6364C16.987 48.998 17.9449 47.3805 19.5145 46.8763Z" fill="#9FE4DD" stroke="#10524B" stroke-width="1.43232" stroke-linejoin="round"/>
<path d="M69.3214 50.3143C69.2072 48.4736 68.5167 46.7458 67.314 45.5088C66.0993 44.2597 64.392 43.5449 62.3461 43.7109C59.5215 43.9402 57.0498 45.8346 56.5642 49.323C56.0677 52.8894 58.7238 56.083 62.4501 56.3818C65.8755 56.6565 69.5674 54.2773 69.3214 50.3143ZM59.4947 49.5232C59.6069 48.7395 59.9011 48.1392 60.3255 47.7007C60.7507 47.2613 61.346 46.9441 62.1261 46.7936C63.4034 46.5473 64.4955 46.8849 65.2693 47.5602C66.0485 48.2402 66.5466 49.2998 66.5466 50.5669C66.5466 51.4871 66.0552 52.2971 65.2654 52.8524C64.4708 53.4112 63.4201 53.674 62.4204 53.5044C61.5196 53.3516 60.7297 52.7547 60.1835 51.952C59.6317 51.141 59.3953 50.2175 59.4947 49.5232Z" fill="#9FE4DD" stroke="#10524B" stroke-width="1.43232" stroke-linejoin="round"/>
<path d="M77.2008 43.74L77.2194 44.4559C77.4579 44.4497 77.6776 44.3252 77.8054 44.1238C77.9332 43.9224 77.9524 43.6706 77.8566 43.4522L77.2008 43.74ZM77.2008 43.74L77.2194 44.4559L77.2193 44.4559L77.2191 44.4559L77.2185 44.4559L77.2164 44.456L77.2086 44.4562L77.1793 44.4569L77.072 44.4591C76.9811 44.4609 76.8542 44.4631 76.7096 44.4645C76.4239 44.4673 76.0568 44.4675 75.763 44.4555C75.6843 44.4523 75.609 44.4496 75.536 44.4469C75.0729 44.4299 74.7024 44.4164 74.1443 44.3158C73.4408 44.1891 73.0395 44.059 72.3973 43.8119L72.3824 43.8062C71.9664 43.6461 71.6859 43.5382 71.2495 43.289C71.1053 43.2066 71.0089 43.1589 70.9054 43.1076C70.8424 43.0764 70.7768 43.0439 70.6962 43.0015C70.4957 42.8961 70.2984 42.7738 70.065 42.5659C70.057 42.5588 70.039 42.5433 70.0157 42.5234C69.9567 42.4728 69.8639 42.3932 69.8143 42.3463C69.7302 42.2667 69.5656 42.1029 69.4814 41.8629C69.4152 41.674 69.4288 41.4931 69.4333 41.4367C69.4367 41.3934 69.4417 41.3563 69.4458 41.3297C69.4479 41.3162 69.4499 41.3045 69.4516 41.2953L69.4539 41.2831L69.4549 41.2783L69.4553 41.2763L69.4555 41.2753L69.4555 41.2749L69.4556 41.2747C69.4556 41.2746 69.4556 41.2745 70.1573 41.4178L69.4556 41.2745C69.5226 40.9465 69.8079 40.7087 70.1426 40.7018L75.1828 40.5982L75.1893 40.5976C75.2123 40.5958 75.244 40.5935 75.2807 40.592C75.3393 40.5896 75.4647 40.5861 75.5915 40.6081C75.8415 40.6516 76.0251 40.7551 76.1676 40.8668C76.2283 40.9144 76.2816 40.9638 76.3158 40.9954L76.3171 40.9966L76.3213 41.0005C76.3581 41.0345 76.3811 41.0558 76.4067 41.0774C76.8109 41.4164 77.0148 41.7989 77.1746 42.0988C77.2142 42.173 77.251 42.2421 77.2876 42.3043L76.6954 42.6522L77.2876 42.3043C77.4229 42.5346 77.5668 42.8269 77.6716 43.0483C77.7252 43.1617 77.7711 43.2619 77.8037 43.3338C77.82 43.3699 77.833 43.399 77.842 43.4193L77.8525 43.443L77.8554 43.4495L77.8562 43.4513L77.8565 43.4519L77.8565 43.4521L77.8566 43.4522L77.2008 43.74Z" fill="#9FE4DD" stroke="#10524B" stroke-width="1.43232" stroke-linejoin="round"/>
<path d="M7.92396 43.0714L7.96173 43.7866L7.96182 43.7866L7.96206 43.7866L7.96279 43.7865L7.96525 43.7864L7.97402 43.7859L8.00602 43.7841C8.03339 43.7825 8.07244 43.7801 8.12016 43.777C8.21532 43.7708 8.34628 43.7614 8.48852 43.749C8.74435 43.7267 9.12757 43.6877 9.3672 43.6195C9.78721 43.4999 10.0715 43.3081 10.2963 43.1564C10.3114 43.1462 10.3262 43.1362 10.3407 43.1265L9.94154 42.5319L10.3407 43.1265C10.484 43.0303 10.716 42.8586 10.9153 42.6657C11.0131 42.571 11.1278 42.4477 11.2182 42.3067C11.2896 42.1951 11.4475 41.9193 11.3778 41.5757L10.676 41.718L11.3778 41.5757C11.3297 41.3384 11.183 41.1938 11.0845 41.1227C10.9899 41.0545 10.8994 41.0225 10.8504 41.0075C10.7507 40.9771 10.6578 40.969 10.6073 40.9658C10.4945 40.9585 10.372 40.964 10.2798 40.97C10.181 40.9766 10.0857 40.9861 10.017 40.9937C9.98211 40.9976 9.95293 41.0011 9.93212 41.0037L9.92901 41.0041L7.78628 41.1068C7.40453 41.1251 7.10443 41.44 7.10443 41.8222V42.9673C7.10443 43.1564 7.17919 43.3378 7.31242 43.4719L7.41579 43.576C7.55948 43.7207 7.75803 43.7973 7.96166 43.7866L7.92396 43.0714Z" fill="#9FE4DD" stroke="#10524B" stroke-width="1.43232" stroke-linejoin="round"/>
</svg>
