<svg width="25" height="25" viewBox="0 0 25 25" fill="none" xmlns="http://www.w3.org/2000/svg">
<path opacity="0.4" d="M9.64869 5.02237L18.2087 9.30237C22.0487 11.2224 22.0487 14.3624 18.2087 16.2824L9.64869 20.5624C3.88869 23.4424 1.53869 21.0824 4.41869 15.3324L5.28869 13.6024C5.53869 13.0924 5.53869 12.5024 5.28869 11.9924L4.41869 10.2524C1.53869 4.50237 3.89869 2.14237 9.64869 5.02237Z" fill="#2EC4B6"/>
<path d="M14.9786 13.5425H9.57861C9.16861 13.5425 8.82861 13.2025 8.82861 12.7925C8.82861 12.3825 9.16861 12.0425 9.57861 12.0425H14.9786C15.3886 12.0425 15.7286 12.3825 15.7286 12.7925C15.7286 13.2025 15.3886 13.5425 14.9786 13.5425Z" fill="#2EC4B6"/>
</svg>
