<svg width="16" height="17" viewBox="0 0 16 17" fill="none" xmlns="http://www.w3.org/2000/svg">
<path opacity="0.4" d="M10.9934 15.1268H5.00672C2.66672 15.1268 2.16006 13.7868 2.35339 12.1468L2.95339 7.14679C3.10672 5.85346 3.33339 4.79346 5.60006 4.79346H10.4001C12.6667 4.79346 12.8934 5.85346 13.0467 7.14679L13.5467 11.3135L13.6467 12.1468C13.6534 12.2001 13.6601 12.2534 13.6667 12.3068C13.8067 13.8735 13.2601 15.1268 10.9934 15.1268Z" fill="#10524B"/>
<path d="M10.6666 6.29346C10.3933 6.29346 10.1666 6.06679 10.1666 5.79346V3.46012C10.1666 2.74012 9.71992 2.29346 8.99992 2.29346H6.99992C6.27992 2.29346 5.83325 2.74012 5.83325 3.46012V5.79346C5.83325 6.06679 5.60659 6.29346 5.33325 6.29346C5.05992 6.29346 4.83325 6.06679 4.83325 5.79346V3.46012C4.83325 2.18679 5.72659 1.29346 6.99992 1.29346H8.99992C10.2733 1.29346 11.1666 2.18679 11.1666 3.46012V5.79346C11.1666 6.06679 10.9399 6.29346 10.6666 6.29346Z" fill="#10524B"/>
<path d="M13.6666 12.3068C13.6466 12.3135 13.6266 12.3135 13.6066 12.3135H5.33325C5.05992 12.3135 4.83325 12.0868 4.83325 11.8135C4.83325 11.5335 5.05992 11.3135 5.33325 11.3135H13.5466L13.6466 12.1468C13.6533 12.2001 13.6599 12.2535 13.6666 12.3068Z" fill="#10524B"/>
</svg>
