<svg width="60" height="61" viewBox="0 0 60 61" fill="none" xmlns="http://www.w3.org/2000/svg">
<rect y="0.89624" width="60" height="60" rx="14" fill="#E1F5F3"/>
<circle cx="30" cy="30.8962" r="25" fill="#9FE4DD"/>
<path d="M14.624 20.4574C15.8838 20.4819 20.1767 20.488 24.1578 20.4758C31.325 20.4513 31.3983 20.4513 31.594 20.5736C31.7653 20.6776 31.8998 20.6959 32.6092 20.6959C33.9423 20.6959 34.615 20.9038 35.5078 21.5826C37.7399 23.2827 40.3267 25.1968 41.189 25.7839C41.721 26.1447 41.8372 26.1997 42.0757 26.1997C42.4487 26.1997 44.6869 26.4137 45.8733 26.5666C46.3931 26.6278 47.341 26.7256 47.9831 26.7807C49.3346 26.8968 50.6432 27.0742 51.1569 27.2087C51.9886 27.4289 52.753 28.0221 53.1322 28.7376C53.2361 28.9394 53.4991 29.6977 53.707 30.4193L54.0862 31.7341L54.0739 33.214C54.0617 34.859 54.0311 35.018 53.6703 35.4827C53.2606 36.0087 52.7714 36.2472 51.958 36.3144C51.6889 36.3389 51.108 36.4062 50.6738 36.4734C50.2335 36.5407 49.7565 36.608 49.6036 36.6263L49.3223 36.663L49.2245 37.14C49.0104 38.1674 48.6374 38.8462 47.818 39.6656C47.0352 40.3704 45.8788 40.8296 45.3779 40.8525C46.6565 40.8352 27.9241 41.0752 16.7399 41.0752C15.3701 41.0752 13.8352 40.216 13.8596 40.1976C13.878 40.1732 13.7251 39.9958 13.5172 39.8002C13.0035 39.3109 12.4531 38.5649 12.1535 37.9411C11.9516 37.513 11.8966 37.3418 11.8844 36.9871L11.8599 36.5529L11.2117 36.5101C10.3311 36.4612 7.2612 35.9475 6.91875 35.7946C6.58241 35.6417 6.34391 35.4277 6.13599 35.0669C5.97087 34.7917 5.97087 34.7734 5.93418 33.2629C5.89749 32.0154 5.90972 31.6912 5.97699 31.5139C6.04426 31.3549 6.08095 30.7923 6.11153 29.2818C6.16045 27.3371 6.16656 27.2576 6.30721 26.9335C6.45398 26.6033 7.35293 24.8971 7.98281 23.7536C8.16016 23.4356 8.52096 22.7751 8.79003 22.2859C9.52387 20.9283 9.70208 20.4574 10.705 20.4574C11.1756 20.4574 11.6003 20.3733 12.0801 20.4024C12.2146 20.4085 13.3643 20.433 14.624 20.4574ZM10.8509 21.601C10.4534 21.6132 10.3984 21.6744 9.92136 22.5305C9.19364 23.827 7.95835 26.1385 7.95835 26.1997C7.95835 26.2364 8.18462 26.2609 8.50261 26.2609C9.0163 26.2609 9.05299 26.2547 9.0958 26.1202C9.11414 26.0468 9.34041 25.6249 9.59725 25.1907C9.84798 24.7504 10.2088 24.1327 10.3922 23.8147C10.961 22.824 11.23 22.4816 11.493 22.4204C11.6153 22.3899 13.3643 22.3715 15.3701 22.3776C19.1738 22.3899 19.2105 22.396 19.2105 22.6467C19.2105 22.7017 19.1677 22.824 19.1127 22.928C19.0576 23.0259 18.7519 23.619 18.4339 24.2428C17.5288 26.004 17.1925 26.6155 17.0274 26.8173C16.8684 27.0069 16.5442 27.1965 16.2752 27.2576C16.1896 27.276 14.1532 27.3005 11.7376 27.3127L7.35905 27.331L7.32235 27.5634C7.29789 27.6918 7.29789 27.8203 7.31624 27.8569C7.3407 27.8875 7.76877 27.912 8.27634 27.912H9.19364L9.39545 28.1138C9.57279 28.2911 9.60337 28.3706 9.64006 28.7376C9.67064 28.976 9.67064 29.5692 9.65229 30.0646L9.62172 30.9696H10.2638H10.9059L11.4318 30.4621C12.184 29.7466 12.4409 29.5509 13.0341 29.2574C13.8596 28.8415 14.728 28.6519 16.1223 28.5847C16.7583 28.5541 17.4738 28.5296 17.7 28.5235H18.1159L18.0731 27.9242L18.0364 27.331L19.076 25.2824C19.6508 24.1572 20.2257 23.0442 20.3541 22.8057L20.5865 22.3776H27.0748H33.557L33.7955 22.5672C33.9301 22.665 34.2175 22.873 34.4377 23.0197C34.9452 23.3622 35.8748 24.0899 36.4496 24.6036C37.3485 25.4108 37.2262 25.3436 37.7399 25.3436H38.2047L38.645 25.7044C39.3972 26.3159 39.3299 26.0468 39.3299 28.5296V30.6944L39.599 30.3826C39.9475 29.9851 40.8159 29.398 41.4397 29.1412C41.7026 29.0311 42.1858 28.8721 42.5037 28.7926C43.5984 28.5113 45.6409 28.5296 46.8273 28.8354C47.9219 29.1106 49.3468 30.0523 50.0256 30.9513C50.2641 31.2632 50.6983 32.2967 50.8756 32.9571C51.0101 33.4708 51.1325 34.4126 51.1325 34.9446V35.2504L51.7256 35.2442C52.9304 35.2381 52.9793 35.1709 53.016 33.3179C53.0343 32.6024 53.0282 31.9542 53.0037 31.8686C52.967 31.7218 52.9609 31.7157 52.0864 31.6912C51.212 31.6668 51.2058 31.6668 50.8573 31.4527C50.3925 31.1776 50.0134 30.7373 49.7259 30.1441C49.4691 29.6243 49.2673 28.8904 49.3284 28.707C49.3774 28.5541 49.5302 28.5235 50.4598 28.5174C51.4443 28.5113 51.6094 28.4746 51.2853 28.3217C50.9857 28.1811 50.2029 28.0649 48.509 27.912C47.7201 27.8386 46.7845 27.7469 46.4298 27.6979C46.0751 27.6551 45.2312 27.5573 44.5585 27.4839C41.3235 27.1476 41.3541 27.1537 40.7364 26.7807C40.553 26.6645 40.1677 26.3893 39.8803 26.1691C39.0425 25.5148 35.2999 22.7017 34.8902 22.4143C34.6823 22.2737 34.2542 22.0413 33.9423 21.9006L33.3675 21.6438L31.0131 21.6132C28.9461 21.5888 11.6826 21.5765 10.8509 21.601ZM29.6555 23.4906C29.6432 23.5212 29.6432 24.1327 29.6555 24.8543L29.6738 26.1691L32.2912 26.1814L34.9085 26.1936L34.9819 25.9551C35.0614 25.6738 35.306 25.368 35.4895 25.313C35.5996 25.2763 35.5873 25.2457 35.3183 25.0011C35.1531 24.8482 34.6333 24.4385 34.1686 24.0899L33.3185 23.4478H31.4962C30.4933 23.4478 29.6677 23.4662 29.6555 23.4906ZM22.5128 23.8208C22.5128 24.0104 22.5311 24.6219 22.5556 25.1846L22.5923 26.2058L24.7999 26.1691L27.9677 26.2227V25.0371C27.986 24.5235 27.9432 24.2436 27.9677 24.0356V23.5349L26.7813 23.4967C26.5672 23.4845 25.5215 23.4784 24.4575 23.4784H22.5128V23.8208ZM20.935 24.1327C20.6782 24.6219 19.8221 26.2242 19.8221 26.2303C19.8221 26.2303 20.1767 26.2242 20.617 26.2119L21.412 26.1936V24.8604C21.412 23.7046 21.3937 23.4478 21.3142 23.4478C21.3081 23.4478 21.1368 23.7597 20.935 24.1327ZM11.7865 23.7413C11.4318 24.1816 10.3433 26.0407 10.4106 26.1019C10.4289 26.1202 11.7193 26.1385 13.2787 26.1385C15.9511 26.1447 16.1223 26.1385 16.2018 26.0346C16.2874 25.9184 16.5137 25.5331 17.0518 24.5791C17.5716 23.6618 17.6205 23.5701 17.6205 23.509C17.6205 23.4723 16.5871 23.4478 14.8197 23.4478H12.025L11.7865 23.7413ZM36.0154 26.426C36.0032 26.4565 36.0032 26.7012 36.0154 26.9763L36.0399 27.4839H37.055C37.6176 27.4839 38.113 27.4595 38.1619 27.4289C38.2353 27.38 38.223 27.2943 38.0701 26.9091C37.9784 26.6583 37.8561 26.4382 37.8011 26.4198C37.6298 26.377 36.0337 26.3832 36.0154 26.426ZM28.995 28.0954C28.995 28.548 28.9828 30.138 28.9644 31.624L28.9339 34.3331L32.2361 34.3453C34.0524 34.3575 36.1071 34.3636 36.8043 34.3636H38.0701L38.168 33.8438C38.223 33.5564 38.3637 33.0366 38.4738 32.688C38.6756 32.0582 38.6756 32.0459 38.5716 31.8625C38.431 31.624 38.3576 30.8596 38.3514 29.5876L38.3392 28.5969L38.064 28.5602C37.9111 28.5419 37.3669 28.5235 36.8593 28.5235C35.8381 28.5235 35.624 28.4868 35.3366 28.2422C35.0431 27.9976 34.9269 27.7897 34.9269 27.5023V27.2393L31.9609 27.2576L28.995 27.2699V28.0954ZM23.1977 27.3127L19.0882 27.3249L18.9537 27.4656C18.8253 27.6001 18.7335 27.9854 18.7274 28.4318C18.7213 28.5969 18.7519 28.6275 19.0148 28.7253C19.8098 29.0005 20.4886 29.3797 20.9901 29.8077C22.3049 30.9329 22.9225 32.0215 23.1794 33.6604L23.2772 34.3025H25.5643H27.8576L27.9065 34.119C27.9371 34.0151 27.9554 33.373 27.9432 32.6819C27.931 31.9909 27.931 30.4804 27.9432 29.3246L27.9677 27.2699L27.6374 27.2638C27.4251 27.2699 25.4604 27.3066 23.1977 27.3127ZM7.2184 29.6059C7.21228 30.2541 7.2184 30.4315 7.26732 30.4804C7.27955 30.4988 7.58531 30.5232 7.93389 30.5293L8.56988 30.5538V29.7833V29.0127H7.89719H7.22451L7.2184 29.6059ZM15.0215 29.6671C13.6211 29.875 12.2146 30.725 11.7498 31.6423L11.6153 31.9175L11.756 31.7952C11.8355 31.7218 12.0434 31.5445 12.2146 31.3855C12.6427 31.0002 12.9546 30.8106 13.5416 30.5966C14.6179 30.193 15.4496 30.0523 16.7399 30.0523C18.5134 30.0523 19.7792 30.4804 21.1674 31.5506C21.7484 32.0031 21.7239 31.8808 21.0879 31.1348C20.8066 30.8045 20.085 30.2786 19.5163 29.9912C18.6663 29.557 16.6849 29.4164 15.0215 29.6671ZM42.9685 29.6854C41.6782 29.9484 40.4001 30.7128 39.813 31.5628C39.7152 31.7035 39.6357 31.8319 39.6357 31.8564C39.6357 31.9175 40.0087 31.6423 40.345 31.3304C40.8648 30.8473 41.9228 30.3887 42.9502 30.193C43.3538 30.1196 43.8369 30.089 44.6196 30.089C45.8733 30.089 46.3809 30.1685 47.3043 30.5232C47.8302 30.725 48.1298 30.9207 49.4141 31.9114C49.4874 31.9664 49.4874 31.9542 49.4202 31.8258C48.9676 30.9513 47.9219 30.1318 46.8823 29.8383C46.1118 29.6243 45.7449 29.5815 44.583 29.5692C43.7818 29.5631 43.4333 29.5876 42.9685 29.6854ZM50.5821 29.6732C50.5821 29.7588 50.9123 30.1869 51.1569 30.4193C51.3832 30.6333 51.3832 30.6333 52.0314 30.6516C52.6429 30.6761 52.6735 30.67 52.6368 30.5599C52.6124 30.4988 52.5451 30.2664 52.4901 30.0401L52.3861 29.6243H51.481C50.9857 29.6243 50.5821 29.6487 50.5821 29.6732ZM43.7329 31.0002C43.0297 31.1042 42.1674 31.3488 41.7516 31.5628C41.189 31.8502 40.394 32.4251 40.0882 32.7675C39.495 33.4341 39.1464 34.2841 39.1464 35.0791V35.495H39.4522C39.7152 35.495 39.758 35.4766 39.7824 35.3543C39.972 34.4431 40.1004 34.119 40.4979 33.5258C41.3174 32.315 42.6261 31.5506 44.0142 31.4772C44.742 31.4344 45.6531 31.5322 46.1362 31.6974C47.0046 31.997 47.7935 32.5413 48.3316 33.2201C48.882 33.9111 49.1022 34.4248 49.2673 35.3849L49.304 35.6173L49.6831 35.5745C49.891 35.5561 50.0745 35.5255 50.0867 35.5133C50.154 35.4583 49.9705 34.0823 49.8727 33.8928C49.8177 33.7827 49.4569 33.3546 49.0716 32.9449C48.1176 31.9236 47.4938 31.5261 46.3747 31.2081C45.2923 30.9024 44.6747 30.8534 43.7329 31.0002ZM15.9083 30.9696C13.7251 31.2204 11.6948 32.6269 11.2973 34.1618C11.2545 34.3392 11.1934 34.7122 11.1689 34.9874L11.1261 35.495H11.3707C11.5052 35.495 11.6581 35.5072 11.707 35.5255C11.7682 35.5561 11.811 35.446 11.8844 35.073C12.1045 33.9723 12.8078 32.9449 13.7862 32.2905C14.8197 31.6056 15.6331 31.4099 17.0212 31.5078C18.1403 31.5873 18.6846 31.7524 19.4001 32.2294C20.5314 32.9816 21.1063 33.7766 21.4243 35.0302L21.5649 35.5684L21.8829 35.5439C22.0603 35.5255 22.2254 35.495 22.2498 35.4766C22.2743 35.4522 22.2559 35.177 22.2131 34.8651C22.0847 33.8499 21.6689 33.1773 20.6476 32.3272C19.2778 31.1837 17.7795 30.7556 15.9083 30.9696ZM7.04105 33.2078V34.5838L7.20005 34.7306C7.46912 34.9813 8.04396 35.128 9.01018 35.1892C9.48717 35.2198 9.92136 35.2504 9.95806 35.2504C10.0131 35.2504 10.0376 35.1342 10.0376 34.8651C10.0376 34.4003 10.1599 33.6359 10.3617 32.8654C10.4412 32.5474 10.5268 32.1866 10.5451 32.0704L10.5757 31.8564L8.80838 31.8441L7.04105 31.838V33.2078ZM43.3049 32.688C42.5466 32.9755 41.6904 33.6604 41.3113 34.2841C40.7181 35.2565 40.6141 36.3083 40.9872 37.4519C41.2562 38.2836 42.0879 39.2253 42.8768 39.6106C43.7574 40.0386 44.4484 40.1181 45.3779 39.898C46.0567 39.7329 46.5337 39.4699 47.0352 38.9807C48.2644 37.7821 48.6007 35.9169 47.8608 34.4126C47.6956 34.0762 47.5367 33.8744 47.1575 33.5197C46.3258 32.7492 45.592 32.4801 44.4056 32.5229C43.8491 32.5352 43.6229 32.5718 43.3049 32.688ZM15.3885 32.6819C14.8748 32.8776 14.0859 33.4158 13.7067 33.8194C13.083 34.5104 12.82 35.2809 12.8628 36.3511C12.9056 37.2684 13.1564 37.9166 13.7312 38.6015C14.7219 39.7696 16.0611 40.2405 17.4615 39.9041C18.7947 39.5861 19.7976 38.6688 20.2746 37.3357C20.4519 36.8526 20.4642 36.7486 20.458 36.0453C20.4519 35.1586 20.3357 34.7244 19.9444 34.1557C19.3818 33.3301 18.6173 32.8226 17.59 32.5841C17.0212 32.4557 15.8532 32.5046 15.3885 32.6819ZM30.4077 35.3727L23.6564 35.3665L23.6992 35.8741C23.7236 36.1493 23.7603 36.4 23.7848 36.4245C23.8092 36.4428 24.806 36.4367 25.9985 36.4062C27.2277 36.3695 30.1325 36.3633 32.7009 36.3817L37.2385 36.4245L37.3057 36.0331C37.4036 35.446 37.3975 35.287 37.2629 35.3421C37.2079 35.3665 34.1197 35.3788 30.4077 35.3727ZM38.3209 36.8709C38.2597 37.036 38.1191 37.2684 38.0029 37.3785L37.8011 37.5864L35.5568 37.5314C32.6764 37.4702 25.4176 37.4702 24.3657 37.5314L23.5585 37.5803L23.2527 37.299C23.0815 37.14 22.8981 36.9076 22.8369 36.7853L22.7329 36.5651L22.1765 36.5774C21.8768 36.5835 21.6077 36.5957 21.5833 36.5957C21.5649 36.5957 21.516 36.7853 21.4732 37.0116C21.3325 37.8555 20.6109 39.1458 19.9872 39.6778C19.8098 39.8246 19.3389 40.3679 18.7274 40.6807C18.1159 40.9936 16.7399 41.0752 16.7399 41.0752C21.4732 41.0646 42.3304 40.8939 45.3779 40.8525C42.3317 40.8939 41.6415 40.0081 41.4519 39.8368C40.6692 39.1214 39.8558 37.7087 39.7763 36.9198L39.7396 36.5957L39.3054 36.5896C39.0669 36.5835 38.7856 36.559 38.6878 36.5407C38.4676 36.4857 38.4615 36.4918 38.3209 36.8709Z" fill="#10524B"/>
<path d="M32.4746 28.163C32.7315 28.322 32.7926 28.432 32.7743 28.7195C32.7437 29.1108 32.5847 29.172 31.3922 29.227C30.2976 29.2759 30.0224 29.2148 29.9123 28.9213C29.8145 28.6705 29.8389 28.3648 29.9674 28.2119C30.0836 28.0651 30.1019 28.0651 31.2027 28.0651C32.1077 28.0651 32.3462 28.0835 32.4746 28.163Z" fill="#10524B"/>
<path d="M21.8462 28.0894C22.8124 28.1322 22.9409 28.1873 22.9409 28.5909C22.9409 28.7682 22.9042 28.8538 22.7574 28.9762C22.525 29.1718 22.2437 29.2085 21.2775 29.178C20.4152 29.1474 20.2685 29.0923 20.0911 28.7621C19.981 28.5359 20.0177 28.334 20.2012 28.1567C20.348 28.0222 20.2562 28.0283 21.8462 28.0894Z" fill="#10524B"/>
<circle cx="2.44928" cy="2.44928" r="1.94928" transform="matrix(-1 0 0 1 46.9069 33.8027)" stroke="#10524B"/>
<path d="M22.048 47.1018C21.938 47.1752 21.8279 47.4259 21.8646 47.5177C21.8829 47.5727 21.8707 47.5911 21.8401 47.5727C21.6995 47.4871 21.8707 47.0529 22.0419 47.0529C22.0908 47.0529 22.097 47.0651 22.048 47.1018Z" fill="#10524B"/>
<circle cx="2.44928" cy="2.44928" r="1.94928" transform="matrix(-1 0 0 1 18.9417 33.8027)" stroke="#10524B"/>
</svg>
