<svg width="18" height="18" viewBox="0 0 18 18" fill="none" xmlns="http://www.w3.org/2000/svg">
<path d="M16.5 4.50006V6.31506C16.5 7.50006 15.75 8.25006 14.565 8.25006H12V3.00756C12 2.17506 12.6825 1.49256 13.515 1.50006C14.3325 1.50756 15.0825 1.83756 15.6225 2.37756C16.1625 2.92506 16.5 3.67506 16.5 4.50006Z" fill="#2EC4B6"/>
<path opacity="0.4" d="M1.5 5.25V15.75C1.5 16.3725 2.205 16.725 2.7 16.35L3.9825 15.39C4.2825 15.165 4.7025 15.195 4.9725 15.465L6.2175 16.7175C6.51 17.01 6.99 17.01 7.2825 16.7175L8.5425 15.4575C8.805 15.195 9.225 15.165 9.5175 15.39L10.8 16.35C11.295 16.7175 12 16.365 12 15.75V3C12 2.175 12.675 1.5 13.5 1.5H5.25H4.5C2.25 1.5 1.5 2.8425 1.5 4.5V5.25Z" fill="#2EC4B6"/>
<path d="M6.75 9.64434H9C9.02713 9.64434 9.05528 9.65539 9.07836 9.67847C9.10144 9.70155 9.1125 9.7297 9.1125 9.75684C9.1125 9.78397 9.10144 9.81212 9.07836 9.8352C9.05528 9.85828 9.02713 9.86934 9 9.86934H6.75C6.72287 9.86934 6.69472 9.85828 6.67164 9.8352C6.64856 9.81212 6.6375 9.78397 6.6375 9.75684C6.6375 9.7297 6.64856 9.70155 6.67164 9.67847C6.69472 9.65539 6.72287 9.64434 6.75 9.64434Z" fill="#2EC4B6" stroke="#2EC4B6" stroke-width="0.9"/>
<mask id="path-4-inside-1_906_9646" fill="white">
<path d="M6.75 7.31934H9C9.3075 7.31934 9.5625 7.06434 9.5625 6.75684C9.5625 6.44934 9.3075 6.19434 9 6.19434H6.75C6.4425 6.19434 6.1875 6.44934 6.1875 6.75684C6.1875 7.06434 6.4425 7.31934 6.75 7.31934Z"/>
</mask>
<path d="M6.75 7.31934H9C9.3075 7.31934 9.5625 7.06434 9.5625 6.75684C9.5625 6.44934 9.3075 6.19434 9 6.19434H6.75C6.4425 6.19434 6.1875 6.44934 6.1875 6.75684C6.1875 7.06434 6.4425 7.31934 6.75 7.31934Z" fill="#2EC4B6"/>
<path d="M6.75 8.44434H9V6.19434H6.75V8.44434ZM9 8.44434C9.92882 8.44434 10.6875 7.68566 10.6875 6.75684H8.4375C8.4375 6.44302 8.68618 6.19434 9 6.19434V8.44434ZM10.6875 6.75684C10.6875 5.82802 9.92882 5.06934 9 5.06934V7.31934C8.68618 7.31934 8.4375 7.07066 8.4375 6.75684H10.6875ZM9 5.06934H6.75V7.31934H9V5.06934ZM6.75 5.06934C5.82118 5.06934 5.0625 5.82802 5.0625 6.75684H7.3125C7.3125 7.07066 7.06382 7.31934 6.75 7.31934V5.06934ZM5.0625 6.75684C5.0625 7.68566 5.82118 8.44434 6.75 8.44434V6.19434C7.06382 6.19434 7.3125 6.44302 7.3125 6.75684H5.0625Z" fill="#2EC4B6" mask="url(#path-4-inside-1_906_9646)"/>
<path d="M4.29004 6.75684C4.29004 6.65132 4.37186 6.56934 4.47754 6.56934C4.57938 6.56934 4.66504 6.655 4.66504 6.75684C4.66504 6.85868 4.57938 6.94434 4.47754 6.94434C4.3757 6.94434 4.29004 6.85868 4.29004 6.75684Z" fill="#2EC4B6" stroke="#2EC4B6" stroke-width="1.125"/>
<path d="M4.29004 9.75684C4.29004 9.65132 4.37186 9.56934 4.47754 9.56934C4.57938 9.56934 4.66504 9.655 4.66504 9.75684C4.66504 9.85868 4.57938 9.94434 4.47754 9.94434C4.3757 9.94434 4.29004 9.85868 4.29004 9.75684Z" fill="#2EC4B6" stroke="#2EC4B6" stroke-width="1.125"/>
</svg>
