<svg width="24" height="25" viewBox="0 0 24 25" fill="none" xmlns="http://www.w3.org/2000/svg">
<path opacity="0.4" d="M22 7.82269V16.2027C22 19.0127 20.71 20.9427 18.44 21.6727C17.78 21.9027 17.02 22.0127 16.19 22.0127H7.81C6.98 22.0127 6.22 21.9027 5.56 21.6727C3.29 20.9427 2 19.0127 2 16.2027V7.82269C2 4.18269 4.17 2.0127 7.81 2.0127H16.19C19.83 2.0127 22 4.18269 22 7.82269Z" fill="#2EC4B6"/>
<path d="M18.4401 21.6727C17.7801 21.9027 17.0201 22.0127 16.1901 22.0127H7.81006C6.98006 22.0127 6.22006 21.9027 5.56006 21.6727C5.91006 19.0327 8.67006 16.9827 12.0001 16.9827C15.3301 16.9827 18.0901 19.0327 18.4401 21.6727Z" fill="#2EC4B6"/>
<path d="M15.5799 11.5927C15.5799 13.5727 13.9799 15.1827 11.9999 15.1827C10.0199 15.1827 8.41992 13.5727 8.41992 11.5927C8.41992 9.61271 10.0199 8.0127 11.9999 8.0127C13.9799 8.0127 15.5799 9.61271 15.5799 11.5927Z" fill="#2EC4B6"/>
</svg>
