<svg width="20" height="21" viewBox="0 0 20 21" fill="none" xmlns="http://www.w3.org/2000/svg">
<g clip-path="url(#clip0_906_11250)">
<path d="M15.1166 18.9121C14.3833 19.1288 13.5166 19.2288 12.5 19.2288H7.49997C6.4833 19.2288 5.61663 19.1288 4.8833 18.9121C5.06663 16.7455 7.29163 15.0371 9.99997 15.0371C12.7083 15.0371 14.9333 16.7455 15.1166 18.9121Z" stroke="#2EC4B6" stroke-width="1.5" stroke-linecap="round" stroke-linejoin="round"/>
<path d="M12.5001 2.5625H7.50008C3.33341 2.5625 1.66675 4.22917 1.66675 8.39583V13.3958C1.66675 16.5458 2.61675 18.2708 4.88342 18.9125C5.06675 16.7458 7.29175 15.0375 10.0001 15.0375C12.7084 15.0375 14.9334 16.7458 15.1167 18.9125C17.3834 18.2708 18.3334 16.5458 18.3334 13.3958V8.39583C18.3334 4.22917 16.6667 2.5625 12.5001 2.5625ZM10.0001 12.7042C8.35008 12.7042 7.01675 11.3625 7.01675 9.71251C7.01675 8.06251 8.35008 6.72917 10.0001 6.72917C11.6501 6.72917 12.9834 8.06251 12.9834 9.71251C12.9834 11.3625 11.6501 12.7042 10.0001 12.7042Z" stroke="#2EC4B6" stroke-width="1.5" stroke-linecap="round" stroke-linejoin="round"/>
<path d="M12.9833 9.71186C12.9833 11.3619 11.6499 12.7035 9.99994 12.7035C8.34994 12.7035 7.0166 11.3619 7.0166 9.71186C7.0166 8.06186 8.34994 6.72852 9.99994 6.72852C11.6499 6.72852 12.9833 8.06186 12.9833 9.71186Z" stroke="#2EC4B6" stroke-width="1.5" stroke-linecap="round" stroke-linejoin="round"/>
</g>
<defs>
<clipPath id="clip0_906_11250">
<rect width="20" height="20" fill="white" transform="translate(0 0.895508)"/>
</clipPath>
</defs>
</svg>
