<svg width="86" height="87" viewBox="0 0 86 87" fill="none" xmlns="http://www.w3.org/2000/svg">
<rect x="-0.000732422" y="0.878906" width="85.9395" height="85.9395" rx="14" fill="#E1F5F3"/>
<circle cx="42.969" cy="43.8486" r="32.7099" fill="#9FE4DD"/>
<path d="M18.321 24.5925L15.5143 24.6639C12.8864 24.7174 12.6183 24.753 11.635 25.2167C10.2406 25.8587 8.91769 26.8574 8.29199 27.7134C8.29199 27.7134 7.84805 28.0908 7.77356 28.4267C7.36682 30.2612 7.10151 32.5298 7.10151 36.0083C7.10151 39.4869 7.32892 42.247 8.1311 43.8884C8.72104 44.5912 8.81043 45.2437 8.11322 46.2246C7.79144 46.6704 7.10151 47.5978 7.10151 51.646C7.10151 51.646 6.72743 54.3666 7.77356 55.4623C8.13109 55.8368 8.50652 56.3502 8.50652 56.3502C9.57914 57.1527 9.79367 56.7998 11.5993 56.8355L13.3691 56.8712L13.8875 57.8342C14.1736 58.3514 14.6741 59.0647 15.0138 59.4035C15.3534 59.7602 15.1967 59.8189 15.6395 60.1704C22.773 65.8395 41.6854 62.2712 59.8938 60.2333C65.4893 64.1285 70.1646 60.4003 70.1646 60.1525C70.1646 60.099 70.397 59.7959 70.6831 59.4927C70.9691 59.2074 71.4875 58.494 71.8093 57.9055L72.3993 56.8712L73.8473 56.8177C75.635 56.7463 76.8685 56.2648 77.7803 55.2662C78.9423 53.9643 78.9959 53.7503 78.9423 48.9709C78.9065 44.7266 78.8886 44.6909 78.3881 43.4069C77.7624 41.8375 77.1903 40.9102 76.0104 39.5192C73.9724 37.1295 70.3076 33.3845 68.2875 31.6189C62.0842 26.2511 61.8339 26.0549 59.8317 25.1097L58.6339 24.539L52.949 24.5569L47.2641 24.5925C22.1408 24.539 31.1154 24.539 18.321 24.5925ZM58.7233 26.6969C59.1702 26.8574 59.8138 27.1606 60.1534 27.3746C61.4227 28.1236 68.4127 34.3475 71.1479 37.1473C73.025 39.0733 75.349 41.6414 75.349 41.784C75.349 41.8375 75.0272 41.9267 74.6518 41.998C73.6149 42.1585 72.8998 42.854 72.5602 43.9776C72.2026 45.2081 72.435 46.1354 73.3467 47.1341C74.0976 47.9723 74.7233 48.2754 76.0104 48.4538C76.7613 48.5429 76.94 48.6321 76.9937 48.9531C77.1367 49.7021 76.9937 49.7734 75.349 49.7734H73.7758L73.5613 49.2384C73.168 48.2933 70.9333 46.3672 69.1993 45.4934L67.6082 44.6909H65.3557C62.8171 44.6909 61.9769 44.8871 60.1177 45.9749C58.8484 46.7061 57.2931 48.1149 56.7032 49.0601C56.5065 49.3989 56.2384 49.7378 56.149 49.8091C56.0417 49.8804 54.4149 49.9518 52.5199 49.9518H49.1054L49.016 45.2616C48.9445 40.5179 48.873 39.8937 48.4261 39.7153C47.854 39.5013 47.7467 40.3395 47.6752 45.1902L47.6037 49.9518L38.6115 49.9161L29.6015 49.8626L29.4942 45.3507C29.4406 42.8719 29.3155 40.6605 29.2261 40.4109C29.0115 39.8758 28.6004 39.8402 28.3322 40.3395C28.0819 40.7854 28.1713 47.7048 28.4216 48.2576C28.5467 48.5073 28.368 48.4359 27.8138 47.9901C24.9356 45.6539 23.9702 45.1724 21.6462 44.9584C19.3758 44.7444 17.8741 44.9941 16.14 45.8679C14.0484 46.9201 12.368 48.3111 12.1356 49.2384C11.9568 49.8804 11.778 49.9518 10.0618 49.9518C8.5244 49.9518 8.48864 49.9518 8.48864 49.5238C8.48864 49.2919 8.84618 48.6143 9.29311 48.0258C10.2048 46.8131 10.5266 45.5826 10.33 44.0846C10.187 43.0324 9.93669 42.533 9.06071 41.6414L8.72104 40.4109L8.50652 36.4697C8.64954 31.6724 8.81043 30.7273 9.81155 29.0152C10.8842 27.1962 12.3322 26.572 15.9076 26.4294C17.2842 26.3759 27.2953 26.3402 38.1646 26.358C56.1132 26.3937 57.9903 26.4294 58.7233 26.6969ZM76.4931 43.9776C76.6361 44.1381 76.8149 44.5482 76.8685 44.9227C76.94 45.2794 77.0294 45.7966 77.0652 46.0819C77.1367 46.4207 77.0831 46.5991 76.8685 46.6704C76.4931 46.8309 74.7412 46.2959 74.4551 45.9392C74.2048 45.6361 74.0082 44.3699 74.1512 43.9776C74.3121 43.6031 76.0998 43.6031 76.4931 43.9776ZM68.8775 46.9914C71.1657 48.2041 72.8819 50.5938 73.454 53.4115C73.6149 54.1783 73.74 54.8382 73.74 54.8917C73.74 54.9273 73.5255 54.9452 73.2574 54.9095C72.8104 54.856 72.7568 54.7668 72.6138 53.8751C72.3278 51.7351 70.5937 49.2919 68.7345 48.3468C65.8562 46.9022 62.5847 47.3481 60.1534 49.5416C58.7233 50.8435 58.1155 52.0561 57.74 54.4458C57.6507 55.0522 57.5792 55.1235 57.0965 55.1235C56.5423 55.1235 56.5423 55.1235 56.6674 54.3567C57.0607 51.8956 57.8294 50.0588 59.0808 48.6499C60.6183 46.9201 62.6562 46.1711 65.6954 46.2602C67.4831 46.3137 67.6261 46.3316 68.8775 46.9914ZM23.1657 46.7596C24.9356 47.3303 25.7579 47.9009 26.902 49.3454C28.0998 50.8435 28.2786 51.325 28.4395 53.5898C28.5467 54.9095 28.5289 55.1592 28.3143 55.0878C28.1713 55.0343 28.0104 54.6242 27.9389 54.1248C27.5456 51.3963 25.9546 49.2919 23.3803 48.1328C22.6652 47.7939 22.2004 47.7226 20.5557 47.7226C18.6428 47.7226 18.5534 47.7404 17.3378 48.3646C16.0507 49.0423 14.549 50.3619 14.1378 51.1823C13.9948 51.432 13.7088 52.4306 13.4942 53.3758C13.1009 55.0878 12.9579 55.284 12.4395 54.963C12.2071 54.8203 12.2071 54.5707 12.4752 53.0726C12.8328 51.0753 13.2261 50.2193 14.3345 49.0423C16.0149 47.2411 17.9456 46.4029 20.4842 46.4029C21.5747 46.3851 22.3434 46.4921 23.1657 46.7596ZM22.7724 49.8983C23.9881 50.4868 24.9177 51.3963 25.5255 52.6268C25.9724 53.5185 25.7735 52.7758 26.0417 54.321C26.0417 55.872 25.7735 57.0341 25.5255 57.5257C25.3501 57.8171 24.0003 57.7232 23.8235 57.3042C24.0441 56.5826 24.6317 54.6598 24.5065 54.321C23.8272 52.5198 23.1836 51.7173 21.9143 51.1466C21.0384 50.7543 19.9836 50.8256 18.768 51.3606C17.8384 51.7708 17.4451 52.2345 17.0339 53.3758C16.7121 54.2675 16.7702 56.0612 17.0339 56.8712C18.66 59.1243 22.54 58.9203 23.8235 57.3042C24.0042 57.7324 25.3552 57.8085 25.5255 57.5257C22.8915 61.8995 17.0339 60.206 15.6395 56.8712C15.3017 55.5693 15.1691 54.6589 15.3462 53.2866C15.4625 52.3853 15.5858 52.4841 16.0864 51.646C16.8909 50.2728 19.2864 49.1493 21.0026 49.3276C21.4495 49.3811 22.2361 49.6308 22.7724 49.8983ZM67.4831 49.7913C69.2171 50.5938 70.397 52.181 70.5758 53.9643C70.6294 54.4458 70.6544 54.426 70.6544 54.5596C70.6985 54.9799 70.6544 55.4672 70.5758 55.7251C70.4428 56.1617 70.3827 56.7284 69.7356 57.7272C69.4317 58.3335 67.6618 59.671 66.7322 60.0277C64.4976 60.8659 61.244 59.4035 60.0283 57.0138C59.6529 56.2648 59.5993 55.9438 59.6529 54.856C59.7244 53.3758 60.4752 51.6638 61.4585 50.7008C62.978 49.2384 65.4629 48.8639 67.4831 49.7913ZM11.0093 51.6816C11.0987 51.7708 11.1166 52.5376 11.0451 53.3936C10.9378 54.9273 10.9378 54.9452 10.4551 54.9452C9.93669 54.9452 9.31099 54.3745 8.68529 53.3401C8.18473 52.502 8.18473 51.7708 8.72104 51.5568C9.15009 51.3606 10.7948 51.4676 11.0093 51.6816ZM76.8507 51.4855C77.8697 51.8778 76.1356 54.9452 74.9199 54.9452C74.5266 54.9452 74.5088 54.8738 74.4015 53.2866C74.3479 52.395 74.3479 51.5925 74.4015 51.5033C74.4909 51.3606 76.4574 51.325 76.8507 51.4855ZM47.5322 51.8421C47.5859 52.0026 47.6395 52.7516 47.6395 53.5363C47.6395 54.8382 47.6037 54.9452 47.2462 55.0343C47.0138 55.0878 43.0987 55.1057 38.5222 55.0878L30.2093 55.0343L30.1557 53.2866L30.102 51.5568H38.7724C46.4953 51.5568 47.4428 51.5925 47.5322 51.8421ZM55.0585 53.1975C54.987 54.107 54.844 54.9095 54.7188 54.9808C54.6116 55.07 53.2708 55.1057 51.7512 55.07L48.9803 55.0343L48.9266 53.2866L48.873 51.5568H52.0373H55.1836L55.0585 53.1975ZM21.8965 53.1083C22.4864 53.6433 22.7546 54.6777 22.54 55.5693C22.3613 56.3005 21.5926 56.9068 20.8596 56.9068C20.1803 56.9068 19.1255 56.354 18.8574 55.8368C18.625 55.391 18.625 54.1248 18.8752 53.6433C19.4473 52.5198 20.949 52.2701 21.8965 53.1083ZM58.0797 57.531C58.2585 57.959 58.759 58.7259 59.206 59.2252C59.7602 59.8315 59.7394 59.8923 59.8938 60.2333C41.6595 62.2778 22.7724 65.8318 15.6395 60.1704C18.8752 62.2077 22.7244 62.8298 25.5791 60.206C25.8952 59.9156 26.33 59.4035 26.33 59.4035C26.7412 58.9577 27.2775 58.1909 27.5277 57.6737L27.9747 56.7463H42.8842L57.7758 56.7285L58.0797 57.531Z" fill="#10524B"/>
<path d="M14.2809 28.5693C13.0474 28.8546 11.3669 30.5666 10.8485 32.1003C10.7234 32.4391 10.5446 33.6161 10.4373 34.7397C10.2764 36.4517 10.2943 36.9153 10.5267 37.7179C10.8306 38.7522 11.6887 39.6795 12.529 39.8935C12.7614 39.9649 15.8362 39.9649 19.358 39.9292C25.4005 39.8579 25.7759 39.84 26.4552 39.4834C27.7066 38.8235 28.0284 38.3242 28.1893 36.8797C28.2608 36.1663 28.3144 34.3117 28.3144 32.7601L28.3323 29.9246L27.6172 29.2648C27.2061 28.8903 26.634 28.5514 26.3301 28.4801C25.472 28.3196 15.1033 28.3909 14.2809 28.5693ZM26.3837 33.7232C26.3301 37.0045 26.2228 37.7357 25.758 38.0389C25.6507 38.1102 22.6474 38.1815 19.1077 38.1815C13.2977 38.1815 12.6183 38.1459 12.4038 37.8784C11.9033 37.2899 12.3144 33.0276 12.9938 31.601C13.2619 31.0303 13.5658 30.745 14.1021 30.4953C14.7815 30.1921 15.2999 30.1565 20.6452 30.21L26.4552 30.2456L26.3837 33.7232Z" fill="#10524B"/>
<path d="M31.1031 28.7119C30.692 28.8903 30.1378 29.3004 29.8696 29.6393L29.369 30.2278L29.4406 33.9015C29.5121 37.5573 29.5121 37.593 30.0126 38.4312C30.388 39.0732 30.7277 39.3764 31.3177 39.6439C32.0685 39.9649 32.4618 39.9827 38.6651 39.9292L45.226 39.8757L46.1735 39.3407C47.6573 38.5204 47.6931 38.4312 47.5322 33.955C47.3892 29.6928 47.2998 29.3718 46.0305 28.7119C45.4584 28.3909 44.8864 28.3731 38.6115 28.3731C32.4082 28.3731 31.7467 28.4088 31.1031 28.7119ZM45.3869 30.3348C45.5657 30.5309 45.6551 31.4583 45.7266 33.955L45.8339 37.3255L45.3691 37.7535L44.9042 38.1815H38.3255C32.1936 38.1815 31.7288 38.1637 31.5679 37.8605C31.4785 37.6822 31.3892 35.9167 31.3892 33.9371C31.3713 30.3526 31.3713 30.3169 31.7646 30.1743C31.9791 30.1029 35.0897 30.0494 38.6473 30.0494C44.0998 30.0673 45.1724 30.1208 45.3869 30.3348Z" fill="#10524B"/>
<path d="M50.768 28.6942C50.3569 28.8904 49.8027 29.3005 49.5345 29.6394L49.0161 30.2457L49.1233 33.0991C49.1949 34.6684 49.32 36.2734 49.4273 36.6658C49.6954 37.6288 50.5893 38.9128 51.358 39.4478C51.9837 39.8758 52.0194 39.8758 56.9535 39.8936L61.9055 39.9115L62.9423 40.4286C64.7301 41.3025 66.5893 41.035 68.52 39.6261C69.0206 39.2516 69.2708 38.9306 69.2708 38.6631C69.2708 38.2351 67.8407 36.0059 67.0004 35.1321C66.768 34.8646 66.2675 34.5079 65.9099 34.3296C65.5524 34.1513 64.7301 33.5092 64.0865 32.9029C62.2094 31.1374 59.9747 29.4254 58.9021 28.926C57.9725 28.498 57.7222 28.4624 54.701 28.4089C51.8407 28.3732 51.3937 28.391 50.768 28.6942ZM58.2585 30.5311C59.1345 30.9947 61.6194 32.9029 62.4597 33.7767L63.0675 34.4188L62.4239 35.1499C61.8518 35.8276 61.4049 37.0224 61.4049 37.9141C61.4049 38.146 60.7077 38.1816 56.8999 38.1816C52.7166 38.1816 52.3412 38.146 51.8049 37.825C51.4652 37.6288 51.1613 37.2721 51.0898 36.9868C51.0362 36.7193 50.9647 35.0786 50.9647 33.3666L50.9468 30.2457L52.2876 30.1387C53.0206 30.0852 54.5044 30.0674 55.577 30.103C57.1502 30.1387 57.6507 30.21 58.2585 30.5311ZM65.3379 36.2199C65.7312 36.4339 66.053 37.3078 66.053 38.1995C66.053 39.0198 65.606 39.3408 64.6764 39.1625C63.6753 38.9841 62.996 37.4683 63.6038 36.7193C64.0865 36.1129 64.7658 35.9168 65.3379 36.2199Z" fill="#10524B"/>
<path d="M17.3557 41.9266C16.0865 42.0871 15.7825 42.2833 15.8541 42.9075C15.9077 43.2463 16.0507 43.2642 21.0027 43.2642H26.0976L26.1513 42.8005C26.187 42.5508 26.0976 42.2655 25.9725 42.1585C25.6686 41.9088 18.9647 41.7483 17.3557 41.9266Z" fill="#10524B"/>
<path d="M31.2283 42.1406C30.9423 42.4259 30.9602 42.7291 31.2998 43.0679C31.5144 43.2819 31.9613 43.3533 33.1591 43.3533C35.0183 43.3533 35.3043 43.2641 35.3043 42.7469C35.3043 42.0514 34.9825 41.9266 33.1591 41.9266C32.0686 41.9266 31.3714 41.9979 31.2283 42.1406Z" fill="#10524B"/>
<path d="M42.1334 42.1405C41.7937 42.4793 41.8831 42.9608 42.3658 43.2818C43.0094 43.7099 45.5658 43.5315 46.0485 43.05C46.3524 42.7468 46.3703 42.6933 46.1021 42.3188C45.8518 41.9622 45.6909 41.9265 44.082 41.9265C42.9736 41.9265 42.2764 41.9978 42.1334 42.1405Z" fill="#10524B"/>
<path d="M50.911 42.0516C50.7859 42.0872 50.6786 42.3726 50.6786 42.6579C50.6786 43.3356 51.1613 43.5317 52.8238 43.5317C54.3791 43.5317 54.9691 43.3177 54.9691 42.7649C54.9691 42.0516 54.6473 41.9267 52.8417 41.9446C51.8942 41.9446 51.0183 41.9981 50.911 42.0516Z" fill="#10524B"/>
<path d="M63.8899 51.093C62.9602 51.414 62.2094 52.0025 61.7446 52.7515C61.4049 53.3044 61.3334 53.6789 61.3156 54.8559C61.3156 56.1756 61.3692 56.3717 61.8161 56.9781C62.9602 58.4761 64.7658 59.0468 66.482 58.4583C67.2218 58.1225 67.6789 58.0964 68.0839 57.4449C68.4365 57.0562 68.6455 56.6371 68.8023 56.2592C69.0009 55.7805 69.0879 55.0294 69.0766 54.7347C68.9329 52.9655 68.0731 51.8599 66.7502 51.2C65.9636 50.7898 64.8373 50.7542 63.8899 51.093ZM66.3926 52.9655C67.4653 53.7324 67.5547 55.3909 66.5714 56.3717C65.7848 57.1386 65.2485 57.2277 64.3189 56.7284C62.6921 55.8724 62.5669 53.9642 64.0329 52.805C64.6407 52.3235 65.5882 52.3949 66.3926 52.9655Z" fill="#10524B"/>
</svg>
