<svg width="200" height="202" viewBox="0 0 200 202" fill="none" xmlns="http://www.w3.org/2000/svg">
<circle cx="100.236" cy="100.093" r="98.1668" stroke="url(#paint0_linear_384_12802)" stroke-width="2.66645" stroke-dasharray="2.67 5.33"/>
<path d="M168.481 130.256L170.236 134.316C170.831 135.693 171.946 136.779 173.337 137.339L177.585 139.048L173.371 140.743C171.96 141.311 170.834 142.421 170.246 143.824L168.481 148.033L166.685 143.748C166.116 142.39 165.042 141.305 163.689 140.722L159.809 139.048L163.723 137.36C165.055 136.785 166.118 135.723 166.694 134.391L168.481 130.256Z" fill="#2EC4B6"/>
<path d="M20.7461 106.67L22.5011 110.73C23.0962 112.107 24.2105 113.193 25.6019 113.753L29.8502 115.462L25.6361 117.157C24.2244 117.725 23.0989 118.835 22.5106 120.238L20.7461 124.447L18.9498 120.162C18.3803 118.804 17.3067 117.719 15.9543 117.136L12.0739 115.462L15.9878 113.774C17.3202 113.199 18.3829 112.137 18.9587 110.805L20.7461 106.67Z" fill="#2EC4B6"/>
<path d="M124.925 11.7666L126.714 15.905C127.288 17.2312 128.361 18.2775 129.702 18.8168L134.03 20.5581L129.734 22.2862C128.375 22.8333 127.29 23.902 126.724 25.2538L124.925 29.5429L123.097 25.1807C122.548 23.8723 121.514 22.8273 120.211 22.2653L116.253 20.5581L120.243 18.837C121.527 18.2834 122.55 17.2605 123.105 15.9774L124.925 11.7666Z" fill="#2EC4B6"/>
<circle cx="26.1449" cy="23.2716" r="23.2404" fill="#2EC4B6"/>
<path d="M38.3661 23.2718C38.3661 30.0179 32.891 35.493 26.1449 35.493C19.3988 35.493 13.9237 30.0179 13.9237 23.2718C13.9237 16.5256 19.3988 11.0505 26.1449 11.0505C32.891 11.0505 38.3661 16.5256 38.3661 23.2718Z" stroke="#FCFCFC" stroke-width="1.77763" stroke-linecap="round" stroke-linejoin="round"/>
<path d="M30.679 27.1579L26.8904 24.8969C26.2305 24.5058 25.6927 23.5648 25.6927 22.7949V17.7842" stroke="#FCFCFC" stroke-width="1.77763" stroke-linecap="round" stroke-linejoin="round"/>
<rect x="47.6729" y="180.406" width="105.05" height="19.1872" fill="#FBFBFB"/>
<path d="M66.3229 197.035H58.4646C56.3215 187.748 66.3229 157.029 102.519 156.791C131.476 156.6 143.477 184.017 144.43 197.035C139.508 197.511 130.571 198.178 134.19 197.035C138.715 195.606 127.522 166.316 102.519 166.078C82.5156 165.887 68.8629 186.319 66.3229 197.035Z" fill="#2EC4B6"/>
<path d="M95.2623 32.1945C94.9971 32.2608 93.4387 32.4929 91.7809 32.6918C81.3364 34.1176 71.8204 39.4227 66.051 47.0488C60.8785 53.846 58.0934 63.4947 58.9886 71.3529C59.4196 74.8675 60.2486 76.3596 62.9674 78.4816L64.7579 79.8411V83.422V87.003L63.2327 87.5335C60.0165 88.6277 56.8665 91.2802 55.0429 94.397C52.7551 98.3095 52.4898 104.013 54.4129 108.091C56.1703 111.871 59.6517 114.954 63.5643 116.281L65.189 116.844L65.9184 119.762C68.1068 128.35 73.3456 135.744 80.7727 140.684L83.0937 142.243L80.8059 142.707C77.3907 143.37 73.1466 144.862 69.6651 146.619C54.1477 154.411 44.1343 169.597 43.3053 186.573C43.0732 191.58 43.438 193.371 45.1953 196.156C46.7868 198.576 49.0083 200.267 51.7935 201.129C53.8493 201.792 54.7777 201.792 100.236 201.792C145.528 201.792 146.623 201.792 148.678 201.129C152.558 199.936 155.708 196.753 156.802 192.873C157.266 191.381 157.332 190.154 157.166 186.706C156.371 169.663 146.059 154.113 130.575 146.553C126.529 144.597 123.114 143.37 119.666 142.707L117.378 142.243L119.699 140.684C127.126 135.744 132.365 128.35 134.553 119.762L135.283 116.844L136.908 116.281C140.488 115.087 144.069 112.07 145.661 108.92C148.081 104.211 147.816 98.1106 145.031 93.7338C143.207 90.8823 139.991 88.3624 136.974 87.4009L135.714 87.003V83.3225V79.609L137.239 78.6143C138.93 77.4869 140.124 76.0612 140.953 74.2044C141.682 72.5134 141.682 64.6552 140.92 61.3063C139.66 55.8354 137.438 50.9945 134.155 46.7172C128.552 39.3232 120.495 34.8139 109.354 32.8244C106.668 32.3603 96.4892 31.8961 95.2623 32.1945ZM109.785 37.9638C117.345 39.5222 122.982 42.3074 127.425 46.6509C132.962 52.0555 136.278 59.3501 136.476 66.6114L136.543 69.3303L113.233 69.4961C90.6204 69.6619 89.8909 69.695 89.4267 70.2919C88.7636 71.2202 88.863 72.5797 89.5925 73.5081L90.2225 74.3038L112.405 74.4696L134.553 74.6354L131.271 76.2601C128.85 77.4538 126.728 78.1832 123.147 79.0121C120.495 79.6753 117.975 80.3053 117.544 80.4711C115.952 81.0679 115.853 83.6541 117.378 84.6488C118.141 85.1462 118.439 85.1462 121.158 84.6157C123.811 84.1183 128.618 82.8584 130.177 82.2284C130.773 82.0294 130.773 82.6926 130.641 99.039C130.508 115.518 130.508 116.181 129.779 118.734C126.032 132.03 115.157 140.75 101.562 141.347C94.8976 141.646 89.3604 140.187 84.0884 136.738C77.4902 132.428 72.8814 126.128 70.693 118.403C69.9636 115.85 69.9304 115.22 69.7978 98.9063C69.7315 89.6555 69.7646 82.0957 69.8309 82.0957C69.9304 82.0957 70.6267 82.3278 71.4225 82.5931C74.1745 83.5878 79.1812 84.7151 83.989 85.4446C88.1667 86.1077 90.1562 86.2072 99.2743 86.2072C109.155 86.2404 109.818 86.2072 110.481 85.6104C110.946 85.1793 111.178 84.5825 111.178 83.7536C111.178 81.4989 111.244 81.5321 99.5728 81.3331C91.383 81.2005 88.1336 81.0016 84.5526 80.4711C77.026 79.3437 70.9583 77.6196 67.5099 75.5638L65.9184 74.6354L74.0419 74.4696C78.5181 74.3702 82.4306 74.1712 82.7622 74.0054C84.1548 73.3423 84.3869 71.3197 83.2264 70.2255C82.4969 69.5292 82.1653 69.4961 73.2129 69.4298L63.929 69.3303L63.9953 66.6114C64.1942 59.5158 67.5099 52.0224 72.7156 46.9162C78.3523 41.379 84.2874 38.8259 95.4281 37.2012C97.9149 36.8365 106.503 37.3006 109.785 37.9638ZM64.7579 102.023V111.639L63.3985 110.876C62.6359 110.445 61.3759 109.417 60.6133 108.522C56.535 104.013 57.5628 96.6185 62.7022 93.336C63.5311 92.8055 64.36 92.3744 64.4927 92.3744C64.6253 92.3744 64.7579 96.718 64.7579 102.023ZM137.305 93.0044C141.284 95.0601 143.373 100.697 141.881 105.239C141.218 107.229 139.03 109.782 137.073 110.876L135.714 111.639V102.023C135.714 96.718 135.78 92.3744 135.88 92.3744C135.979 92.3744 136.609 92.6728 137.305 93.0044ZM92.6098 150.93C94.1019 153.383 95.2623 155.439 95.2292 155.505C95.1629 155.538 93.8366 155.837 92.3114 156.168C90.7862 156.5 88.4983 157.097 87.2715 157.528L84.9837 158.291V152.687C84.9837 146.321 84.6853 146.885 88.1336 146.652C89.062 146.586 89.8246 146.52 89.8578 146.487C89.8909 146.453 91.1509 148.443 92.6098 150.93ZM104.48 146.686C104.115 147.581 100.402 153.715 100.236 153.715C100.07 153.715 96.3565 147.581 95.9918 146.686C95.9255 146.553 97.8486 146.42 100.236 146.42C102.623 146.42 104.546 146.553 104.48 146.686ZM115.422 152.024L115.521 157.097L114.593 156.865C112.139 156.235 107.597 155.373 106.635 155.373C106.038 155.373 105.541 155.24 105.541 155.074C105.541 154.875 106.635 152.919 107.995 150.664L110.448 146.586L112.902 146.752L115.322 146.918L115.422 152.024ZM80.0101 153.217C80.0101 156.036 79.977 158.357 79.9107 158.357C79.8775 158.357 78.1202 156.633 76.0313 154.544L72.2514 150.764L73.2461 150.366C75.5339 149.438 79.2144 148.111 79.6122 148.111C79.9107 148.078 80.0101 149.305 80.0101 153.217ZM123.512 148.94C139.527 154.245 151.331 169.829 152.193 186.772C152.392 190.685 152.359 190.884 151.497 192.608C150.469 194.73 148.148 196.62 147.617 195.791C147.451 195.526 147.319 194.962 147.319 194.498C147.319 193.006 145.727 187.104 144.534 184.053C142.146 178.052 138.632 172.946 133.492 167.972C130.177 164.723 126.264 161.905 122.551 160.048L120.462 159.02V153.549C120.462 150.532 120.561 148.078 120.694 148.078C120.86 148.078 122.086 148.476 123.512 148.94ZM75.965 162.999C75.5671 163.264 74.4398 164.126 73.4782 164.889C72.5166 165.685 71.6214 166.314 71.4888 166.314C71.323 166.314 69.2341 164.325 66.8136 161.905L62.3706 157.462L63.9953 156.168C64.8574 155.439 66.051 154.511 66.5815 154.113L67.5763 153.416L72.1519 157.959C76.6613 162.468 76.6944 162.501 75.965 162.999ZM107.796 160.545C125.667 163.198 139.858 177.488 142.478 195.426L142.677 196.819H140.223C137.471 196.819 137.604 196.918 137.206 194.166C136.576 190.221 134.288 184.683 131.636 180.771C128.353 175.897 122.186 170.791 116.649 168.304C109.022 164.889 100.203 164.159 92.2451 166.314C88.9294 167.243 82.9943 170.161 80.1759 172.316C75.2355 176.063 70.892 181.534 68.7367 186.806C67.6757 189.292 66.0842 194.995 66.0842 196.189C66.0842 196.753 65.8189 196.819 63.5643 196.819H61.0443L61.2764 194.995C61.9064 189.955 64.6584 182.794 67.742 178.251C73.3456 170.028 81.7343 164.06 91.383 161.507C97.086 159.982 102.093 159.683 107.796 160.545ZM63.3653 165.751L67.742 170.128L66.3494 171.785C61.2764 177.853 57.5297 186.275 56.4024 194.001C55.9382 197.184 55.8387 197.25 53.2193 196.355C51.1304 195.592 49.9036 194.531 48.942 192.575C48.1131 190.884 48.0799 190.652 48.2789 186.772C48.5441 181.169 49.8704 176.096 52.4235 170.824C54.1808 167.21 58.0602 161.341 58.7233 161.341C58.856 161.341 60.9449 163.33 63.3653 165.751ZM109.188 170.99C112.935 171.852 118.605 174.67 121.688 177.256C127.06 181.699 130.873 187.933 132.166 194.365L132.63 196.653L125.468 196.753L118.34 196.819L110.614 189.127L102.888 181.401V175.665V169.929L104.646 170.161C105.574 170.26 107.63 170.658 109.188 170.99ZM97.5833 173.178V176.063L95.2623 173.775C94.0024 172.515 93.0077 171.421 93.074 171.354C93.2729 171.155 96.3234 170.36 97.0197 170.326C97.517 170.293 97.5833 170.625 97.5833 173.178ZM99.407 185.214L111.012 196.819H106.37H101.728L91.8803 186.971L82.0659 177.157L82.8285 176.56C84.2211 175.433 87.1057 173.609 87.4705 173.609C87.6362 173.609 93.0408 178.815 99.407 185.214ZM86.4757 188.861L94.4334 196.819H82.729C76.3297 196.819 71.0577 196.719 71.0577 196.554C71.0577 195.227 72.7156 190.088 73.8761 187.701C75.2024 184.982 77.8881 180.904 78.3523 180.904C78.4518 180.904 82.099 184.485 86.4757 188.861Z" fill="#8E8E8E"/>
<path d="M77.2249 91.0811C76.0976 91.9764 76.0313 93.6342 77.1255 94.6289C77.8881 95.3252 78.1533 95.3584 85.4479 95.3584H92.9745L93.7703 94.5295C94.2345 94.0984 94.5992 93.3358 94.5992 92.8716C94.5992 92.4074 94.2345 91.6448 93.7703 91.2138L92.9745 90.3848H85.5473C78.5181 90.3848 78.0539 90.418 77.2249 91.0811Z" fill="#8E8E8E"/>
<path d="M106.701 91.2138C106.237 91.6448 105.873 92.4074 105.873 92.8716C105.873 93.3358 106.237 94.0984 106.701 94.5295L107.497 95.3584H115.09C122.584 95.3584 122.683 95.3584 123.379 94.5958C124.407 93.5016 124.341 91.9432 123.247 91.0811C122.418 90.418 121.954 90.3848 114.924 90.3848H107.497L106.701 91.2138Z" fill="#8E8E8E"/>
<path d="M82.7622 103.117C81.5685 103.681 80.3417 105.405 80.3417 106.566C80.3417 107.793 81.2701 109.417 82.298 110.047C84.1879 111.175 86.8405 110.478 87.8021 108.621C88.631 106.997 88.432 105.438 87.2384 104.145C85.9453 102.753 84.3537 102.388 82.7622 103.117Z" fill="#8E8E8E"/>
<path d="M114.626 102.985C113.432 103.449 112.172 105.239 112.172 106.499C112.172 109.682 115.322 111.572 118.108 110.113C119.135 109.616 120.13 107.826 120.13 106.566C120.13 104.112 116.947 102.023 114.626 102.985Z" fill="#8E8E8E"/>
<path d="M92.3776 118.9C91.9466 119.099 91.5155 119.696 91.2503 120.492C90.3882 123.376 93.0076 127.852 96.4891 129.51C98.6111 130.505 101.861 130.505 103.983 129.51C109.42 126.957 111.476 118.569 106.668 118.569C105.773 118.569 104.646 120.061 104.414 121.519C104.248 122.514 103.85 123.31 103.087 124.073C102.093 125.067 101.761 125.2 100.236 125.2C98.7106 125.2 98.379 125.067 97.3843 124.073C96.6217 123.31 96.2238 122.514 96.058 121.519C95.6601 119.165 94.2344 118.137 92.3776 118.9Z" fill="#8E8E8E"/>
<g clip-path="url(#clip0_384_12802)">
<path d="M77.1753 179.033L97.3113 169.18L111.021 171.107L124.838 178.284L135.48 199.384H69.2493L77.1753 179.033Z" fill="#FCFCFC"/>
<path d="M94.5381 168.623C82.2723 171.178 72.3915 180.173 67.894 192.916C66.9741 195.471 66.94 195.812 66.94 202.217C66.94 207.43 67.0763 209.44 67.5874 211.587C68.7118 216.493 71.676 221.774 75.5942 225.829C80.705 231.178 85.5091 234.142 92.1531 236.119C96.5483 237.447 103.09 237.686 107.656 236.698C117.911 234.517 128.712 225.761 132.494 216.595C133.686 213.699 134.811 209.202 135.322 205.386C135.731 202.251 135.322 197.072 134.368 193.495C133.039 188.316 129.768 182.558 125.816 178.367C122.715 175.062 120.16 173.188 116.003 171.11C109.393 167.805 102.375 166.987 94.5381 168.623ZM94.8788 174.347C94.6403 177.175 94.2314 180.445 93.1752 187.396C92.6641 190.905 92.5279 191.212 91.4716 192.166C90.8583 192.711 90.1769 193.495 90.0065 193.87C89.6658 194.517 89.0525 194.619 82.0338 195.164C77.843 195.505 73.5499 195.744 72.4596 195.744H70.4494L70.6879 194.619C71.4375 191.11 75.4239 184.023 78.4903 180.786C80.2621 178.912 84.7595 175.505 87.0423 174.347C88.814 173.427 93.8566 171.587 94.6744 171.553C95.0151 171.553 95.0832 172.098 94.8788 174.347ZM110.586 172.268C114.879 173.359 118.49 175.607 122.511 179.56C124.419 181.434 126.6 183.921 127.315 185.079C128.985 187.669 131.063 192.405 131.37 194.347L131.608 195.812L129.598 195.641C128.508 195.505 124.283 195.233 120.262 195.028L112.937 194.619L111.369 192.984L109.768 191.348L108.712 182.728C108.099 177.992 107.553 173.529 107.451 172.813C107.349 172.132 107.383 171.553 107.553 171.553C107.724 171.553 109.087 171.859 110.586 172.268ZM105.305 192.984C110.79 195.062 113.482 201.161 111.335 206.544C109.564 210.906 106.838 212.916 102.17 213.359C98.3882 213.733 93.8566 211.655 92.0508 208.759C90.5858 206.374 90.1428 205.079 90.1428 202.762C90.1088 199.389 90.8243 197.549 93.0049 195.369C96.3439 191.996 100.603 191.178 105.305 192.984ZM83.3966 210.565L89.6658 211.076L91.2331 212.677L92.8004 214.279L93.073 218.061C93.3456 221.604 94.0611 228.35 94.5722 231.928C94.7766 233.427 94.7425 233.563 94.0951 233.563C92.2893 233.563 87.8941 231.757 84.9299 229.815C77.6045 224.977 71.9486 217.413 70.6879 210.667L70.4835 209.509L73.8225 209.781C75.6624 209.917 79.9554 210.292 83.3966 210.565ZM131.506 209.849C131.506 211.11 129.666 215.914 128.303 218.333C125.271 223.648 121.625 227.226 115.594 230.769C113.686 231.894 109.359 233.563 108.303 233.563C107.451 233.563 107.451 232.711 108.337 225.488C109.7 213.972 109.598 214.483 111.369 212.575L112.971 210.871L120.944 210.258C128.099 209.713 129.53 209.611 131.097 209.406C131.301 209.406 131.506 209.611 131.506 209.849Z" fill="#8E8E8E"/>
</g>
<path d="M113.208 125.316C107.913 125.316 102.954 123.724 100.401 121.128C97.4658 123.724 88.9985 125.316 86.3451 125.316C83.6918 125.316 71.4574 124.586 72.6826 113.276C78.2612 120.273 89.5858 111.284 94.1523 111.284C98.1913 111.284 98.2996 113.276 100.401 113.276C102.341 113.276 102.954 111.284 106.689 111.284C111.619 111.284 119.602 118.346 128.241 113.276C126.733 123.724 116.036 125.316 113.208 125.316Z" fill="#2EC4B6"/>
<defs>
<linearGradient id="paint0_linear_384_12802" x1="-12.4255" y1="-302.069" x2="315.1" y2="-279.959" gradientUnits="userSpaceOnUse">
<stop stop-color="#9FE4DD"/>
<stop offset="1" stop-color="#2EC4B5"/>
</linearGradient>
<clipPath id="clip0_384_12802">
<rect width="68.7396" height="33.9865" fill="white" transform="translate(66.94 167.806)"/>
</clipPath>
</defs>
</svg>
