<svg width="15" height="15" viewBox="0 0 15 15" fill="none" xmlns="http://www.w3.org/2000/svg">
<path opacity="0.4" d="M12.6591 5.55702V9.44336C12.6591 10.0797 12.3182 10.6707 11.767 10.9945L8.39204 12.9434C7.84091 13.2616 7.15907 13.2616 6.60226 12.9434L3.22725 10.9945C2.67612 10.6763 2.33521 10.0854 2.33521 9.44336V5.55702C2.33521 4.92065 2.67612 4.32972 3.22725 4.00586L6.60226 2.057C7.15339 1.73881 7.83522 1.73881 8.39204 2.057L11.767 4.00586C12.3182 4.32972 12.6591 4.91497 12.6591 5.55702Z" fill="#10524B"/>
<path d="M7.50011 8.49441C7.26716 8.49441 7.07397 8.30123 7.07397 8.06827V5.08532C7.07397 4.85236 7.26716 4.65918 7.50011 4.65918C7.73307 4.65918 7.92625 4.85236 7.92625 5.08532V8.06827C7.92625 8.30123 7.73307 8.49441 7.50011 8.49441Z" fill="#10524B"/>
<path d="M7.50007 10.4824C7.4262 10.4824 7.35234 10.4654 7.28415 10.4369C7.21029 10.4085 7.15346 10.3688 7.09665 10.3176C7.04551 10.2608 7.00575 10.1983 6.97166 10.1301C6.94325 10.062 6.93188 9.98809 6.93188 9.91423C6.93188 9.7665 6.98869 9.61876 7.09665 9.5108C7.15346 9.45967 7.21029 9.41992 7.28415 9.39151C7.49438 9.3006 7.7444 9.35171 7.90349 9.5108C7.95462 9.56762 7.99438 9.62445 8.02278 9.69831C8.05119 9.7665 8.06825 9.84036 8.06825 9.91423C8.06825 9.98809 8.05119 10.062 8.02278 10.1301C7.99438 10.1983 7.95462 10.2608 7.90349 10.3176C7.79553 10.4256 7.65348 10.4824 7.50007 10.4824Z" fill="#10524B"/>
</svg>
